<svg width="286" height="314" viewBox="0 0 286 314" fill="none" xmlns="http://www.w3.org/2000/svg">
<path opacity="0.1" d="M24.6102 0L285.431 133.567L285.393 313.899L24.5723 180.332L24.6102 0Z" fill="url(#paint0_linear_525_5635)"/>
<path opacity="0.2" d="M24.6113 0L285.09 133.399V157.858L24.6113 24.4592V0Z" fill="url(#paint1_linear_525_5635)"/>
<path d="M0 81.6875L67.4235 116.206V132.793L0 98.274V81.6875Z" fill="#34EE30"/>
<path d="M185.889 174.176L253.312 208.695V225.281L185.889 190.762V174.176Z" fill="#34EE30"/>
<path opacity="0.15" d="M141.672 196.516L273.258 263.905V314.001L141.672 246.612V196.516Z" fill="url(#paint2_linear_525_5635)"/>
<path opacity="0.07" d="M154.414 190.863L286 258.252V308.348L154.414 240.959V190.863Z" fill="url(#paint3_linear_525_5635)"/>
<path opacity="0.15" d="M151.418 211.688L171.251 221.848V238.435L151.418 228.274V211.688Z" fill="white"/>
<path opacity="0.15" d="M175.84 224.775L195.673 234.936V251.522L175.84 241.362V224.775Z" fill="white"/>
<path opacity="0.15" d="M200.26 237.057L220.092 247.217V263.804L200.26 253.61V237.057Z" fill="white"/>
<path opacity="0.15" d="M224.682 250.145L244.514 260.305V276.892L224.682 266.731V250.145Z" fill="white"/>
<path opacity="0.15" d="M42.207 67.793L191.843 144.434V150.086L42.207 73.4788V67.793Z" fill="white"/>
<path opacity="0.15" d="M42.207 79.1973L171.328 145.308V150.96L42.207 84.8495V79.1973Z" fill="white"/>
<path opacity="0.15" d="M42.207 90.4688L152.064 146.722V152.374L42.207 96.1209V90.4688Z" fill="white"/>
<path opacity="0.15" d="M6.18164 121.859L115.735 177.944V228.04L6.18164 171.955V121.859Z" fill="url(#paint4_linear_525_5635)"/>
<path opacity="0.07" d="M18.9219 116.207L128.476 172.292V222.388L18.9219 166.303V116.207Z" fill="url(#paint5_linear_525_5635)"/>
<path opacity="0.15" d="M13.6523 137.738L100.681 182.317V187.969L13.6523 143.424V137.738Z" fill="white"/>
<path opacity="0.15" d="M13.6523 149.145L83.3511 184.841V190.493L13.6523 154.797V149.145Z" fill="white"/>
<path opacity="0.2" d="M52.9766 26.7461C52.9766 30.4133 50.5496 32.1291 47.5918 30.6152C44.634 29.1012 42.207 24.8957 42.207 21.2621C42.207 17.6286 44.634 15.8791 47.5918 17.3931C50.5496 18.907 52.9766 23.1125 52.9766 26.7461Z" fill="white"/>
<path opacity="0.3" d="M45.8846 219.359C45.8846 226.02 44.216 230.293 40.879 232.144C37.542 233.994 33.0673 233.489 27.455 230.596C21.8427 227.736 17.368 223.665 14.031 218.383C10.6939 213.135 9.02539 207.146 9.02539 200.484C9.02539 193.823 10.6939 189.55 14.031 187.7C17.368 185.849 21.8427 186.354 27.455 189.247C33.0673 192.141 37.542 196.178 40.879 201.46C44.216 206.709 45.8846 212.664 45.8846 219.359ZM34.1291 213.337C34.1291 209.703 33.5223 206.776 32.2709 204.488C31.0196 202.2 29.4269 200.585 27.4929 199.576C25.4831 198.533 23.8525 198.533 22.6011 199.509C21.4255 200.552 20.8188 202.873 20.8188 206.473C20.8188 210.107 21.4255 213.067 22.6011 215.355C23.8525 217.643 25.4831 219.292 27.4929 220.301C29.4269 221.31 31.0196 221.31 32.2709 220.301C33.4844 219.292 34.1291 216.936 34.1291 213.337ZM66.1723 210.78L80.6202 218.181L39.931 271.171L25.4831 263.769L66.1723 210.78ZM97.2675 281.567C97.2675 288.228 95.599 292.501 92.2619 294.351C88.9249 296.202 84.4502 295.697 78.8379 292.804C73.2256 289.944 68.7509 285.873 65.4139 280.591C62.0768 275.343 60.4083 269.354 60.4083 262.692C60.4083 256.031 62.0768 251.758 65.4139 249.908C68.7509 248.057 73.2256 248.562 78.8379 251.455C84.4502 254.315 88.9249 258.386 92.2619 263.668C95.599 268.916 97.2675 274.905 97.2675 281.567ZM85.512 275.544C85.512 271.911 84.9052 268.984 83.6539 266.696C82.4025 264.408 80.8098 262.793 78.8758 261.784C76.866 260.741 75.2354 260.741 73.984 261.717C72.8085 262.76 72.2017 265.081 72.2017 268.681C72.2017 272.315 72.8085 275.275 73.984 277.563C75.2354 279.851 76.866 281.499 78.8758 282.509C80.8098 283.518 82.4025 283.518 83.6539 282.509C84.8673 281.533 85.512 279.178 85.512 275.544Z" fill="url(#paint6_linear_525_5635)"/>
<defs>
<linearGradient id="paint0_linear_525_5635" x1="205.83" y1="111.967" x2="120.125" y2="208.377" gradientUnits="userSpaceOnUse">
<stop stop-color="white"/>
<stop offset="1" stop-color="white" stop-opacity="0"/>
</linearGradient>
<linearGradient id="paint1_linear_525_5635" x1="89.2393" y1="-19.6735" x2="171.625" y2="137.621" gradientUnits="userSpaceOnUse">
<stop stop-color="white"/>
<stop offset="1" stop-color="white" stop-opacity="0"/>
</linearGradient>
<linearGradient id="paint2_linear_525_5635" x1="219.684" y1="236.48" x2="200.961" y2="273.04" gradientUnits="userSpaceOnUse">
<stop stop-color="white"/>
<stop offset="1" stop-color="white" stop-opacity="0"/>
</linearGradient>
<linearGradient id="paint3_linear_525_5635" x1="232.437" y1="230.823" x2="213.715" y2="267.382" gradientUnits="userSpaceOnUse">
<stop stop-color="white"/>
<stop offset="1" stop-color="white" stop-opacity="0"/>
</linearGradient>
<linearGradient id="paint4_linear_525_5635" x1="73.1725" y1="156.164" x2="54.4502" y2="192.723" gradientUnits="userSpaceOnUse">
<stop stop-color="white"/>
<stop offset="1" stop-color="white" stop-opacity="0"/>
</linearGradient>
<linearGradient id="paint5_linear_525_5635" x1="85.9232" y1="150.507" x2="67.2009" y2="187.066" gradientUnits="userSpaceOnUse">
<stop stop-color="white"/>
<stop offset="1" stop-color="white" stop-opacity="0"/>
</linearGradient>
<linearGradient id="paint6_linear_525_5635" x1="73.7378" y1="215.425" x2="27.9182" y2="287.826" gradientUnits="userSpaceOnUse">
<stop stop-color="white"/>
<stop offset="1" stop-color="white" stop-opacity="0"/>
</linearGradient>
</defs>
</svg>
