<svg width="371" height="420" viewBox="0 0 371 420" fill="none" xmlns="http://www.w3.org/2000/svg">
<path opacity="0.07" d="M157.78 0.98394L371 234.581L157.732 227.104C156.157 227.057 154.44 224.534 154.821 222.852L176.291 129.488L283.736 182.198L175.003 112.619L154.869 2.01197C154.487 -0.137548 156.205 -0.698292 157.78 0.98394Z" fill="url(#paint0_linear_525_5303)"/>
<path opacity="0.4" d="M141.414 12.6197L354.634 246.216L141.367 238.74C139.792 238.693 138.075 236.17 138.456 234.487L159.878 141.17L267.323 193.88L158.686 124.254L138.504 13.6477C138.122 11.4982 139.84 10.9375 141.414 12.6197Z" fill="url(#paint1_linear_525_5303)"/>
<path opacity="0.3" d="M157.113 259.393L15.125 179.113L15.1727 251.589L144.612 324.767L157.16 342.944L157.113 259.393Z" fill="url(#paint2_linear_525_5303)"/>
<path d="M0 207.385V187.712L53.5793 217.992V237.665L0 207.385Z" fill="#34EE30"/>
<path opacity="0.15" d="M120.613 256.403L89.5059 238.833V245.188L120.613 262.758V256.403Z" fill="white"/>
<path opacity="0.15" d="M120.613 269.113L60.6406 235.234V241.589L120.613 275.468V269.113Z" fill="white"/>
<path opacity="0.15" d="M120.662 281.87L47.998 240.796V247.151L120.662 288.226V281.87Z" fill="white"/>
<path d="M128.295 267.337C128.295 273.319 131.921 280.188 136.358 282.711C140.795 285.234 144.421 282.431 144.421 276.449C144.421 270.468 140.795 263.599 136.358 261.076C131.873 258.552 128.295 261.356 128.295 267.337Z" fill="#34EE30"/>
<path opacity="0.3" d="M169.373 199.534L311.361 279.814L311.408 352.29L181.921 279.066L169.421 283.085L169.373 199.534Z" fill="url(#paint3_linear_525_5303)"/>
<path d="M270.043 292.571V272.898L323.622 303.179V322.851L270.043 292.571Z" fill="#34EE30"/>
<path opacity="0.15" d="M205.873 237.805L236.981 255.375V261.73L205.873 244.16V237.805Z" fill="white"/>
<path opacity="0.15" d="M205.873 250.562L262.029 282.29V288.645L205.873 256.917V250.562Z" fill="white"/>
<path opacity="0.15" d="M205.92 263.272L278.584 304.347V310.702L205.92 269.628V263.272Z" fill="white"/>
<path d="M198.24 240.095C198.24 246.076 194.614 248.88 190.176 246.357C185.739 243.833 182.113 236.964 182.113 230.983C182.113 225.002 185.739 222.198 190.176 224.721C194.614 227.245 198.24 234.16 198.24 240.095Z" fill="#34EE30"/>
<path opacity="0.2" d="M330.78 376.729L245.998 328.785V372.056L330.78 420V376.729Z" fill="url(#paint4_linear_525_5303)"/>
<path opacity="0.15" d="M267.705 351.496L293.183 365.935V371.122L267.705 356.683V351.496Z" fill="white"/>
<path opacity="0.15" d="M267.705 361.916L322 392.617V397.897L267.705 367.196V361.916Z" fill="white"/>
<path d="M263.222 353.038C263.222 356.589 261.075 358.272 258.403 356.776C255.731 355.281 253.584 351.169 253.584 347.617C253.584 344.066 255.731 342.384 258.403 343.879C261.075 345.375 263.222 349.487 263.222 353.038Z" fill="#34EE30"/>
<path opacity="0.2" d="M96.042 310.374L11.2598 262.431V305.701L96.042 353.645V310.374Z" fill="url(#paint5_linear_525_5303)"/>
<path opacity="0.15" d="M32.9688 285.141L58.4464 299.58V304.767L32.9688 290.328V285.141Z" fill="white"/>
<path opacity="0.15" d="M32.9688 295.562L87.2638 326.262V331.543L32.9688 300.842V295.562Z" fill="white"/>
<path d="M28.4833 286.684C28.4833 290.235 26.3363 291.917 23.6645 290.422C20.9927 288.926 18.8457 284.814 18.8457 281.263C18.8457 277.712 20.9927 276.029 23.6645 277.525C26.3363 279.02 28.4833 283.132 28.4833 286.684Z" fill="#34EE30"/>
<path opacity="0.2" d="M108.207 172.758L87.7871 161.216V154.487L108.207 166.029C109.877 166.964 112.311 168.88 114.362 171.824C116.604 174.954 118.179 178.926 118.179 183.225C118.179 187.992 116.938 190.702 114.601 191.45C112.406 192.151 109.782 190.936 108.207 190.048L99.8103 185.281L99.7625 185.235C99.0469 184.814 97.9018 184.394 96.9953 184.674C96.2319 184.908 95.4209 185.609 95.4209 188.272C95.4209 190.936 96.2796 192.524 96.9476 193.506C97.8064 194.721 98.9515 195.562 99.6671 195.936L99.7625 195.982L125.431 210.515V217.244L99.9057 202.805C98.1404 201.917 95.6117 200.001 93.417 197.01C91.0315 193.693 89.4093 189.534 89.4093 184.908C89.4093 180.282 91.0314 177.945 93.3693 177.291C95.564 176.683 98.0927 177.571 99.858 178.599L108.16 183.272C109.352 183.973 110.259 184.253 110.879 184.067C111.356 183.926 112.215 183.272 112.215 179.861C112.215 177.618 111.499 176.169 110.784 175.235C109.973 174.02 108.875 173.132 108.207 172.758Z" fill="white"/>
<path d="M91.5091 159.768C91.5091 165.796 87.8831 168.646 83.446 166.17C79.0088 163.646 75.3828 156.731 75.3828 150.656C75.3828 144.628 79.0088 141.777 83.446 144.254C87.8831 146.777 91.5091 153.74 91.5091 159.768Z" fill="#34EE30"/>
<path d="M135.88 219.58C135.88 225.608 132.254 228.459 127.817 225.982C123.38 223.459 119.754 216.543 119.754 210.468C119.754 204.44 123.38 201.59 127.817 204.066C132.254 206.59 135.88 213.552 135.88 219.58Z" fill="#34EE30"/>
<path opacity="0.2" d="M192.561 316.169V355.561C192.561 355.982 192.99 356.449 193.276 356.309L202.675 350.655L212.265 367.29C212.79 368.178 213.696 368.271 213.696 367.43V328.178L192.561 316.169Z" fill="url(#paint6_linear_525_5303)"/>
<defs>
<linearGradient id="paint0_linear_525_5303" x1="291.149" y1="81.1541" x2="196.543" y2="208.716" gradientUnits="userSpaceOnUse">
<stop stop-color="white"/>
<stop offset="1" stop-color="white" stop-opacity="0"/>
</linearGradient>
<linearGradient id="paint1_linear_525_5303" x1="274.806" y1="92.7945" x2="180.199" y2="220.357" gradientUnits="userSpaceOnUse">
<stop stop-color="white"/>
<stop offset="1" stop-color="white" stop-opacity="0"/>
</linearGradient>
<linearGradient id="paint2_linear_525_5303" x1="126.16" y1="230.349" x2="54.0166" y2="288.023" gradientUnits="userSpaceOnUse">
<stop stop-color="white"/>
<stop offset="1" stop-color="white" stop-opacity="0"/>
</linearGradient>
<linearGradient id="paint3_linear_525_5303" x1="230.366" y1="201.869" x2="247.984" y2="347.766" gradientUnits="userSpaceOnUse">
<stop stop-color="white"/>
<stop offset="1" stop-color="white" stop-opacity="0"/>
</linearGradient>
<linearGradient id="paint4_linear_525_5303" x1="297.947" y1="358.17" x2="279.413" y2="390.955" gradientUnits="userSpaceOnUse">
<stop stop-color="white"/>
<stop offset="1" stop-color="white" stop-opacity="0"/>
</linearGradient>
<linearGradient id="paint5_linear_525_5303" x1="63.2081" y1="291.815" x2="44.6744" y2="324.6" gradientUnits="userSpaceOnUse">
<stop stop-color="white"/>
<stop offset="1" stop-color="white" stop-opacity="0"/>
</linearGradient>
<linearGradient id="paint6_linear_525_5303" x1="212.268" y1="336.305" x2="188.501" y2="351.673" gradientUnits="userSpaceOnUse">
<stop stop-color="white"/>
<stop offset="1" stop-color="white" stop-opacity="0"/>
</linearGradient>
</defs>
</svg>
