<svg width="503" height="210" viewBox="0 0 503 210" fill="none" xmlns="http://www.w3.org/2000/svg">
<path d="M486.366 201.105V205.803H487.753C488.463 205.803 488.957 205.453 489.237 204.753C489.39 204.369 489.467 203.911 489.467 203.381C489.467 202.648 489.351 202.087 489.12 201.696C488.892 201.302 488.437 201.105 487.753 201.105H486.366ZM488.007 199.855C488.453 199.862 488.824 199.914 489.12 200.012C489.625 200.178 490.033 200.482 490.346 200.925C490.596 201.283 490.767 201.67 490.858 202.087C490.95 202.504 490.995 202.901 490.995 203.278C490.995 204.235 490.803 205.046 490.419 205.71C489.898 206.605 489.094 207.053 488.007 207.053H484.906V199.855H488.007ZM494.12 202.736C493.798 202.736 493.547 202.837 493.368 203.039C493.192 203.241 493.082 203.514 493.036 203.859H495.199C495.176 203.492 495.064 203.213 494.862 203.024C494.664 202.832 494.416 202.736 494.12 202.736ZM494.12 201.589C494.563 201.589 494.962 201.672 495.316 201.838C495.671 202.004 495.964 202.266 496.195 202.624C496.404 202.94 496.539 203.306 496.601 203.723C496.636 203.967 496.651 204.318 496.645 204.777H493.002C493.021 205.311 493.189 205.686 493.505 205.9C493.697 206.034 493.928 206.101 494.198 206.101C494.485 206.101 494.717 206.019 494.896 205.856C494.994 205.769 495.08 205.646 495.155 205.49H496.576C496.54 205.806 496.376 206.127 496.083 206.452C495.627 206.97 494.989 207.229 494.169 207.229C493.492 207.229 492.895 207.01 492.377 206.574C491.859 206.138 491.601 205.428 491.601 204.445C491.601 203.524 491.833 202.818 492.299 202.326C492.768 201.835 493.375 201.589 494.12 201.589ZM500.766 203.64C500.74 203.441 500.673 203.262 500.565 203.103C500.409 202.888 500.167 202.78 499.838 202.78C499.369 202.78 499.049 203.013 498.876 203.479C498.785 203.726 498.739 204.055 498.739 204.465C498.739 204.855 498.785 205.17 498.876 205.407C499.042 205.85 499.354 206.071 499.813 206.071C500.139 206.071 500.37 205.983 500.507 205.808C500.644 205.632 500.727 205.404 500.756 205.124H502.177C502.144 205.547 501.991 205.948 501.718 206.325C501.282 206.934 500.635 207.238 499.779 207.238C498.923 207.238 498.293 206.984 497.89 206.477C497.486 205.969 497.284 205.31 497.284 204.499C497.284 203.584 497.507 202.873 497.953 202.365C498.399 201.857 499.014 201.604 499.799 201.604C500.466 201.604 501.011 201.753 501.435 202.053C501.861 202.352 502.113 202.881 502.191 203.64H500.766Z" fill="#CBD5E0"/>
<path d="M442.345 199.855H443.922L446.788 204.88V199.855H448.189V207.053H446.686L443.746 201.94V207.053H442.345V199.855ZM451.871 206.071C452.278 206.071 452.59 205.926 452.809 205.637C453.027 205.347 453.136 204.935 453.136 204.401C453.136 203.868 453.027 203.457 452.809 203.171C452.59 202.881 452.278 202.736 451.871 202.736C451.464 202.736 451.15 202.881 450.929 203.171C450.711 203.457 450.602 203.868 450.602 204.401C450.602 204.935 450.711 205.347 450.929 205.637C451.15 205.926 451.464 206.071 451.871 206.071ZM454.596 204.401C454.596 205.183 454.371 205.852 453.922 206.408C453.473 206.962 452.791 207.238 451.876 207.238C450.961 207.238 450.279 206.962 449.83 206.408C449.381 205.852 449.156 205.183 449.156 204.401C449.156 203.633 449.381 202.967 449.83 202.404C450.279 201.841 450.961 201.56 451.876 201.56C452.791 201.56 453.473 201.841 453.922 202.404C454.371 202.967 454.596 203.633 454.596 204.401ZM458.878 201.73H460.372L458.453 207.053H456.983L455.074 201.73H456.637L457.745 205.656L458.878 201.73Z" fill="#CBD5E0"/>
<path d="M404.135 205.979C404.73 205.979 405.202 205.759 405.551 205.319C405.902 204.88 406.078 204.255 406.078 203.444C406.078 202.637 405.902 202.014 405.551 201.574C405.202 201.132 404.73 200.91 404.135 200.91C403.539 200.91 403.064 201.13 402.709 201.569C402.354 202.009 402.177 202.634 402.177 203.444C402.177 204.255 402.354 204.88 402.709 205.319C403.064 205.759 403.539 205.979 404.135 205.979ZM407.582 203.444C407.582 204.737 407.219 205.726 406.493 206.413C405.95 206.973 405.163 207.253 404.135 207.253C403.106 207.253 402.32 206.973 401.776 206.413C401.047 205.726 400.683 204.737 400.683 203.444C400.683 202.126 401.047 201.136 401.776 200.476C402.32 199.916 403.106 199.636 404.135 199.636C405.163 199.636 405.95 199.916 406.493 200.476C407.219 201.136 407.582 202.126 407.582 203.444ZM411.801 203.64C411.775 203.441 411.708 203.262 411.601 203.103C411.444 202.888 411.202 202.78 410.873 202.78C410.404 202.78 410.084 203.013 409.911 203.479C409.82 203.726 409.774 204.055 409.774 204.465C409.774 204.855 409.82 205.17 409.911 205.407C410.077 205.85 410.39 206.071 410.849 206.071C411.174 206.071 411.405 205.983 411.542 205.808C411.679 205.632 411.762 205.404 411.791 205.124H413.212C413.179 205.547 413.026 205.948 412.753 206.325C412.317 206.934 411.671 207.238 410.814 207.238C409.958 207.238 409.328 206.984 408.925 206.477C408.521 205.969 408.319 205.31 408.319 204.499C408.319 203.584 408.542 202.873 408.988 202.365C409.434 201.857 410.049 201.604 410.834 201.604C411.501 201.604 412.047 201.753 412.47 202.053C412.896 202.352 413.148 202.881 413.227 203.64H411.801ZM413.642 202.771V201.779H414.384V200.295H415.761V201.779H416.625V202.771H415.761V205.583C415.761 205.801 415.788 205.938 415.844 205.993C415.899 206.045 416.068 206.071 416.352 206.071C416.394 206.071 416.438 206.071 416.483 206.071C416.532 206.068 416.579 206.065 416.625 206.062V207.102L415.966 207.126C415.308 207.149 414.859 207.035 414.618 206.784C414.462 206.625 414.384 206.379 414.384 206.047V202.771H413.642Z" fill="#CBD5E0"/>
<path d="M359.782 204.831C359.828 205.16 359.917 205.406 360.051 205.568C360.295 205.865 360.713 206.013 361.306 206.013C361.66 206.013 361.949 205.974 362.17 205.896C362.59 205.746 362.8 205.467 362.8 205.061C362.8 204.823 362.696 204.639 362.487 204.509C362.279 204.382 361.952 204.27 361.506 204.172L360.744 204.001C359.995 203.832 359.478 203.648 359.191 203.449C358.706 203.117 358.464 202.598 358.464 201.892C358.464 201.247 358.698 200.712 359.167 200.285C359.636 199.859 360.324 199.646 361.232 199.646C361.991 199.646 362.637 199.847 363.171 200.251C363.708 200.651 363.99 201.234 364.016 201.999H362.57C362.544 201.566 362.355 201.258 362.004 201.076C361.77 200.956 361.478 200.896 361.13 200.896C360.743 200.896 360.433 200.974 360.202 201.13C359.971 201.286 359.855 201.504 359.855 201.784C359.855 202.041 359.969 202.233 360.197 202.36C360.344 202.445 360.656 202.544 361.135 202.658L362.375 202.956C362.919 203.086 363.329 203.26 363.605 203.479C364.035 203.817 364.25 204.307 364.25 204.948C364.25 205.606 363.998 206.153 363.493 206.589C362.992 207.022 362.282 207.238 361.364 207.238C360.427 207.238 359.689 207.025 359.152 206.599C358.615 206.169 358.347 205.58 358.347 204.831H359.782ZM367.351 202.736C367.028 202.736 366.778 202.837 366.599 203.039C366.423 203.241 366.312 203.514 366.267 203.859H368.43C368.407 203.492 368.295 203.213 368.093 203.024C367.894 202.832 367.647 202.736 367.351 202.736ZM367.351 201.589C367.793 201.589 368.192 201.672 368.547 201.838C368.902 202.004 369.195 202.266 369.426 202.624C369.634 202.94 369.769 203.306 369.831 203.723C369.867 203.967 369.882 204.318 369.875 204.777H366.232C366.252 205.311 366.42 205.686 366.735 205.9C366.927 206.034 367.159 206.101 367.429 206.101C367.715 206.101 367.948 206.019 368.127 205.856C368.225 205.769 368.311 205.646 368.386 205.49H369.807C369.771 205.806 369.606 206.127 369.313 206.452C368.858 206.97 368.22 207.229 367.399 207.229C366.722 207.229 366.125 207.01 365.607 206.574C365.09 206.138 364.831 205.428 364.831 204.445C364.831 203.524 365.064 202.818 365.529 202.326C365.998 201.835 366.605 201.589 367.351 201.589ZM374.484 204.392C374.484 203.981 374.39 203.618 374.201 203.303C374.016 202.987 373.713 202.829 373.293 202.829C372.788 202.829 372.442 203.068 372.253 203.547C372.155 203.801 372.106 204.123 372.106 204.514C372.106 205.132 372.271 205.567 372.6 205.817C372.795 205.964 373.026 206.037 373.293 206.037C373.68 206.037 373.975 205.887 374.177 205.588C374.382 205.288 374.484 204.89 374.484 204.392ZM373.693 201.613C374.315 201.613 374.841 201.843 375.271 202.302C375.703 202.761 375.92 203.435 375.92 204.323C375.92 205.261 375.708 205.975 375.285 206.467C374.865 206.958 374.323 207.204 373.659 207.204C373.236 207.204 372.884 207.098 372.604 206.887C372.451 206.77 372.302 206.599 372.155 206.374V209.147H370.778V201.73H372.111V202.517C372.261 202.285 372.421 202.103 372.59 201.97C372.899 201.732 373.267 201.613 373.693 201.613Z" fill="#CBD5E0"/>
<path d="M317.843 204.333H319.669L318.771 201.501L317.843 204.333ZM317.936 199.855H319.635L322.184 207.053H320.553L320.089 205.573H317.438L316.939 207.053H315.367L317.936 199.855ZM324.376 201.73V204.938C324.376 205.241 324.412 205.469 324.483 205.622C324.61 205.892 324.859 206.027 325.23 206.027C325.706 206.027 326.031 205.835 326.207 205.451C326.298 205.243 326.344 204.968 326.344 204.626V201.73H327.755V207.053H326.402V206.301C326.389 206.317 326.357 206.366 326.305 206.447C326.253 206.529 326.191 206.6 326.119 206.662C325.901 206.857 325.689 206.991 325.484 207.062C325.283 207.134 325.045 207.17 324.771 207.17C323.984 207.17 323.453 206.887 323.18 206.32C323.027 206.008 322.95 205.547 322.95 204.938V201.73H324.376ZM331.388 205.91C331.713 205.91 331.988 205.788 332.213 205.544C332.438 205.297 332.55 204.904 332.55 204.367C332.55 203.863 332.442 203.479 332.228 203.215C332.016 202.951 331.731 202.819 331.373 202.819C330.885 202.819 330.548 203.049 330.362 203.508C330.265 203.752 330.216 204.053 330.216 204.411C330.216 204.72 330.268 204.995 330.372 205.236C330.561 205.686 330.899 205.91 331.388 205.91ZM331.041 201.604C331.308 201.604 331.541 201.644 331.739 201.726C332.078 201.866 332.351 202.123 332.56 202.497V201.73H333.912V206.779C333.912 207.466 333.797 207.984 333.565 208.332C333.168 208.931 332.407 209.23 331.28 209.23C330.6 209.23 330.045 209.097 329.615 208.83C329.186 208.563 328.948 208.164 328.902 207.634H330.416C330.455 207.797 330.519 207.914 330.606 207.985C330.756 208.112 331.008 208.176 331.363 208.176C331.865 208.176 332.2 208.008 332.369 207.673C332.48 207.458 332.535 207.097 332.535 206.589V206.247C332.402 206.475 332.258 206.646 332.105 206.76C331.829 206.971 331.469 207.077 331.026 207.077C330.343 207.077 329.796 206.838 329.386 206.359C328.979 205.878 328.775 205.227 328.775 204.406C328.775 203.615 328.972 202.951 329.366 202.414C329.76 201.874 330.318 201.604 331.041 201.604Z" fill="#CBD5E0"/>
<path d="M276.736 204.323V204.489C276.749 205.046 276.81 205.438 276.917 205.666C277.028 205.891 277.262 206.003 277.62 206.003C277.975 206.003 278.209 205.879 278.323 205.632C278.392 205.485 278.426 205.238 278.426 204.89V199.855H279.93V204.865C279.93 205.477 279.824 205.962 279.612 206.32C279.254 206.926 278.608 207.229 277.674 207.229C276.74 207.229 276.113 206.984 275.794 206.496C275.475 206.005 275.315 205.336 275.315 204.489V204.323H276.736ZM282.698 201.73V204.938C282.698 205.241 282.734 205.469 282.806 205.622C282.933 205.892 283.182 206.027 283.553 206.027C284.028 206.027 284.354 205.835 284.529 205.451C284.62 205.243 284.666 204.968 284.666 204.626V201.73H286.077V207.053H284.725V206.301C284.712 206.317 284.679 206.366 284.627 206.447C284.575 206.529 284.513 206.6 284.441 206.662C284.223 206.857 284.012 206.991 283.807 207.062C283.605 207.134 283.367 207.17 283.094 207.17C282.306 207.17 281.775 206.887 281.502 206.32C281.349 206.008 281.272 205.547 281.272 204.938V201.73H282.698ZM288.846 207.053H287.454V199.855H288.846V207.053Z" fill="#CBD5E0"/>
<path d="M234.758 204.323V204.489C234.771 205.046 234.831 205.438 234.938 205.666C235.049 205.891 235.284 206.003 235.642 206.003C235.996 206.003 236.231 205.879 236.345 205.632C236.413 205.485 236.447 205.238 236.447 204.89V199.855H237.951V204.865C237.951 205.477 237.845 205.962 237.634 206.32C237.276 206.926 236.63 207.229 235.695 207.229C234.761 207.229 234.134 206.984 233.815 206.496C233.496 206.005 233.337 205.336 233.337 204.489V204.323H234.758ZM240.72 201.73V204.938C240.72 205.241 240.756 205.469 240.827 205.622C240.954 205.892 241.203 206.027 241.574 206.027C242.049 206.027 242.375 205.835 242.551 205.451C242.642 205.243 242.688 204.968 242.688 204.626V201.73H244.099V207.053H242.746V206.301C242.733 206.317 242.701 206.366 242.648 206.447C242.596 206.529 242.535 206.6 242.463 206.662C242.245 206.857 242.033 206.991 241.828 207.062C241.626 207.134 241.389 207.17 241.115 207.17C240.327 207.17 239.797 206.887 239.523 206.32C239.37 206.008 239.294 205.547 239.294 204.938V201.73H240.72ZM248.396 201.604C248.946 201.604 249.395 201.748 249.743 202.038C250.095 202.325 250.271 202.801 250.271 203.469V207.053H248.845V203.815C248.845 203.535 248.807 203.321 248.732 203.171C248.596 202.897 248.335 202.761 247.951 202.761C247.479 202.761 247.155 202.961 246.979 203.361C246.888 203.573 246.843 203.843 246.843 204.172V207.053H245.456V201.74H246.799V202.517C246.978 202.243 247.147 202.046 247.307 201.926C247.593 201.711 247.956 201.604 248.396 201.604Z" fill="#CBD5E0"/>
<path d="M195.831 199.855H197.994V207.053H196.593V202.185C196.593 202.045 196.594 201.849 196.598 201.599C196.601 201.345 196.603 201.149 196.603 201.013L195.24 207.053H193.78L192.428 201.013C192.428 201.149 192.429 201.345 192.433 201.599C192.436 201.849 192.438 202.045 192.438 202.185V207.053H191.036V199.855H193.224L194.532 205.515L195.831 199.855ZM202.213 204.465C202.125 204.52 202.035 204.566 201.944 204.602C201.856 204.634 201.734 204.665 201.578 204.694L201.266 204.753C200.973 204.805 200.763 204.868 200.636 204.943C200.421 205.07 200.313 205.267 200.313 205.534C200.313 205.772 200.379 205.944 200.509 206.052C200.642 206.156 200.803 206.208 200.992 206.208C201.292 206.208 201.567 206.12 201.817 205.944C202.071 205.769 202.203 205.448 202.213 204.982V204.465ZM201.368 203.815C201.625 203.783 201.809 203.742 201.92 203.693C202.118 203.609 202.218 203.477 202.218 203.298C202.218 203.08 202.141 202.93 201.988 202.849C201.839 202.764 201.617 202.722 201.324 202.722C200.995 202.722 200.763 202.803 200.626 202.966C200.528 203.086 200.463 203.249 200.431 203.454H199.088C199.117 202.989 199.247 202.606 199.479 202.307C199.846 201.838 200.478 201.604 201.373 201.604C201.956 201.604 202.473 201.719 202.926 201.95C203.378 202.181 203.604 202.618 203.604 203.259V205.7C203.604 205.869 203.608 206.075 203.614 206.315C203.624 206.498 203.652 206.621 203.697 206.687C203.743 206.752 203.811 206.805 203.902 206.848V207.053H202.389C202.346 206.945 202.317 206.844 202.301 206.75C202.285 206.656 202.271 206.548 202.262 206.428C202.07 206.636 201.848 206.813 201.598 206.96C201.298 207.132 200.96 207.219 200.582 207.219C200.1 207.219 199.701 207.082 199.386 206.809C199.073 206.532 198.917 206.141 198.917 205.637C198.917 204.982 199.169 204.509 199.674 204.216C199.951 204.056 200.357 203.942 200.895 203.874L201.368 203.815ZM205.06 208.073L205.235 208.083C205.372 208.09 205.502 208.085 205.626 208.068C205.75 208.052 205.854 208.015 205.938 207.956C206.02 207.901 206.095 207.785 206.163 207.609C206.235 207.434 206.264 207.326 206.251 207.287L204.298 201.73H205.846L207.008 205.656L208.106 201.73H209.586L207.76 206.965C207.408 207.974 207.13 208.599 206.925 208.84C206.72 209.084 206.31 209.206 205.694 209.206C205.571 209.206 205.471 209.204 205.396 209.201C205.322 209.201 205.209 209.196 205.06 209.187V208.073Z" fill="#CBD5E0"/>
<path d="M151.331 204.333H153.157L152.259 201.501L151.331 204.333ZM151.424 199.855H153.123L155.672 207.053H154.041L153.577 205.573H150.926L150.428 207.053H148.855L151.424 199.855ZM160.145 204.392C160.145 203.981 160.05 203.618 159.861 203.303C159.676 202.987 159.373 202.829 158.953 202.829C158.449 202.829 158.102 203.068 157.913 203.547C157.815 203.801 157.767 204.123 157.767 204.514C157.767 205.132 157.931 205.567 158.26 205.817C158.455 205.964 158.686 206.037 158.953 206.037C159.34 206.037 159.635 205.887 159.837 205.588C160.042 205.288 160.145 204.89 160.145 204.392ZM159.354 201.613C159.975 201.613 160.501 201.843 160.931 202.302C161.364 202.761 161.58 203.435 161.58 204.323C161.58 205.261 161.368 205.975 160.945 206.467C160.525 206.958 159.983 207.204 159.319 207.204C158.896 207.204 158.545 207.098 158.265 206.887C158.112 206.77 157.962 206.599 157.815 206.374V209.147H156.438V201.73H157.771V202.517C157.921 202.285 158.081 202.103 158.25 201.97C158.559 201.732 158.927 201.613 159.354 201.613ZM165.481 201.604C165.507 201.604 165.529 201.605 165.545 201.608C165.564 201.608 165.605 201.61 165.667 201.613V203.039C165.579 203.029 165.501 203.023 165.433 203.02C165.364 203.016 165.309 203.015 165.267 203.015C164.707 203.015 164.331 203.197 164.139 203.562C164.031 203.767 163.978 204.082 163.978 204.509V207.053H162.576V201.73H163.904V202.658C164.119 202.303 164.306 202.061 164.466 201.931C164.726 201.713 165.065 201.604 165.481 201.604Z" fill="#CBD5E0"/>
<path d="M112.155 199.855H114.318V207.053H112.917V202.185C112.917 202.045 112.919 201.849 112.922 201.599C112.925 201.345 112.927 201.149 112.927 201.013L111.564 207.053H110.104L108.752 201.013C108.752 201.149 108.754 201.345 108.757 201.599C108.76 201.849 108.762 202.045 108.762 202.185V207.053H107.36V199.855H109.548L110.856 205.515L112.155 199.855ZM118.537 204.465C118.449 204.52 118.36 204.566 118.269 204.602C118.181 204.634 118.059 204.665 117.902 204.694L117.59 204.753C117.297 204.805 117.087 204.868 116.96 204.943C116.745 205.07 116.638 205.267 116.638 205.534C116.638 205.772 116.703 205.944 116.833 206.052C116.966 206.156 117.128 206.208 117.316 206.208C117.616 206.208 117.891 206.12 118.142 205.944C118.396 205.769 118.527 205.448 118.537 204.982V204.465ZM117.692 203.815C117.95 203.783 118.133 203.742 118.244 203.693C118.443 203.609 118.542 203.477 118.542 203.298C118.542 203.08 118.465 202.93 118.312 202.849C118.163 202.764 117.941 202.722 117.648 202.722C117.32 202.722 117.087 202.803 116.95 202.966C116.853 203.086 116.787 203.249 116.755 203.454H115.412C115.441 202.989 115.572 202.606 115.803 202.307C116.171 201.838 116.802 201.604 117.697 201.604C118.28 201.604 118.798 201.719 119.25 201.95C119.702 202.181 119.929 202.618 119.929 203.259V205.7C119.929 205.869 119.932 206.075 119.938 206.315C119.948 206.498 119.976 206.621 120.021 206.687C120.067 206.752 120.135 206.805 120.227 206.848V207.053H118.713C118.671 206.945 118.641 206.844 118.625 206.75C118.609 206.656 118.596 206.548 118.586 206.428C118.394 206.636 118.173 206.813 117.922 206.96C117.622 207.132 117.284 207.219 116.906 207.219C116.424 207.219 116.026 207.082 115.71 206.809C115.397 206.532 115.241 206.141 115.241 205.637C115.241 204.982 115.493 204.509 115.998 204.216C116.275 204.056 116.682 203.942 117.219 203.874L117.692 203.815ZM124.06 201.604C124.086 201.604 124.107 201.605 124.123 201.608C124.143 201.608 124.183 201.61 124.245 201.613V203.039C124.157 203.029 124.079 203.023 124.011 203.02C123.942 203.016 123.887 203.015 123.845 203.015C123.285 203.015 122.909 203.197 122.717 203.562C122.609 203.767 122.556 204.082 122.556 204.509V207.053H121.154V201.73H122.482V202.658C122.697 202.303 122.884 202.061 123.044 201.931C123.304 201.713 123.643 201.604 124.06 201.604Z" fill="#CBD5E0"/>
<path d="M65.4062 199.865H70.5088V201.13H66.9004V202.785H70.0596V204.035H66.9004V207.053H65.4062V199.865ZM73.5068 202.736C73.1846 202.736 72.9339 202.837 72.7549 203.039C72.5791 203.241 72.4684 203.514 72.4229 203.859H74.5859C74.5632 203.492 74.4508 203.213 74.249 203.024C74.0505 202.832 73.8031 202.736 73.5068 202.736ZM73.5068 201.589C73.9495 201.589 74.3483 201.672 74.7031 201.838C75.0579 202.004 75.3509 202.266 75.582 202.624C75.7904 202.94 75.9255 203.306 75.9873 203.723C76.0231 203.967 76.0378 204.318 76.0312 204.777H72.3887C72.4082 205.311 72.5758 205.686 72.8916 205.9C73.0837 206.034 73.3148 206.101 73.585 206.101C73.8714 206.101 74.1042 206.019 74.2832 205.856C74.3809 205.769 74.4671 205.646 74.542 205.49H75.9629C75.9271 205.806 75.7627 206.127 75.4697 206.452C75.014 206.97 74.376 207.229 73.5557 207.229C72.8786 207.229 72.2812 207.01 71.7637 206.574C71.2461 206.138 70.9873 205.428 70.9873 204.445C70.9873 203.524 71.2201 202.818 71.6855 202.326C72.1543 201.835 72.7614 201.589 73.5068 201.589ZM79.8496 201.613C80.5495 201.613 81.0964 201.866 81.4902 202.37C81.8874 202.875 82.0859 203.526 82.0859 204.323C82.0859 205.15 81.8906 205.835 81.5 206.379C81.1094 206.923 80.5641 207.194 79.8643 207.194C79.4248 207.194 79.0716 207.106 78.8047 206.931C78.6452 206.826 78.4727 206.644 78.2871 206.384V207.053H76.9248V199.865H78.3115V202.424C78.4873 202.176 78.681 201.988 78.8926 201.857C79.1432 201.695 79.4622 201.613 79.8496 201.613ZM79.4932 206.047C79.8512 206.047 80.1296 205.902 80.3281 205.612C80.5267 205.323 80.626 204.942 80.626 204.47C80.626 204.092 80.5771 203.78 80.4795 203.532C80.2939 203.063 79.9521 202.829 79.4541 202.829C78.9495 202.829 78.6029 203.059 78.4141 203.518C78.3164 203.762 78.2676 204.077 78.2676 204.465C78.2676 204.921 78.3685 205.298 78.5703 205.598C78.7721 205.897 79.0798 206.047 79.4932 206.047Z" fill="#CBD5E0"/>
<path d="M24.5879 204.323V204.489C24.6009 205.046 24.6611 205.438 24.7686 205.666C24.8792 205.891 25.1136 206.003 25.4717 206.003C25.8265 206.003 26.0609 205.879 26.1748 205.632C26.2432 205.485 26.2773 205.238 26.2773 204.89V199.855H27.7812V204.865C27.7812 205.477 27.6755 205.962 27.4639 206.32C27.1058 206.926 26.4596 207.229 25.5254 207.229C24.5911 207.229 23.9645 206.984 23.6455 206.496C23.3265 206.005 23.167 205.336 23.167 204.489V204.323H24.5879ZM32.0977 204.465C32.0098 204.52 31.9202 204.566 31.8291 204.602C31.7412 204.634 31.6191 204.665 31.4629 204.694L31.1504 204.753C30.8574 204.805 30.6475 204.868 30.5205 204.943C30.3057 205.07 30.1982 205.267 30.1982 205.534C30.1982 205.772 30.2633 205.944 30.3936 206.052C30.527 206.156 30.6882 206.208 30.877 206.208C31.1764 206.208 31.4515 206.12 31.7021 205.944C31.9561 205.769 32.0879 205.448 32.0977 204.982V204.465ZM31.2529 203.815C31.5101 203.783 31.694 203.742 31.8047 203.693C32.0033 203.609 32.1025 203.477 32.1025 203.298C32.1025 203.08 32.026 202.93 31.873 202.849C31.7233 202.764 31.502 202.722 31.209 202.722C30.8802 202.722 30.6475 202.803 30.5107 202.966C30.4131 203.086 30.348 203.249 30.3154 203.454H28.9727C29.002 202.989 29.1322 202.606 29.3633 202.307C29.7311 201.838 30.3626 201.604 31.2578 201.604C31.8405 201.604 32.3581 201.719 32.8105 201.95C33.263 202.181 33.4893 202.618 33.4893 203.259V205.7C33.4893 205.869 33.4925 206.075 33.499 206.315C33.5088 206.498 33.5365 206.621 33.582 206.687C33.6276 206.752 33.696 206.805 33.7871 206.848V207.053H32.2734C32.2311 206.945 32.2018 206.844 32.1855 206.75C32.1693 206.656 32.1562 206.548 32.1465 206.428C31.9544 206.636 31.7331 206.813 31.4824 206.96C31.1829 207.132 30.8444 207.219 30.4668 207.219C29.985 207.219 29.5863 207.082 29.2705 206.809C28.958 206.532 28.8018 206.141 28.8018 205.637C28.8018 204.982 29.054 204.509 29.5586 204.216C29.8353 204.056 30.2422 203.942 30.7793 203.874L31.2529 203.815ZM37.6787 201.604C38.2288 201.604 38.6781 201.748 39.0264 202.038C39.3779 202.325 39.5537 202.801 39.5537 203.469V207.053H38.1279V203.815C38.1279 203.535 38.0905 203.321 38.0156 203.171C37.8789 202.897 37.6185 202.761 37.2344 202.761C36.7624 202.761 36.4385 202.961 36.2627 203.361C36.1715 203.573 36.126 203.843 36.126 204.172V207.053H34.7393V201.74H36.082V202.517C36.2611 202.243 36.4303 202.046 36.5898 201.926C36.8763 201.711 37.2393 201.604 37.6787 201.604Z" fill="#CBD5E0"/>
<path d="M7.88965 181.644C7.88965 182.457 7.95638 183.081 8.08984 183.514C8.22331 183.943 8.49674 184.158 8.91016 184.158C9.32357 184.158 9.59375 183.943 9.7207 183.514C9.85091 183.081 9.91602 182.457 9.91602 181.644C9.91602 180.791 9.85091 180.159 9.7207 179.749C9.59375 179.339 9.32357 179.134 8.91016 179.134C8.49674 179.134 8.22331 179.339 8.08984 179.749C7.95638 180.159 7.88965 180.791 7.88965 181.644ZM8.91016 177.986C9.81185 177.986 10.4434 178.304 10.8047 178.938C11.1693 179.573 11.3516 180.475 11.3516 181.644C11.3516 182.812 11.1693 183.712 10.8047 184.344C10.4434 184.975 9.81185 185.291 8.91016 185.291C8.00846 185.291 7.37533 184.975 7.01074 184.344C6.64941 183.712 6.46875 182.812 6.46875 181.644C6.46875 180.475 6.64941 179.573 7.01074 178.938C7.37533 178.304 8.00846 177.986 8.91016 177.986Z" fill="#CBD5E0"/>
<path d="M0.693359 145.408V144.461C1.13281 144.441 1.44043 144.412 1.61621 144.373C1.89616 144.311 2.12402 144.188 2.2998 144.002C2.42025 143.875 2.51139 143.706 2.57324 143.494C2.60905 143.367 2.62695 143.273 2.62695 143.211H3.78418V150.291H2.3584V145.408H0.693359ZM7.2998 146.819C7.2998 147.633 7.36654 148.257 7.5 148.689C7.63346 149.119 7.9069 149.334 8.32031 149.334C8.73372 149.334 9.00391 149.119 9.13086 148.689C9.26107 148.257 9.32617 147.633 9.32617 146.819C9.32617 145.966 9.26107 145.335 9.13086 144.925C9.00391 144.515 8.73372 144.31 8.32031 144.31C7.9069 144.31 7.63346 144.515 7.5 144.925C7.36654 145.335 7.2998 145.966 7.2998 146.819ZM8.32031 143.162C9.22201 143.162 9.85352 143.479 10.2148 144.114C10.5794 144.749 10.7617 145.651 10.7617 146.819C10.7617 147.988 10.5794 148.888 10.2148 149.52C9.85352 150.151 9.22201 150.467 8.32031 150.467C7.41862 150.467 6.78548 150.151 6.4209 149.52C6.05957 148.888 5.87891 147.988 5.87891 146.819C5.87891 145.651 6.05957 144.749 6.4209 144.114C6.78548 143.479 7.41862 143.162 8.32031 143.162ZM12.8662 146.819C12.8662 147.633 12.9329 148.257 13.0664 148.689C13.1999 149.119 13.4733 149.334 13.8867 149.334C14.3001 149.334 14.5703 149.119 14.6973 148.689C14.8275 148.257 14.8926 147.633 14.8926 146.819C14.8926 145.966 14.8275 145.335 14.6973 144.925C14.5703 144.515 14.3001 144.31 13.8867 144.31C13.4733 144.31 13.1999 144.515 13.0664 144.925C12.9329 145.335 12.8662 145.966 12.8662 146.819ZM13.8867 143.162C14.7884 143.162 15.4199 143.479 15.7812 144.114C16.1458 144.749 16.3281 145.651 16.3281 146.819C16.3281 147.988 16.1458 148.888 15.7812 149.52C15.4199 150.151 14.7884 150.467 13.8867 150.467C12.985 150.467 12.3519 150.151 11.9873 149.52C11.626 148.888 11.4453 147.988 11.4453 146.819C11.4453 145.651 11.626 144.749 11.9873 144.114C12.3519 143.479 12.985 143.162 13.8867 143.162Z" fill="#CBD5E0"/>
<path d="M0.3125 115.469C0.325521 114.961 0.43457 114.497 0.639648 114.077C0.838216 113.605 1.30697 113.105 2.0459 112.578C2.68717 112.119 3.10221 111.79 3.29102 111.592C3.58073 111.283 3.72559 110.944 3.72559 110.576C3.72559 110.277 3.64258 110.028 3.47656 109.829C3.31055 109.631 3.07292 109.531 2.76367 109.531C2.34049 109.531 2.05241 109.689 1.89941 110.005C1.81152 110.187 1.75944 110.477 1.74316 110.874H0.390625C0.413411 110.272 0.522461 109.785 0.717773 109.414C1.08887 108.708 1.74805 108.354 2.69531 108.354C3.44401 108.354 4.03971 108.563 4.48242 108.979C4.92513 109.393 5.14648 109.941 5.14648 110.625C5.14648 111.149 4.99023 111.615 4.67773 112.021C4.47266 112.292 4.13574 112.593 3.66699 112.925L3.11035 113.32C2.76204 113.568 2.52279 113.747 2.39258 113.857C2.26562 113.968 2.1582 114.097 2.07031 114.243H5.16113V115.469H0.3125ZM7.2998 111.997C7.2998 112.811 7.36654 113.434 7.5 113.867C7.63346 114.297 7.9069 114.512 8.32031 114.512C8.73372 114.512 9.00391 114.297 9.13086 113.867C9.26107 113.434 9.32617 112.811 9.32617 111.997C9.32617 111.144 9.26107 110.513 9.13086 110.103C9.00391 109.692 8.73372 109.487 8.32031 109.487C7.9069 109.487 7.63346 109.692 7.5 110.103C7.36654 110.513 7.2998 111.144 7.2998 111.997ZM8.32031 108.34C9.22201 108.34 9.85352 108.657 10.2148 109.292C10.5794 109.927 10.7617 110.828 10.7617 111.997C10.7617 113.166 10.5794 114.066 10.2148 114.697C9.85352 115.329 9.22201 115.645 8.32031 115.645C7.41862 115.645 6.78548 115.329 6.4209 114.697C6.05957 114.066 5.87891 113.166 5.87891 111.997C5.87891 110.828 6.05957 109.927 6.4209 109.292C6.78548 108.657 7.41862 108.34 8.32031 108.34ZM12.8662 111.997C12.8662 112.811 12.9329 113.434 13.0664 113.867C13.1999 114.297 13.4733 114.512 13.8867 114.512C14.3001 114.512 14.5703 114.297 14.6973 113.867C14.8275 113.434 14.8926 112.811 14.8926 111.997C14.8926 111.144 14.8275 110.513 14.6973 110.103C14.5703 109.692 14.3001 109.487 13.8867 109.487C13.4733 109.487 13.1999 109.692 13.0664 110.103C12.9329 110.513 12.8662 111.144 12.8662 111.997ZM13.8867 108.34C14.7884 108.34 15.4199 108.657 15.7812 109.292C16.1458 109.927 16.3281 110.828 16.3281 111.997C16.3281 113.166 16.1458 114.066 15.7812 114.697C15.4199 115.329 14.7884 115.645 13.8867 115.645C12.985 115.645 12.3519 115.329 11.9873 114.697C11.626 114.066 11.4453 113.166 11.4453 111.997C11.4453 110.828 11.626 109.927 11.9873 109.292C12.3519 108.657 12.985 108.34 13.8867 108.34Z" fill="#CBD5E0"/>
<path d="M1.63086 78.4736C1.63086 78.7568 1.67643 78.9912 1.76758 79.1768C1.93685 79.5186 2.24447 79.6895 2.69043 79.6895C2.96387 79.6895 3.2015 79.5967 3.40332 79.4111C3.6084 79.2223 3.71094 78.9521 3.71094 78.6006C3.71094 78.1351 3.52214 77.8242 3.14453 77.668C2.92969 77.5801 2.59115 77.5361 2.12891 77.5361V76.54C2.58138 76.5335 2.89714 76.4896 3.07617 76.4082C3.38542 76.2715 3.54004 75.9948 3.54004 75.5781C3.54004 75.3079 3.46029 75.0882 3.30078 74.9189C3.14453 74.7497 2.92318 74.665 2.63672 74.665C2.30794 74.665 2.06543 74.7692 1.90918 74.9775C1.75618 75.1859 1.68294 75.4642 1.68945 75.8125H0.390625C0.403646 75.4609 0.463867 75.1273 0.571289 74.8115C0.685221 74.5348 0.864258 74.2793 1.1084 74.0449C1.29069 73.8789 1.50716 73.752 1.75781 73.6641C2.00846 73.5762 2.31608 73.5322 2.68066 73.5322C3.35775 73.5322 3.90299 73.708 4.31641 74.0596C4.73307 74.4079 4.94141 74.8766 4.94141 75.4658C4.94141 75.8825 4.81771 76.234 4.57031 76.5205C4.41406 76.6995 4.2513 76.8216 4.08203 76.8867C4.20898 76.8867 4.39128 76.9958 4.62891 77.2139C4.98372 77.5426 5.16113 77.9919 5.16113 78.5615C5.16113 79.1605 4.9528 79.6878 4.53613 80.1436C4.12272 80.596 3.50911 80.8223 2.69531 80.8223C1.69271 80.8223 0.996094 80.4951 0.605469 79.8408C0.400391 79.4925 0.286458 79.0368 0.263672 78.4736H1.63086ZM7.2998 77.1748C7.2998 77.9886 7.36654 78.612 7.5 79.0449C7.63346 79.4746 7.9069 79.6895 8.32031 79.6895C8.73372 79.6895 9.00391 79.4746 9.13086 79.0449C9.26107 78.612 9.32617 77.9886 9.32617 77.1748C9.32617 76.3219 9.26107 75.6904 9.13086 75.2803C9.00391 74.8701 8.73372 74.665 8.32031 74.665C7.9069 74.665 7.63346 74.8701 7.5 75.2803C7.36654 75.6904 7.2998 76.3219 7.2998 77.1748ZM8.32031 73.5176C9.22201 73.5176 9.85352 73.835 10.2148 74.4697C10.5794 75.1045 10.7617 76.0062 10.7617 77.1748C10.7617 78.3434 10.5794 79.2435 10.2148 79.875C9.85352 80.5065 9.22201 80.8223 8.32031 80.8223C7.41862 80.8223 6.78548 80.5065 6.4209 79.875C6.05957 79.2435 5.87891 78.3434 5.87891 77.1748C5.87891 76.0062 6.05957 75.1045 6.4209 74.4697C6.78548 73.835 7.41862 73.5176 8.32031 73.5176ZM12.8662 77.1748C12.8662 77.9886 12.9329 78.612 13.0664 79.0449C13.1999 79.4746 13.4733 79.6895 13.8867 79.6895C14.3001 79.6895 14.5703 79.4746 14.6973 79.0449C14.8275 78.612 14.8926 77.9886 14.8926 77.1748C14.8926 76.3219 14.8275 75.6904 14.6973 75.2803C14.5703 74.8701 14.3001 74.665 13.8867 74.665C13.4733 74.665 13.1999 74.8701 13.0664 75.2803C12.9329 75.6904 12.8662 76.3219 12.8662 77.1748ZM13.8867 73.5176C14.7884 73.5176 15.4199 73.835 15.7812 74.4697C16.1458 75.1045 16.3281 76.0062 16.3281 77.1748C16.3281 78.3434 16.1458 79.2435 15.7812 79.875C15.4199 80.5065 14.7884 80.8223 13.8867 80.8223C12.985 80.8223 12.3519 80.5065 11.9873 79.875C11.626 79.2435 11.4453 78.3434 11.4453 77.1748C11.4453 76.0062 11.626 75.1045 11.9873 74.4697C12.3519 73.835 12.985 73.5176 13.8867 73.5176Z" fill="#CBD5E0"/>
<path d="M5.22949 44.2988H4.42871V45.8223H3.06641V44.2988H0.263672V43.083L2.86621 38.7861H4.42871V43.21H5.22949V44.2988ZM3.06641 43.21V40.1533L1.29395 43.21H3.06641ZM7.2998 42.3506C7.2998 43.1644 7.36654 43.7878 7.5 44.2207C7.63346 44.6504 7.9069 44.8652 8.32031 44.8652C8.73372 44.8652 9.00391 44.6504 9.13086 44.2207C9.26107 43.7878 9.32617 43.1644 9.32617 42.3506C9.32617 41.4977 9.26107 40.8662 9.13086 40.4561C9.00391 40.0459 8.73372 39.8408 8.32031 39.8408C7.9069 39.8408 7.63346 40.0459 7.5 40.4561C7.36654 40.8662 7.2998 41.4977 7.2998 42.3506ZM8.32031 38.6934C9.22201 38.6934 9.85352 39.0107 10.2148 39.6455C10.5794 40.2803 10.7617 41.182 10.7617 42.3506C10.7617 43.5192 10.5794 44.4193 10.2148 45.0508C9.85352 45.6823 9.22201 45.998 8.32031 45.998C7.41862 45.998 6.78548 45.6823 6.4209 45.0508C6.05957 44.4193 5.87891 43.5192 5.87891 42.3506C5.87891 41.182 6.05957 40.2803 6.4209 39.6455C6.78548 39.0107 7.41862 38.6934 8.32031 38.6934ZM12.8662 42.3506C12.8662 43.1644 12.9329 43.7878 13.0664 44.2207C13.1999 44.6504 13.4733 44.8652 13.8867 44.8652C14.3001 44.8652 14.5703 44.6504 14.6973 44.2207C14.8275 43.7878 14.8926 43.1644 14.8926 42.3506C14.8926 41.4977 14.8275 40.8662 14.6973 40.4561C14.5703 40.0459 14.3001 39.8408 13.8867 39.8408C13.4733 39.8408 13.1999 40.0459 13.0664 40.4561C12.9329 40.8662 12.8662 41.4977 12.8662 42.3506ZM13.8867 38.6934C14.7884 38.6934 15.4199 39.0107 15.7812 39.6455C16.1458 40.2803 16.3281 41.182 16.3281 42.3506C16.3281 43.5192 16.1458 44.4193 15.7812 45.0508C15.4199 45.6823 14.7884 45.998 13.8867 45.998C12.985 45.998 12.3519 45.6823 11.9873 45.0508C11.626 44.4193 11.4453 43.5192 11.4453 42.3506C11.4453 41.182 11.626 40.2803 11.9873 39.6455C12.3519 39.0107 12.985 38.6934 13.8867 38.6934Z" fill="#CBD5E0"/>
<path d="M1.65039 9.10547C1.70573 9.4082 1.81152 9.64258 1.96777 9.80859C2.12402 9.97135 2.35189 10.0527 2.65137 10.0527C2.99642 10.0527 3.25846 9.93229 3.4375 9.69141C3.61979 9.44727 3.71094 9.14128 3.71094 8.77344C3.71094 8.41211 3.6263 8.10775 3.45703 7.86035C3.28776 7.6097 3.02409 7.48438 2.66602 7.48438C2.49674 7.48438 2.35026 7.50553 2.22656 7.54785C2.00846 7.62598 1.84408 7.77083 1.7334 7.98242L0.483398 7.92383L0.981445 4.0127H4.88281V5.19434H1.9873L1.7334 6.74219C1.94824 6.60221 2.11589 6.50944 2.23633 6.46387C2.43815 6.389 2.68392 6.35156 2.97363 6.35156C3.55957 6.35156 4.07064 6.5485 4.50684 6.94238C4.94303 7.33626 5.16113 7.90918 5.16113 8.66113C5.16113 9.31543 4.95117 9.89974 4.53125 10.4141C4.11133 10.9284 3.48307 11.1855 2.64648 11.1855C1.97266 11.1855 1.41927 11.0049 0.986328 10.6436C0.553385 10.2822 0.3125 9.76953 0.263672 9.10547H1.65039ZM7.2998 7.52832C7.2998 8.34212 7.36654 8.96549 7.5 9.39844C7.63346 9.82812 7.9069 10.043 8.32031 10.043C8.73372 10.043 9.00391 9.82812 9.13086 9.39844C9.26107 8.96549 9.32617 8.34212 9.32617 7.52832C9.32617 6.67546 9.26107 6.04395 9.13086 5.63379C9.00391 5.22363 8.73372 5.01855 8.32031 5.01855C7.9069 5.01855 7.63346 5.22363 7.5 5.63379C7.36654 6.04395 7.2998 6.67546 7.2998 7.52832ZM8.32031 3.87109C9.22201 3.87109 9.85352 4.18848 10.2148 4.82324C10.5794 5.45801 10.7617 6.3597 10.7617 7.52832C10.7617 8.69694 10.5794 9.59701 10.2148 10.2285C9.85352 10.86 9.22201 11.1758 8.32031 11.1758C7.41862 11.1758 6.78548 10.86 6.4209 10.2285C6.05957 9.59701 5.87891 8.69694 5.87891 7.52832C5.87891 6.3597 6.05957 5.45801 6.4209 4.82324C6.78548 4.18848 7.41862 3.87109 8.32031 3.87109ZM12.8662 7.52832C12.8662 8.34212 12.9329 8.96549 13.0664 9.39844C13.1999 9.82812 13.4733 10.043 13.8867 10.043C14.3001 10.043 14.5703 9.82812 14.6973 9.39844C14.8275 8.96549 14.8926 8.34212 14.8926 7.52832C14.8926 6.67546 14.8275 6.04395 14.6973 5.63379C14.5703 5.22363 14.3001 5.01855 13.8867 5.01855C13.4733 5.01855 13.1999 5.22363 13.0664 5.63379C12.9329 6.04395 12.8662 6.67546 12.8662 7.52832ZM13.8867 3.87109C14.7884 3.87109 15.4199 4.18848 15.7812 4.82324C16.1458 5.45801 16.3281 6.3597 16.3281 7.52832C16.3281 8.69694 16.1458 9.59701 15.7812 10.2285C15.4199 10.86 14.7884 11.1758 13.8867 11.1758C12.985 11.1758 12.3519 10.86 11.9873 10.2285C11.626 9.59701 11.4453 8.69694 11.4453 7.52832C11.4453 6.3597 11.626 5.45801 11.9873 4.82324C12.3519 4.18848 12.985 3.87109 13.8867 3.87109Z" fill="#CBD5E0"/>
<line x1="23.4473" y1="178.838" x2="492.6" y2="178.838" stroke="#567A64" stroke-linecap="round" stroke-linejoin="round" stroke-dasharray="3.5 3.5"/>
<line x1="23.4473" y1="144.014" x2="492.6" y2="144.014" stroke="#567A64" stroke-linecap="round" stroke-linejoin="round" stroke-dasharray="3.5 3.5"/>
<line x1="23.4473" y1="109.191" x2="492.6" y2="109.191" stroke="#567A64" stroke-linecap="round" stroke-linejoin="round" stroke-dasharray="3.5 3.5"/>
<line x1="23.4473" y1="74.3691" x2="492.6" y2="74.3692" stroke="#567A64" stroke-linecap="round" stroke-linejoin="round" stroke-dasharray="3.5 3.5"/>
<line x1="23.4473" y1="39.5449" x2="492.6" y2="39.545" stroke="#567A64" stroke-linecap="round" stroke-linejoin="round" stroke-dasharray="3.5 3.5"/>
<line x1="23.4473" y1="4.72266" x2="492.6" y2="4.7227" stroke="#567A64" stroke-linecap="round" stroke-linejoin="round" stroke-dasharray="3.5 3.5"/>
<path d="M428.847 123.304C453.255 114.182 481.852 127.105 493.1 134.706V179.163H22.9468V5.22266C46.5669 10.4406 61.7513 53.3441 65.5474 80.5936C68.6435 102.818 68.7811 118.666 85.2308 123.304C101.768 127.967 121.376 113.129 137.966 93.0299C151.239 76.9508 171.053 86.3303 179.301 93.0299C193.923 104.69 218.01 112.597 237.356 100.693C261.538 85.8116 274.895 90.0633 305.404 100.693C335.913 111.322 332.82 118.086 358.268 134.706C383.716 151.326 398.338 134.706 428.847 123.304Z" fill="url(#paint0_linear_525_5636)"/>
<path d="M493.1 134.706C481.852 127.105 453.255 114.182 428.847 123.304C398.338 134.706 383.716 151.326 358.268 134.706C332.82 118.086 335.913 111.322 305.404 100.693C274.895 90.0633 261.538 85.8116 237.356 100.693C218.01 112.597 193.923 104.69 179.301 93.0299C171.053 86.3303 151.239 76.9508 137.966 93.0299C121.376 113.129 101.768 127.967 85.2308 123.304C68.7811 118.666 68.6435 102.818 65.5474 80.5936C61.7513 53.3441 46.5669 10.4406 22.9468 5.22266" stroke="#2CD9FF" stroke-width="3"/>
<path d="M86.7056 104.438C62.4858 95.3224 34.1085 108.236 22.9473 115.831V178.989H492.54V29.534C469.102 34.7482 449.191 33.396 445.424 60.6256C442.352 82.8341 442.215 98.6697 425.892 103.304C409.481 107.964 399.942 80.7097 383.479 60.6256C370.309 44.5583 348.128 65.4661 339.943 72.1608C325.434 83.8122 292.449 58.3906 278.155 38.4073C257.744 9.87348 230.902 7.26368 210.63 38.4073C190.357 69.551 170.249 44.0175 144.997 60.6256C119.745 77.2336 116.98 115.831 86.7056 104.438Z" fill="url(#paint1_linear_525_5636)"/>
<path d="M22.9473 115.959C34.1085 108.354 62.4858 95.424 86.7057 104.551C116.98 115.959 119.745 77.312 144.997 60.6827C170.249 44.0534 190.357 69.6195 210.63 38.436C230.902 7.25247 257.744 9.86562 278.155 38.436C292.449 58.4448 325.434 83.899 339.943 72.2327C348.128 65.5294 370.309 44.5948 383.479 60.6827C399.942 80.7926 409.481 108.082 425.892 103.416C442.215 98.7755 442.352 82.9196 445.424 60.6827C449.191 33.4183 469.102 34.7722 492.54 29.5513" stroke="#CCCCCC" stroke-width="3"/>
<defs>
<linearGradient id="paint0_linear_525_5636" x1="258.023" y1="5.22266" x2="258.023" y2="179.163" gradientUnits="userSpaceOnUse">
<stop stop-color="#3DFF2C" stop-opacity="0.36"/>
<stop offset="1" stop-color="#112175" stop-opacity="0"/>
</linearGradient>
<linearGradient id="paint1_linear_525_5636" x1="257.744" y1="16.0176" x2="257.744" y2="178.989" gradientUnits="userSpaceOnUse">
<stop stop-color="#00FF29"/>
<stop offset="1" stop-color="#0075FF" stop-opacity="0"/>
</linearGradient>
</defs>
</svg>
