<svg width="820" height="654" viewBox="0 0 820 654" fill="none" xmlns="http://www.w3.org/2000/svg">
<g filter="url(#filter0_f_525_5127)">
<ellipse cx="972.485" cy="263.5" rx="149.521" ry="240.333" transform="rotate(-90 972.485 263.5)" fill="#3C459A" fill-opacity="0.5"/>
</g>
<mask id="mask0_525_5127" style="mask-type:alpha" maskUnits="userSpaceOnUse" x="0" y="-98" width="1947" height="723">
<rect y="-98" width="1947" height="723" fill="url(#paint0_radial_525_5127)"/>
</mask>
<g mask="url(#mask0_525_5127)">
<rect x="250.061" y="-86.0412" width="95.1659" height="95.1659" stroke="white" stroke-width="1.20463"/>
<rect x="345.227" y="-86.0412" width="95.1659" height="95.1659" stroke="white" stroke-width="1.20463"/>
<rect x="440.393" y="-86.0412" width="95.1659" height="95.1659" stroke="white" stroke-width="1.20463"/>
<rect x="535.559" y="-86.0412" width="95.1659" height="95.1659" stroke="white" stroke-width="1.20463"/>
<rect x="630.725" y="-86.0412" width="95.1659" height="95.1659" stroke="white" stroke-width="1.20463"/>
<rect x="725.891" y="-86.0412" width="95.1659" height="95.1659" stroke="white" stroke-width="1.20463"/>
<rect x="250.061" y="9.12478" width="95.1659" height="95.1659" stroke="white" stroke-width="1.20463"/>
<rect x="345.227" y="9.12478" width="95.1659" height="95.1659" stroke="white" stroke-width="1.20463"/>
<rect x="440.393" y="9.12478" width="95.1659" height="95.1659" stroke="white" stroke-width="1.20463"/>
<rect x="535.559" y="9.12478" width="95.1659" height="95.1659" stroke="white" stroke-width="1.20463"/>
<rect x="630.725" y="9.12478" width="95.1659" height="95.1659" stroke="white" stroke-width="1.20463"/>
<rect x="725.891" y="9.12478" width="95.1659" height="95.1659" stroke="white" stroke-width="1.20463"/>
<rect x="250.061" y="104.291" width="95.1659" height="95.1659" stroke="white" stroke-width="1.20463"/>
<rect x="345.227" y="104.291" width="95.1659" height="95.1659" stroke="white" stroke-width="1.20463"/>
<rect x="440.393" y="104.291" width="95.1659" height="95.1659" stroke="white" stroke-width="1.20463"/>
<rect x="535.559" y="104.291" width="95.1659" height="95.1659" stroke="white" stroke-width="1.20463"/>
<rect x="630.725" y="104.291" width="95.1659" height="95.1659" fill="white" fill-opacity="0.25" stroke="white" stroke-width="1.20463"/>
<rect x="725.891" y="104.291" width="95.1659" height="95.1659" stroke="white" stroke-width="1.20463"/>
<rect x="250.061" y="199.456" width="95.1659" height="95.1659" stroke="white" stroke-width="1.20463"/>
<rect x="345.227" y="199.456" width="95.1659" height="95.1659" stroke="white" stroke-width="1.20463"/>
<rect x="440.393" y="199.456" width="95.1659" height="95.1659" stroke="white" stroke-width="1.20463"/>
<rect x="535.559" y="199.456" width="95.1659" height="95.1659" stroke="white" stroke-width="1.20463"/>
<rect x="630.725" y="199.456" width="95.1659" height="95.1659" stroke="white" stroke-width="1.20463"/>
<rect x="725.891" y="199.456" width="95.1659" height="95.1659" stroke="white" stroke-width="1.20463"/>
<rect x="250.061" y="294.622" width="95.1659" height="95.1659" stroke="white" stroke-width="1.20463"/>
<rect x="345.227" y="294.622" width="95.1659" height="95.1659" stroke="white" stroke-width="1.20463"/>
<rect x="440.393" y="294.622" width="95.1659" height="95.1659" stroke="white" stroke-width="1.20463"/>
<rect x="535.559" y="294.622" width="95.1659" height="95.1659" fill="white" fill-opacity="0.25" stroke="white" stroke-width="1.20463"/>
<rect x="630.725" y="294.622" width="95.1659" height="95.1659" stroke="white" stroke-width="1.20463"/>
<rect x="725.891" y="294.622" width="95.1659" height="95.1659" stroke="white" stroke-width="1.20463"/>
<rect x="250.061" y="389.788" width="95.1659" height="95.1659" stroke="white" stroke-width="1.20463"/>
<rect x="345.227" y="389.788" width="95.1659" height="95.1659" stroke="white" stroke-width="1.20463"/>
<rect x="440.393" y="389.788" width="95.1659" height="95.1659" stroke="white" stroke-width="1.20463"/>
<rect x="535.559" y="389.788" width="95.1659" height="95.1659" stroke="white" stroke-width="1.20463"/>
<rect x="630.725" y="389.788" width="95.1659" height="95.1659" stroke="white" stroke-width="1.20463"/>
<rect x="725.891" y="389.788" width="95.1659" height="95.1659" stroke="white" stroke-width="1.20463"/>
<rect x="250.061" y="484.954" width="95.1659" height="95.1659" stroke="white" stroke-width="1.20463"/>
<rect x="345.227" y="484.954" width="95.1659" height="95.1659" stroke="white" stroke-width="1.20463"/>
<rect x="440.393" y="484.954" width="95.1659" height="95.1659" stroke="white" stroke-width="1.20463"/>
<rect x="535.559" y="484.954" width="95.1659" height="95.1659" stroke="white" stroke-width="1.20463"/>
<rect x="630.725" y="484.954" width="95.1659" height="95.1659" stroke="white" stroke-width="1.20463"/>
<rect x="725.891" y="484.954" width="95.1659" height="95.1659" stroke="white" stroke-width="1.20463"/>
</g>
<defs>
<filter id="filter0_f_525_5127" x="491.226" y="-126.948" width="962.519" height="780.895" filterUnits="userSpaceOnUse" color-interpolation-filters="sRGB">
<feFlood flood-opacity="0" result="BackgroundImageFix"/>
<feBlend mode="normal" in="SourceGraphic" in2="BackgroundImageFix" result="shape"/>
<feGaussianBlur stdDeviation="120.463" result="effect1_foregroundBlur_525_5127"/>
</filter>
<radialGradient id="paint0_radial_525_5127" cx="0" cy="0" r="1" gradientUnits="userSpaceOnUse" gradientTransform="translate(973.5 263.5) rotate(90) scale(445.648 1200.11)">
<stop stop-color="#D9D9D9" stop-opacity="0.2"/>
<stop offset="0.802083" stop-color="#D9D9D9" stop-opacity="0"/>
</radialGradient>
</defs>
</svg>
