<svg width="1392" height="611" viewBox="0 0 1392 611" fill="none" xmlns="http://www.w3.org/2000/svg">
<g filter="url(#filter0_f_525_5052)">
<ellipse cx="417.485" cy="390.5" rx="149.521" ry="240.333" transform="rotate(-90 417.485 390.5)" fill="#3C459A" fill-opacity="0.5"/>
</g>
<mask id="mask0_525_5052" style="mask-type:alpha" maskUnits="userSpaceOnUse" x="-555" y="29" width="1947" height="723">
<rect x="-555" y="29" width="1947" height="723" fill="url(#paint0_radial_525_5052)"/>
</mask>
<g mask="url(#mask0_525_5052)">
<rect x="-19.4407" y="40.9588" width="95.1659" height="95.1659" stroke="white" stroke-width="1.20463"/>
<rect x="75.7254" y="40.9588" width="95.1659" height="95.1659" stroke="white" stroke-width="1.20463"/>
<rect x="170.891" y="40.9588" width="95.1659" height="95.1659" stroke="white" stroke-width="1.20463"/>
<rect x="266.057" y="40.9588" width="95.1659" height="95.1659" fill="white" fill-opacity="0.25" stroke="white" stroke-width="1.20463"/>
<rect x="361.221" y="40.9588" width="95.1659" height="95.1659" stroke="white" stroke-width="1.20463"/>
<rect x="456.387" y="40.9588" width="95.1659" height="95.1659" stroke="white" stroke-width="1.20463"/>
<rect x="-19.4407" y="136.125" width="95.1659" height="95.1659" stroke="white" stroke-width="1.20463"/>
<rect x="75.7254" y="136.125" width="95.1659" height="95.1659" stroke="white" stroke-width="1.20463"/>
<rect x="170.891" y="136.125" width="95.1659" height="95.1659" stroke="white" stroke-width="1.20463"/>
<rect x="266.057" y="136.125" width="95.1659" height="95.1659" stroke="white" stroke-width="1.20463"/>
<rect x="361.221" y="136.125" width="95.1659" height="95.1659" stroke="white" stroke-width="1.20463"/>
<rect x="456.387" y="136.125" width="95.1659" height="95.1659" stroke="white" stroke-width="1.20463"/>
<rect x="-19.4407" y="231.291" width="95.1659" height="95.1659" stroke="white" stroke-width="1.20463"/>
<rect x="75.7254" y="231.291" width="95.1659" height="95.1659" fill="white" fill-opacity="0.25" stroke="white" stroke-width="1.20463"/>
<rect x="170.891" y="231.291" width="95.1659" height="95.1659" stroke="white" stroke-width="1.20463"/>
<rect x="266.057" y="231.291" width="95.1659" height="95.1659" fill="white" fill-opacity="0.25" stroke="white" stroke-width="1.20463"/>
<rect x="361.221" y="231.291" width="95.1659" height="95.1659" stroke="white" stroke-width="1.20463"/>
<rect x="456.387" y="231.291" width="95.1659" height="95.1659" stroke="white" stroke-width="1.20463"/>
<rect x="-19.4407" y="326.456" width="95.1659" height="95.1659" stroke="white" stroke-width="1.20463"/>
<rect x="75.7254" y="326.456" width="95.1659" height="95.1659" stroke="white" stroke-width="1.20463"/>
<rect x="170.891" y="326.456" width="95.1659" height="95.1659" stroke="white" stroke-width="1.20463"/>
<rect x="266.057" y="326.456" width="95.1659" height="95.1659" stroke="white" stroke-width="1.20463"/>
<rect x="361.221" y="326.456" width="95.1659" height="95.1659" stroke="white" stroke-width="1.20463"/>
<rect x="456.387" y="326.456" width="95.1659" height="95.1659" stroke="white" stroke-width="1.20463"/>
<rect x="-19.4407" y="421.622" width="95.1659" height="95.1659" fill="white" fill-opacity="0.25" stroke="white" stroke-width="1.20463"/>
<rect x="75.7254" y="421.622" width="95.1659" height="95.1659" stroke="white" stroke-width="1.20463"/>
<rect x="170.891" y="421.622" width="95.1659" height="95.1659" stroke="white" stroke-width="1.20463"/>
<rect x="266.057" y="421.622" width="95.1659" height="95.1659" stroke="white" stroke-width="1.20463"/>
<rect x="361.221" y="421.622" width="95.1659" height="95.1659" stroke="white" stroke-width="1.20463"/>
<rect x="456.387" y="421.622" width="95.1659" height="95.1659" stroke="white" stroke-width="1.20463"/>
<rect x="-19.4407" y="516.788" width="95.1659" height="95.1659" stroke="white" stroke-width="1.20463"/>
<rect x="75.7254" y="516.788" width="95.1659" height="95.1659" stroke="white" stroke-width="1.20463"/>
<rect x="170.891" y="516.788" width="95.1659" height="95.1659" stroke="white" stroke-width="1.20463"/>
<rect x="266.057" y="516.788" width="95.1659" height="95.1659" stroke="white" stroke-width="1.20463"/>
<rect x="361.221" y="516.788" width="95.1659" height="95.1659" stroke="white" stroke-width="1.20463"/>
<rect x="456.387" y="516.788" width="95.1659" height="95.1659" stroke="white" stroke-width="1.20463"/>
</g>
<defs>
<filter id="filter0_f_525_5052" x="-63.7739" y="0.0522461" width="962.519" height="780.895" filterUnits="userSpaceOnUse" color-interpolation-filters="sRGB">
<feFlood flood-opacity="0" result="BackgroundImageFix"/>
<feBlend mode="normal" in="SourceGraphic" in2="BackgroundImageFix" result="shape"/>
<feGaussianBlur stdDeviation="120.463" result="effect1_foregroundBlur_525_5052"/>
</filter>
<radialGradient id="paint0_radial_525_5052" cx="0" cy="0" r="1" gradientUnits="userSpaceOnUse" gradientTransform="translate(418.5 390.5) rotate(90) scale(445.648 1200.11)">
<stop stop-color="#D9D9D9" stop-opacity="0.2"/>
<stop offset="0.802083" stop-color="#D9D9D9" stop-opacity="0"/>
</radialGradient>
</defs>
</svg>
