<svg width="305" height="406" viewBox="0 0 305 406" fill="none" xmlns="http://www.w3.org/2000/svg">
<path opacity="0.4" d="M131.325 116.221C135.067 114.325 137.753 114.287 139.382 116.067C141.055 117.846 141.847 120.865 141.847 125.082V147.912C141.847 152.245 142.287 155.844 143.212 158.707C144.136 161.687 145.677 163.776 147.79 165.014C149.859 166.291 152.677 166.601 156.243 166.02C159.721 165.479 164.079 163.853 169.274 161.222L171.74 159.945V141.953L168.614 143.539C164.872 145.435 162.406 145.667 161.174 144.313C159.853 142.959 159.193 140.173 159.193 135.955V115.834C159.193 110.572 158.62 106.432 157.432 103.414C156.287 100.357 153.954 98.4221 150.476 97.5708C153.954 93.1984 156.287 88.8647 157.432 84.6471C158.576 80.4294 159.149 75.7088 159.149 70.4464V50.3256C159.149 46.108 159.809 42.6255 161.13 39.9556C162.362 37.3245 164.872 35.0415 168.57 33.1455L171.696 31.5591V13.5664L169.23 14.8433C164.035 17.4745 159.677 20.2991 156.199 23.2786C152.633 26.2967 149.815 29.4696 147.746 32.8747C145.589 36.2797 144.048 39.9169 143.168 43.825C142.243 47.617 141.803 51.6799 141.803 56.0136V78.843C141.803 83.0606 140.967 86.93 139.338 90.3738C137.665 93.8175 134.979 96.5261 131.281 98.3834L131.325 116.221Z" fill="url(#paint0_linear_572_3584)"/>
<path opacity="0.4" d="M225.624 50.0938C221.882 51.9898 219.197 52.0285 217.568 50.2486C215.895 48.4687 215.103 45.4506 215.103 41.2329V18.4035C215.103 14.0698 214.662 10.4713 213.738 7.60794C212.813 4.62851 211.316 2.53904 209.247 1.26215C207.09 0.0239419 204.273 -0.285609 200.795 0.256105C197.229 0.836514 192.826 2.46166 187.631 5.13154L185.166 6.40843V24.4011L188.292 22.8146C192.034 20.9186 194.543 20.6478 195.864 22.0021C197.097 23.3951 197.713 26.181 197.713 30.4373V50.5582C197.713 55.8205 198.285 59.9608 199.474 62.9789C200.619 66.0357 202.952 67.9704 206.43 68.8217C202.952 73.1941 200.619 77.5278 199.474 81.7454C198.329 85.9631 197.757 90.6837 197.757 95.9461V116.067C197.757 120.285 197.141 123.728 195.908 126.398C194.587 129.068 192.078 131.39 188.336 133.247L185.21 134.833V152.826L187.675 151.549C192.87 148.918 197.273 146.055 200.839 143.075C204.317 140.096 207.134 136.923 209.291 133.479C211.36 130.113 212.857 126.476 213.738 122.606C214.662 118.814 215.103 114.751 215.103 110.418V87.5882C215.103 83.3706 215.939 79.5012 217.568 76.0574C219.241 72.6137 221.926 69.9051 225.624 68.0478V50.0938Z" fill="url(#paint1_linear_572_3584)"/>
<path opacity="0.15" d="M118.601 4.97656L25.666 52.1444V247.974L118.601 200.806V4.97656Z" fill="url(#paint2_linear_572_3584)"/>
<path d="M136.034 30.6309L62.1172 68.1252V86.1179L136.034 48.6235V30.6309Z" fill="url(#paint3_radial_572_3584)"/>
<path opacity="0.2" d="M106.45 113.938L36.3633 149.459V203.902L106.45 168.342V113.938Z" fill="url(#paint4_linear_572_3584)"/>
<path opacity="0.15" d="M107.155 72.1875L36.0117 108.289V114.441L107.155 78.3398V72.1875Z" fill="white"/>
<path opacity="0.15" d="M107.199 84.5703L45.6973 115.758V121.91L107.199 90.7226V84.5703Z" fill="white"/>
<path opacity="0.15" d="M107.199 96.7979L54.9863 123.264V129.417L107.199 102.95V96.7979Z" fill="white"/>
<path opacity="0.2" d="M118.601 4.97656L25.666 52.1444V78.3789L118.601 31.2497V4.97656Z" fill="url(#paint5_linear_572_3584)"/>
<path opacity="0.2" d="M95.3555 30.0506C95.3555 34.0361 97.9969 35.8934 101.255 34.2295C104.513 32.5657 107.154 28.0385 107.154 24.053C107.154 20.0676 104.513 18.2103 101.255 19.8741C97.9969 21.5379 95.3555 26.1038 95.3555 30.0506Z" fill="white"/>
<path opacity="0.15" d="M286.07 64.9521L0 210.054L0.0440243 406L286.114 260.898L286.07 64.9521Z" fill="url(#paint6_linear_572_3584)"/>
<path d="M305.001 113.242L231.084 150.737V168.729L305.001 131.235V113.242Z" fill="url(#paint7_radial_572_3584)"/>
<path opacity="0.15" d="M266.743 162.693L102.664 245.963V252.115L266.787 168.846L266.743 162.693Z" fill="white"/>
<path opacity="0.15" d="M266.786 175.075L125.16 246.93V253.082L266.742 181.266L266.786 175.075Z" fill="white"/>
<path opacity="0.15" d="M266.787 187.341L146.293 248.477V254.629L266.787 193.493V187.341Z" fill="white"/>
<path opacity="0.2" d="M155.978 265.348L11.666 338.557V392.999L155.978 319.79V265.348Z" fill="url(#paint8_linear_572_3584)"/>
<path opacity="0.15" d="M145.148 281.638L123.4 292.665V310.658L145.148 299.63V281.638Z" fill="white"/>
<path opacity="0.15" d="M118.514 296.032L96.7656 307.06V325.053L118.514 314.025V296.032Z" fill="white"/>
<path opacity="0.15" d="M91.746 309.382L69.998 320.41V338.402L91.746 327.374V309.382Z" fill="white"/>
<path opacity="0.15" d="M64.9355 323.582L43.1875 334.61V352.602L64.9355 341.575V323.582Z" fill="white"/>
<path opacity="0.2" d="M293.642 193.455L173.5 254.398V308.84L293.642 247.897V193.455Z" fill="url(#paint9_linear_572_3584)"/>
<path opacity="0.15" d="M281.535 213.536L186.09 261.942V268.095L281.535 219.688V213.536Z" fill="white"/>
<path opacity="0.15" d="M281.535 225.919L205.064 264.69V270.843L281.491 232.071L281.535 225.919Z" fill="white"/>
<path opacity="0.2" d="M286.069 64.9521L0.351562 209.899V236.443L286.025 91.4962L286.069 64.9521Z" fill="url(#paint10_linear_572_3584)"/>
<path opacity="0.2" d="M254.945 94.0115C254.945 97.997 257.587 99.8543 260.845 98.1905C264.102 96.5266 266.744 91.9994 266.744 88.014C266.744 84.0285 264.102 82.1712 260.845 83.835C257.587 85.4989 254.945 90.0648 254.945 94.0115Z" fill="white"/>
<defs>
<linearGradient id="paint0_linear_572_3584" x1="105.975" y1="8.13584" x2="165.03" y2="124.614" gradientUnits="userSpaceOnUse">
<stop stop-color="white"/>
<stop offset="0.903" stop-color="white" stop-opacity="0"/>
</linearGradient>
<linearGradient id="paint1_linear_572_3584" x1="147.601" y1="0.688159" x2="206.664" y2="117.155" gradientUnits="userSpaceOnUse">
<stop stop-color="white"/>
<stop offset="0.903" stop-color="white" stop-opacity="0"/>
</linearGradient>
<linearGradient id="paint2_linear_572_3584" x1="23.9089" y1="53.0342" x2="96.696" y2="196.509" gradientUnits="userSpaceOnUse">
<stop stop-color="white"/>
<stop offset="1" stop-color="white" stop-opacity="0"/>
</linearGradient>
<radialGradient id="paint3_radial_572_3584" cx="0" cy="0" r="1" gradientUnits="userSpaceOnUse" gradientTransform="translate(99.0756 58.3744) rotate(90) scale(27.7435 36.9584)">
<stop stop-color="#1C6D0F"/>
<stop offset="1" stop-color="#34EE30"/>
</radialGradient>
<linearGradient id="paint4_linear_572_3584" x1="58.0213" y1="138.497" x2="78.2511" y2="178.373" gradientUnits="userSpaceOnUse">
<stop stop-color="white"/>
<stop offset="1" stop-color="white" stop-opacity="0"/>
</linearGradient>
<linearGradient id="paint5_linear_572_3584" x1="86.7279" y1="5.38343" x2="64.2714" y2="77.7187" gradientUnits="userSpaceOnUse">
<stop stop-color="white"/>
<stop offset="1" stop-color="white" stop-opacity="0"/>
</linearGradient>
<linearGradient id="paint6_linear_572_3584" x1="94.7815" y1="161.971" x2="133.334" y2="237.984" gradientUnits="userSpaceOnUse">
<stop stop-color="white"/>
<stop offset="1" stop-color="white" stop-opacity="0"/>
</linearGradient>
<radialGradient id="paint7_radial_572_3584" cx="0" cy="0" r="1" gradientUnits="userSpaceOnUse" gradientTransform="translate(268.042 140.986) rotate(90) scale(27.7435 36.9584)">
<stop stop-color="#1C6D0F"/>
<stop offset="1" stop-color="#34EE30"/>
</radialGradient>
<linearGradient id="paint8_linear_572_3584" x1="70.4314" y1="308.754" x2="90.6612" y2="348.63" gradientUnits="userSpaceOnUse">
<stop stop-color="white"/>
<stop offset="1" stop-color="white" stop-opacity="0"/>
</linearGradient>
<linearGradient id="paint9_linear_572_3584" x1="220.158" y1="230.712" x2="240.387" y2="270.587" gradientUnits="userSpaceOnUse">
<stop stop-color="white"/>
<stop offset="1" stop-color="white" stop-opacity="0"/>
</linearGradient>
<linearGradient id="paint10_linear_572_3584" x1="215.178" y1="43.5647" x2="126.148" y2="215.152" gradientUnits="userSpaceOnUse">
<stop stop-color="white"/>
<stop offset="1" stop-color="white" stop-opacity="0"/>
</linearGradient>
</defs>
</svg>
