<svg width="112" height="111" viewBox="0 0 112 111" fill="none" xmlns="http://www.w3.org/2000/svg">
<path d="M55.7127 10.2026L44.4686 36.1066H33.2244C31.3582 36.1066 29.5386 36.2451 27.7656 36.6145L32.4313 25.5326L32.6179 25.117L32.8978 24.3782C33.0378 24.055 33.1311 23.7779 33.2711 23.5471C38.6832 11.1261 44.7485 7.24739 55.7127 10.2026Z" fill="url(#paint0_linear_525_5942)"/>
<path d="M87.3929 37.357L87.2996 37.3108C84.5002 36.5259 81.6542 36.1103 78.7615 36.1103H49.5547L60.0523 11.9609L60.1923 11.6377C60.8455 11.8686 61.5453 12.1918 62.2452 12.4227L72.5562 16.7169C78.2949 19.0718 82.3074 21.5191 84.7802 24.4743C85.2001 25.0284 85.5733 25.5363 85.9466 26.1366C86.3665 26.783 86.6931 27.4295 86.8797 28.1221C87.0663 28.5376 87.2063 28.907 87.2996 29.3226C87.9994 31.6775 88.0461 34.3557 87.3929 37.357Z" fill="url(#paint1_linear_525_5942)"/>
<path d="M58.4102 81.5426H59.5766C60.9763 81.5426 62.1427 80.2959 62.1427 78.7721C62.1427 76.8328 61.5828 76.5557 60.3697 76.094L58.4102 75.4014V81.5426Z" fill="url(#paint2_linear_525_5942)"/>
<path d="M85.3345 43.9557C83.235 43.3555 81.0421 43.0322 78.7559 43.0322H33.2194C30.0468 43.0322 27.0608 43.6325 24.2614 44.833C16.1432 48.2961 10.4512 56.2844 10.4512 65.5655V74.5696C10.4512 75.6778 10.5445 76.7398 10.6845 77.848C11.7109 92.5315 19.6425 100.381 34.4791 101.351C35.5522 101.489 36.6253 101.582 37.7917 101.582H74.1836C91.4464 101.582 100.544 93.455 101.431 77.2939C101.478 76.4165 101.524 75.4931 101.524 74.5696V65.5655C101.524 55.3609 94.6657 46.7724 85.3345 43.9557ZM61.9597 71.5682C64.1059 72.307 66.9986 73.8769 66.9986 78.7715C66.9986 82.9734 63.686 86.3441 59.5802 86.3441H58.4138V87.36C58.4138 88.699 57.3407 89.761 55.9877 89.761C54.6347 89.761 53.5616 88.699 53.5616 87.36V86.3441H53.1417C48.6627 86.3441 44.9768 82.604 44.9768 77.9865C44.9768 76.6474 46.0499 75.5854 47.4029 75.5854C48.756 75.5854 49.8291 76.6474 49.8291 77.9865C49.8291 79.9258 51.3221 81.5419 53.1417 81.5419H53.5616V73.7384L50.0157 72.4917C47.8695 71.7529 44.9768 70.183 44.9768 65.2884C44.9768 61.0865 48.2894 57.7158 52.3952 57.7158H53.5616V56.6999C53.5616 55.3609 54.6347 54.2989 55.9877 54.2989C57.3407 54.2989 58.4138 55.3609 58.4138 56.6999V57.7158H58.8337C63.3127 57.7158 66.9986 61.4559 66.9986 66.0734C66.9986 67.4125 65.9255 68.4745 64.5724 68.4745C63.2194 68.4745 62.1463 67.4125 62.1463 66.0734C62.1463 64.1341 60.6533 62.518 58.8337 62.518H58.4138V70.3215L61.9597 71.5682Z" fill="url(#paint3_linear_525_5942)"/>
<path d="M49.8281 65.2939C49.8281 67.2333 50.388 67.5103 51.6011 67.9721L53.5606 68.6647V62.5234H52.3942C50.9479 62.5234 49.8281 63.7702 49.8281 65.2939Z" fill="url(#paint4_linear_525_5942)"/>
<defs>
<linearGradient id="paint0_linear_525_5942" x1="27.7656" y1="48.0534" x2="56.4376" y2="46.3217" gradientUnits="userSpaceOnUse">
<stop stop-color="#196D0F"/>
<stop offset="1" stop-color="#42EA3F"/>
</linearGradient>
<linearGradient id="paint1_linear_525_5942" x1="49.5547" y1="48.1124" x2="88.6885" y2="44.6675" gradientUnits="userSpaceOnUse">
<stop stop-color="#196D0F"/>
<stop offset="1" stop-color="#42EA3F"/>
</linearGradient>
<linearGradient id="paint2_linear_525_5942" x1="58.4102" y1="84.1108" x2="62.2485" y2="83.9729" gradientUnits="userSpaceOnUse">
<stop stop-color="#196D0F"/>
<stop offset="1" stop-color="#42EA3F"/>
</linearGradient>
<linearGradient id="paint3_linear_525_5942" x1="10.4512" y1="126.066" x2="103.441" y2="117.516" gradientUnits="userSpaceOnUse">
<stop stop-color="#196D0F"/>
<stop offset="1" stop-color="#42EA3F"/>
</linearGradient>
<linearGradient id="paint4_linear_525_5942" x1="49.8281" y1="71.2328" x2="53.6664" y2="71.0949" gradientUnits="userSpaceOnUse">
<stop stop-color="#196D0F"/>
<stop offset="1" stop-color="#42EA3F"/>
</linearGradient>
</defs>
</svg>
