<svg width="316" height="303" viewBox="0 0 316 303" fill="none" xmlns="http://www.w3.org/2000/svg">
<path opacity="0.07" d="M277.739 153.092C277.739 209.119 244.878 235.58 204.365 212.263C163.853 188.946 131.033 124.589 131.033 68.6035C131.033 12.5771 163.894 -13.8844 204.406 9.43273C244.919 32.7498 277.739 97.0659 277.739 153.092Z" fill="url(#paint0_linear_534_2681)"/>
<path opacity="0.4" d="M171.096 35.2815C161.438 29.7279 151.903 26.8694 143.023 26.8286C134.143 26.7877 126.041 29.6054 119.207 35.1182C112.373 40.631 106.971 48.6756 103.288 58.8437C99.605 69.0117 97.6816 81.1399 97.6816 94.4523L171.055 136.676L171.096 35.2815Z" fill="url(#paint1_linear_534_2681)"/>
<path opacity="0.2" d="M114.049 80.4051C114.049 100.455 118.346 122.547 126.407 143.864C134.469 165.18 145.927 184.781 159.309 200.176C172.69 215.571 187.463 226.066 201.704 230.353C215.945 234.641 228.999 232.518 239.27 224.228C249.542 215.938 256.498 201.891 259.363 183.882C262.187 165.833 260.754 144.599 255.189 122.874C249.623 101.15 240.252 79.8743 228.18 61.7841C216.108 43.6939 201.949 29.5648 187.422 21.2344V122.67L114.049 80.4051Z" fill="url(#paint2_linear_534_2681)"/>
<path opacity="0.3" d="M134.716 70.1147L12.9727 0L13.0136 63.336L124.035 127.285L134.798 143.17L134.716 70.1147Z" fill="url(#paint3_linear_534_2681)"/>
<path d="M0 24.6644V7.47266L45.9554 33.9341V51.1259L0 24.6644Z" fill="url(#paint4_radial_534_2681)"/>
<path opacity="0.15" d="M103.41 67.5007L76.7285 52.1465V57.7001L103.41 73.0543V67.5007Z" fill="white"/>
<path opacity="0.15" d="M103.451 78.6488L52.0117 49.043V54.5966L103.451 84.2024V78.6488Z" fill="white"/>
<path opacity="0.15" d="M103.451 89.756L41.127 53.9023V59.456L103.451 95.3505V89.756Z" fill="white"/>
<path d="M109.998 77.0968C109.998 82.3237 113.108 88.3265 116.914 90.5317C120.72 92.7368 123.83 90.2867 123.83 85.0597C123.83 79.8327 120.72 73.8299 116.914 71.6248C113.067 69.4197 109.998 71.8698 109.998 77.0968Z" fill="url(#paint5_radial_534_2681)"/>
<path opacity="0.3" d="M183.699 168.08L305.483 238.236L305.524 301.572L194.503 237.623L183.781 241.135L183.699 168.08Z" fill="url(#paint6_linear_534_2681)"/>
<path d="M270.045 249.383V232.191L316 258.653V275.845L270.045 249.383Z" fill="url(#paint7_radial_534_2681)"/>
<path opacity="0.15" d="M215.045 201.564L241.726 216.919V222.472L215.045 207.118V201.564Z" fill="white"/>
<path opacity="0.15" d="M215.045 212.672L263.21 240.399V245.953L215.045 218.266V212.672Z" fill="white"/>
<path opacity="0.15" d="M215.045 223.82L277.369 259.715V265.268L215.045 229.374V223.82Z" fill="white"/>
<path d="M208.457 203.566C208.457 208.793 205.347 211.243 201.541 209.038C197.735 206.832 194.625 200.83 194.625 195.603C194.625 190.376 197.735 187.926 201.541 190.131C205.347 192.336 208.457 198.339 208.457 203.566Z" fill="url(#paint8_radial_534_2681)"/>
<path opacity="0.3" d="M98.0488 136.717L166.634 176.205V302.999L98.0488 263.511V136.717Z" fill="url(#paint9_linear_534_2681)"/>
<path opacity="0.15" d="M104.801 211.977L159.882 243.706V249.259L104.801 217.53V211.977Z" fill="white"/>
<path opacity="0.15" d="M108.648 225.045L155.995 252.323V257.877L108.648 230.599V225.045Z" fill="white"/>
<path d="M128.658 247.709L80.9434 220.227V234.397L128.658 261.879V247.709Z" fill="url(#paint10_radial_534_2681)"/>
<path d="M140.157 186.578C140.157 192.704 136.597 195.603 132.218 193.071C127.84 190.539 124.279 183.475 124.279 177.309C124.279 171.183 127.84 168.284 132.218 170.816C136.597 173.388 140.157 180.453 140.157 186.578Z" fill="url(#paint11_radial_534_2681)"/>
<path d="M132.22 198.011C125.141 193.887 119.289 197.766 118.266 206.627C118.102 208.179 119.248 210.221 120.68 211.038L143.76 224.513C145.192 225.33 146.338 224.677 146.174 222.921C145.151 212.794 139.3 202.136 132.22 198.011Z" fill="url(#paint12_radial_534_2681)"/>
<path opacity="0.2" d="M59.8681 126.346L42.3535 116.259V110.379L59.8681 120.465C61.3004 121.282 63.3874 122.956 65.1471 125.529C67.0704 128.265 68.4208 131.736 68.4208 135.493C68.4208 139.658 67.3569 142.026 65.3517 142.68C63.4693 143.292 61.2186 142.231 59.8681 141.455L52.6659 137.29L52.6249 137.249C52.0111 136.881 51.029 136.514 50.2515 136.759C49.5967 136.963 48.901 137.575 48.901 139.903C48.901 142.231 49.6376 143.619 50.2105 144.477C50.9471 145.538 51.9293 146.273 52.5431 146.6L52.6249 146.641L74.641 159.341V165.221L52.7886 152.603C51.2745 151.827 49.1056 150.153 47.2232 147.539C45.1771 144.64 43.7858 141.006 43.7858 136.963C43.7858 132.92 45.1771 130.878 47.1823 130.307C49.0647 129.776 51.2336 130.552 52.7477 131.45L59.8681 135.574C60.8912 136.187 61.6687 136.432 62.2007 136.269C62.6099 136.146 63.3465 135.574 63.3465 132.593C63.3465 130.633 62.7327 129.367 62.1189 128.551C61.3823 127.448 60.441 126.672 59.8681 126.346Z" fill="white"/>
<path d="M45.5465 114.994C45.5465 120.262 42.4364 122.753 38.6307 120.588C34.8249 118.383 31.7148 112.339 31.7148 107.031C31.7148 101.763 34.8249 99.272 38.6307 101.436C42.4364 103.641 45.5465 109.726 45.5465 114.994Z" fill="url(#paint13_radial_534_2681)"/>
<path d="M83.6031 167.263C83.6031 172.531 80.4931 175.022 76.6873 172.858C72.8816 170.653 69.7715 164.609 69.7715 159.3C69.7715 154.033 72.8816 151.542 76.6873 153.706C80.4931 155.911 83.6031 161.995 83.6031 167.263Z" fill="url(#paint14_radial_534_2681)"/>
<defs>
<linearGradient id="paint0_linear_534_2681" x1="292.482" y1="67.2328" x2="156.761" y2="134.702" gradientUnits="userSpaceOnUse">
<stop stop-color="white"/>
<stop offset="1" stop-color="white" stop-opacity="0"/>
</linearGradient>
<linearGradient id="paint1_linear_534_2681" x1="202.275" y1="58.4482" x2="120.15" y2="97.2016" gradientUnits="userSpaceOnUse">
<stop stop-color="white"/>
<stop offset="1" stop-color="white" stop-opacity="0"/>
</linearGradient>
<linearGradient id="paint2_linear_534_2681" x1="240.582" y1="86.6901" x2="180.588" y2="148.765" gradientUnits="userSpaceOnUse">
<stop stop-color="white"/>
<stop offset="1" stop-color="white" stop-opacity="0"/>
</linearGradient>
<linearGradient id="paint3_linear_534_2681" x1="108.175" y1="44.7569" x2="45.3992" y2="94.0126" gradientUnits="userSpaceOnUse">
<stop stop-color="white"/>
<stop offset="1" stop-color="white" stop-opacity="0"/>
</linearGradient>
<radialGradient id="paint4_radial_534_2681" cx="0" cy="0" r="1" gradientUnits="userSpaceOnUse" gradientTransform="translate(22.9777 29.2993) rotate(90) scale(21.8266 22.9777)">
<stop stop-color="#1C6D0F"/>
<stop offset="1" stop-color="#34EE30"/>
</radialGradient>
<radialGradient id="paint5_radial_534_2681" cx="0" cy="0" r="1" gradientUnits="userSpaceOnUse" gradientTransform="translate(116.914 81.0782) rotate(90) scale(10.2638 6.91583)">
<stop stop-color="#1C6D0F"/>
<stop offset="1" stop-color="#34EE30"/>
</radialGradient>
<linearGradient id="paint6_linear_534_2681" x1="236.022" y1="170.144" x2="251.699" y2="297.571" gradientUnits="userSpaceOnUse">
<stop stop-color="white"/>
<stop offset="1" stop-color="white" stop-opacity="0"/>
</linearGradient>
<radialGradient id="paint7_radial_534_2681" cx="0" cy="0" r="1" gradientUnits="userSpaceOnUse" gradientTransform="translate(293.023 254.018) rotate(90) scale(21.8266 22.9777)">
<stop stop-color="#1C6D0F"/>
<stop offset="1" stop-color="#34EE30"/>
</radialGradient>
<radialGradient id="paint8_radial_534_2681" cx="0" cy="0" r="1" gradientUnits="userSpaceOnUse" gradientTransform="translate(201.541 199.584) rotate(90) scale(10.2638 6.91582)">
<stop stop-color="#1C6D0F"/>
<stop offset="1" stop-color="#34EE30"/>
</radialGradient>
<linearGradient id="paint9_linear_534_2681" x1="173.98" y1="147.892" x2="113.294" y2="253.252" gradientUnits="userSpaceOnUse">
<stop stop-color="white"/>
<stop offset="1" stop-color="white" stop-opacity="0"/>
</linearGradient>
<radialGradient id="paint10_radial_534_2681" cx="0" cy="0" r="1" gradientUnits="userSpaceOnUse" gradientTransform="translate(104.801 241.053) rotate(90) scale(20.8261 23.8575)">
<stop stop-color="#1C6D0F"/>
<stop offset="1" stop-color="#34EE30"/>
</radialGradient>
<radialGradient id="paint11_radial_534_2681" cx="0" cy="0" r="1" gradientUnits="userSpaceOnUse" gradientTransform="translate(132.218 181.943) rotate(90) scale(12.043 7.93887)">
<stop stop-color="#1C6D0F"/>
<stop offset="1" stop-color="#34EE30"/>
</radialGradient>
<radialGradient id="paint12_radial_534_2681" cx="0" cy="0" r="1" gradientUnits="userSpaceOnUse" gradientTransform="translate(132.22 210.612) rotate(90) scale(14.2504 13.97)">
<stop stop-color="#1C6D0F"/>
<stop offset="1" stop-color="#34EE30"/>
</radialGradient>
<radialGradient id="paint13_radial_534_2681" cx="0" cy="0" r="1" gradientUnits="userSpaceOnUse" gradientTransform="translate(38.6307 111.012) rotate(90) scale(10.356 6.91582)">
<stop stop-color="#1C6D0F"/>
<stop offset="1" stop-color="#34EE30"/>
</radialGradient>
<radialGradient id="paint14_radial_534_2681" cx="0" cy="0" r="1" gradientUnits="userSpaceOnUse" gradientTransform="translate(76.6873 163.282) rotate(90) scale(10.356 6.91582)">
<stop stop-color="#1C6D0F"/>
<stop offset="1" stop-color="#34EE30"/>
</radialGradient>
</defs>
</svg>
