<svg width="320" height="291" viewBox="0 0 320 291" fill="none" xmlns="http://www.w3.org/2000/svg">
<path opacity="0.4" d="M270.679 88.5052C287.892 97.0012 301.85 87.3622 301.895 66.9794C301.895 46.5965 287.937 23.1658 270.724 14.6698C253.511 6.17375 239.553 15.8127 239.509 36.1956C239.509 40.6912 240.178 45.3012 241.426 49.873L177.97 70.1035C172.352 60.8455 164.637 53.0352 156.164 48.8444C138.951 40.3483 124.994 49.9873 124.949 70.3701C124.949 90.753 138.907 114.184 156.12 122.68C164.28 126.718 171.727 126.642 177.301 123.327L239.509 204.516C239.509 205.011 239.464 205.468 239.464 205.964C239.464 226.346 253.422 249.777 270.635 258.273C287.848 266.769 301.805 257.13 301.85 236.747C301.85 216.365 287.892 192.934 270.679 184.438C259.353 178.875 249.453 181.123 243.968 189.086L185.507 112.774C186.711 109.459 187.335 105.573 187.335 101.154C187.335 97.1155 186.8 93.0008 185.774 88.8861L249.676 68.5033C255.206 77.2279 262.608 84.5048 270.679 88.5052Z" fill="url(#paint0_linear_525_5897)"/>
<path opacity="0.07" d="M319.554 55.3973C319.554 75.7802 305.596 85.4191 288.339 76.9231C271.126 68.4271 257.168 45.0345 257.168 24.6135C257.168 4.2307 271.126 -5.40828 288.383 3.08774C305.596 11.5838 319.554 35.0145 319.554 55.3973Z" fill="url(#paint1_linear_525_5897)"/>
<path opacity="0.07" d="M204.95 88.9247C204.95 109.307 190.993 118.946 173.735 110.45C156.522 101.954 142.564 78.5237 142.564 58.1409C142.564 37.7581 156.522 28.1191 173.78 36.6151C190.993 45.1111 204.95 68.5418 204.95 88.9247Z" fill="url(#paint2_linear_525_5897)"/>
<path opacity="0.07" d="M320.001 225.318C320.001 245.701 306.043 255.34 288.786 246.844C271.573 238.348 257.615 214.917 257.615 194.534C257.615 174.152 271.573 164.513 288.83 173.009C306.043 181.505 320.001 204.935 320.001 225.318Z" fill="url(#paint3_linear_525_5897)"/>
<path opacity="0.2" d="M56.0527 162.303L144.615 206.002L144.659 273.361L56.0973 229.661L56.0527 162.303Z" fill="url(#paint4_linear_525_5897)"/>
<path opacity="0.15" d="M56.0527 162.303L100.378 224.556L144.659 205.964L56.0527 162.303Z" fill="url(#paint5_linear_525_5897)"/>
<path d="M108.004 226.004C108.004 230.766 104.66 232.938 100.468 230.88C96.3207 228.823 92.9316 223.299 92.9316 218.575C92.9316 213.812 96.2761 211.641 100.468 213.698C104.66 215.755 108.004 221.28 108.004 226.004Z" fill="url(#paint6_radial_525_5897)"/>
<path opacity="0.3" d="M146.801 129.423L14.1367 64.0459L14.1813 121.689L135.162 181.314L146.89 195.906L146.801 129.423Z" fill="url(#paint7_linear_525_5897)"/>
<path d="M0 86.3715V70.7129L50.078 95.4009V111.059L0 86.3715Z" fill="url(#paint8_radial_525_5897)"/>
<path opacity="0.15" d="M112.686 126.643L83.6113 112.317V117.385L112.686 131.71V126.643Z" fill="white"/>
<path opacity="0.15" d="M112.731 136.776L56.6777 109.154V114.221L112.731 141.843V136.776Z" fill="white"/>
<path opacity="0.15" d="M112.732 146.911L44.8164 113.46V118.527L112.732 151.978V146.911Z" fill="white"/>
<path d="M119.865 135.443C119.865 140.205 123.254 145.692 127.401 147.749C131.549 149.806 134.938 147.597 134.938 142.872C134.938 138.11 131.549 132.624 127.401 130.566C123.21 128.509 119.865 130.719 119.865 135.443Z" fill="url(#paint9_radial_525_5897)"/>
<path opacity="0.3" d="M158.84 167.979L291.504 233.357L291.549 291L170.568 231.376L158.884 234.424L158.84 167.979Z" fill="url(#paint10_linear_525_5897)"/>
<path d="M252.932 243.072V227.413L303.01 252.101V267.76L252.932 243.072Z" fill="url(#paint11_radial_525_5897)"/>
<path opacity="0.15" d="M192.955 198.801L222.03 213.126V218.193L192.955 203.868V198.801Z" fill="white"/>
<path opacity="0.15" d="M192.955 208.936L245.441 234.805V239.872L192.955 214.041V208.936Z" fill="white"/>
<path opacity="0.15" d="M192.955 219.107L260.87 252.558V257.625L192.955 224.175V219.107Z" fill="white"/>
<path d="M185.819 200.554C185.819 205.316 182.474 207.488 178.282 205.43C174.135 203.373 170.746 197.849 170.746 193.124C170.746 188.362 174.091 186.19 178.282 188.248C182.429 190.305 185.774 195.829 185.819 200.554Z" fill="url(#paint12_radial_525_5897)"/>
<path opacity="0.2" d="M86.912 52.0451L67.8262 42.6347V37.1484L86.912 46.5588C88.4728 47.3208 90.747 48.8829 92.6645 51.2831C94.7604 53.8357 96.232 57.0741 96.232 60.5792C96.232 64.4652 95.0725 66.675 92.8875 67.2846C90.8362 67.856 88.3836 66.8655 86.912 66.1416L79.0636 62.2555L79.019 62.2174C78.3501 61.8745 77.2799 61.5316 76.4326 61.7602C75.7191 61.9507 74.9611 62.5222 74.9611 64.6938C74.9611 66.8655 75.7637 68.1608 76.388 68.9609C77.1907 69.9515 78.261 70.6372 78.9299 70.942L79.019 70.9801L103.01 82.8288V88.3151L79.1528 76.5425C77.5029 75.8187 75.1394 74.2566 73.0882 71.8183C70.8585 69.1133 69.3423 65.7225 69.3423 61.9507C69.3423 58.1789 70.8585 56.274 73.0436 55.7406C75.0948 55.2453 77.4583 55.9692 79.1082 56.8074L86.8674 60.6554C87.9822 61.2268 88.8295 61.4554 89.4092 61.303C89.8552 61.1887 90.6578 60.6554 90.6578 57.8742C90.6578 56.0454 89.9889 54.8644 89.32 54.1024C88.562 53.0737 87.5809 52.3498 86.912 52.0451Z" fill="white"/>
<path d="M71.3498 41.4528C71.3498 46.3675 67.9607 48.6915 63.8136 46.6723C59.6664 44.615 56.2773 38.9763 56.2773 34.0235C56.2773 29.1088 59.6664 26.7847 63.8136 28.804C67.9607 30.8613 71.3498 36.538 71.3498 41.4528Z" fill="url(#paint13_radial_525_5897)"/>
<path d="M112.821 90.2194C112.821 95.1341 109.431 97.4581 105.284 95.4389C101.137 93.3816 97.748 87.7429 97.748 82.7901C97.748 77.8754 101.137 75.5513 105.284 77.5706C109.431 79.6279 112.821 85.3046 112.821 90.2194Z" fill="url(#paint14_radial_525_5897)"/>
<path opacity="0.2" d="M150.635 275.76C127.045 249.815 144.125 240.481 150.635 255.644C157.146 246.881 174.225 273.093 150.635 275.76Z" fill="url(#paint15_linear_525_5897)"/>
<defs>
<linearGradient id="paint0_linear_525_5897" x1="316.762" y1="63.4894" x2="211.102" y2="189.66" gradientUnits="userSpaceOnUse">
<stop stop-color="white"/>
<stop offset="1" stop-color="white" stop-opacity="0"/>
</linearGradient>
<linearGradient id="paint1_linear_525_5897" x1="303.974" y1="26.3989" x2="198.313" y2="152.569" gradientUnits="userSpaceOnUse">
<stop stop-color="white"/>
<stop offset="1" stop-color="white" stop-opacity="0"/>
</linearGradient>
<linearGradient id="paint2_linear_525_5897" x1="189.37" y1="59.9263" x2="83.71" y2="186.097" gradientUnits="userSpaceOnUse">
<stop stop-color="white"/>
<stop offset="1" stop-color="white" stop-opacity="0"/>
</linearGradient>
<linearGradient id="paint3_linear_525_5897" x1="304.421" y1="196.32" x2="198.76" y2="322.49" gradientUnits="userSpaceOnUse">
<stop stop-color="white"/>
<stop offset="1" stop-color="white" stop-opacity="0"/>
</linearGradient>
<linearGradient id="paint4_linear_525_5897" x1="107.181" y1="170.19" x2="100.199" y2="237.015" gradientUnits="userSpaceOnUse">
<stop stop-color="white"/>
<stop offset="1" stop-color="white" stop-opacity="0"/>
</linearGradient>
<linearGradient id="paint5_linear_525_5897" x1="99.3441" y1="165.321" x2="102.115" y2="236.817" gradientUnits="userSpaceOnUse">
<stop stop-color="white"/>
<stop offset="1" stop-color="white" stop-opacity="0"/>
</linearGradient>
<radialGradient id="paint6_radial_525_5897" cx="0" cy="0" r="1" gradientUnits="userSpaceOnUse" gradientTransform="translate(100.468 222.289) rotate(90) scale(9.36733 7.53623)">
<stop stop-color="#1C6D0F"/>
<stop offset="1" stop-color="#34EE30"/>
</radialGradient>
<linearGradient id="paint7_linear_525_5897" x1="117.083" y1="105.153" x2="58.421" y2="159.666" gradientUnits="userSpaceOnUse">
<stop stop-color="white"/>
<stop offset="1" stop-color="white" stop-opacity="0"/>
</linearGradient>
<radialGradient id="paint8_radial_525_5897" cx="0" cy="0" r="1" gradientUnits="userSpaceOnUse" gradientTransform="translate(25.039 90.8862) rotate(90) scale(20.1733 25.039)">
<stop stop-color="#1C6D0F"/>
<stop offset="1" stop-color="#34EE30"/>
</radialGradient>
<radialGradient id="paint9_radial_525_5897" cx="0" cy="0" r="1" gradientUnits="userSpaceOnUse" gradientTransform="translate(127.401 139.158) rotate(90) scale(9.36179 7.53623)">
<stop stop-color="#1C6D0F"/>
<stop offset="1" stop-color="#34EE30"/>
</radialGradient>
<linearGradient id="paint10_linear_525_5897" x1="217.257" y1="170.362" x2="227.909" y2="287.152" gradientUnits="userSpaceOnUse">
<stop stop-color="white"/>
<stop offset="1" stop-color="white" stop-opacity="0"/>
</linearGradient>
<radialGradient id="paint11_radial_525_5897" cx="0" cy="0" r="1" gradientUnits="userSpaceOnUse" gradientTransform="translate(277.971 247.586) rotate(90) scale(20.1733 25.039)">
<stop stop-color="#1C6D0F"/>
<stop offset="1" stop-color="#34EE30"/>
</radialGradient>
<radialGradient id="paint12_radial_525_5897" cx="0" cy="0" r="1" gradientUnits="userSpaceOnUse" gradientTransform="translate(178.282 196.839) rotate(90) scale(9.36734 7.53623)">
<stop stop-color="#1C6D0F"/>
<stop offset="1" stop-color="#34EE30"/>
</radialGradient>
<radialGradient id="paint13_radial_525_5897" cx="0" cy="0" r="1" gradientUnits="userSpaceOnUse" gradientTransform="translate(63.8136 37.7381) rotate(90) scale(9.66196 7.53623)">
<stop stop-color="#1C6D0F"/>
<stop offset="1" stop-color="#34EE30"/>
</radialGradient>
<radialGradient id="paint14_radial_525_5897" cx="0" cy="0" r="1" gradientUnits="userSpaceOnUse" gradientTransform="translate(105.284 86.5047) rotate(90) scale(9.66196 7.53623)">
<stop stop-color="#1C6D0F"/>
<stop offset="1" stop-color="#34EE30"/>
</radialGradient>
<linearGradient id="paint15_linear_525_5897" x1="155.623" y1="256.628" x2="140.552" y2="271.868" gradientUnits="userSpaceOnUse">
<stop stop-color="white"/>
<stop offset="1" stop-color="white" stop-opacity="0"/>
</linearGradient>
</defs>
</svg>
