<svg width="103" height="100" viewBox="0 0 103 100" fill="none" xmlns="http://www.w3.org/2000/svg">
<path fill-rule="evenodd" clip-rule="evenodd" d="M38.625 6.25C38.625 4.5924 39.3032 3.00269 40.5105 1.83058C41.7178 0.65848 43.3552 0 45.0625 0L57.9375 0C59.6448 0 61.2822 0.65848 62.4895 1.83058C63.6968 3.00269 64.375 4.5924 64.375 6.25C64.375 7.9076 63.6968 9.49732 62.4895 10.6694C61.2822 11.8415 59.6448 12.5 57.9375 12.5V12.9375C64.3956 13.8355 70.5737 16.0922 76.0397 19.55L81.885 13.875C82.327 13.4145 82.86 13.0451 83.4523 12.7889C84.0445 12.5327 84.6839 12.3949 85.3321 12.3838C85.9804 12.3727 86.6243 12.4885 87.2255 12.7242C87.8267 12.96 88.3728 13.3109 88.8313 13.756C89.2898 14.2011 89.6512 14.7313 89.894 15.315C90.1369 15.8987 90.2561 16.5239 90.2447 17.1533C90.2332 17.7827 90.0913 18.4034 89.8275 18.9784C89.5636 19.5534 89.1831 20.0709 88.7087 20.5L83.5587 25.5C90.6808 32.5027 95.1631 41.6321 96.2813 51.4133C97.3995 61.1944 95.0884 71.056 89.7213 79.4045C84.3542 87.753 76.2447 94.1009 66.7031 97.4224C57.1614 100.744 46.7449 100.845 37.1367 97.7097C27.5285 94.5743 19.2897 88.3853 13.7516 80.1427C8.21349 71.9002 5.6995 62.0856 6.61584 52.2846C7.53217 42.4837 11.8253 33.269 18.8016 26.1293C25.7779 18.9896 35.0298 14.342 45.0625 12.9375V12.5C43.3552 12.5 41.7178 11.8415 40.5105 10.6694C39.3032 9.49732 38.625 7.9076 38.625 6.25ZM86.9062 56.25C86.9062 65.3668 83.1759 74.1102 76.536 80.5568C69.896 87.0034 60.8903 90.625 51.5 90.625C42.1097 90.625 33.1039 87.0034 26.464 80.5568C19.824 74.1102 16.0937 65.3668 16.0937 56.25C16.0937 47.1332 19.824 38.3898 26.464 31.9432C33.1039 25.4966 42.1097 21.875 51.5 21.875C60.8903 21.875 69.896 25.4966 76.536 31.9432C83.1759 38.3898 86.9062 47.1332 86.9062 56.25ZM56.3281 35.9375C56.3281 34.6943 55.8194 33.502 54.914 32.6229C54.0085 31.7439 52.7805 31.25 51.5 31.25C50.2195 31.25 48.9914 31.7439 48.086 32.6229C47.1805 33.502 46.6719 34.6943 46.6719 35.9375V58.1875L48.0881 59.5625L62.5982 73.65C63.0402 74.1105 63.5733 74.4799 64.1655 74.7361C64.7578 74.9923 65.3971 75.1301 66.0454 75.1412C66.6936 75.1523 67.3376 75.0365 67.9388 74.8008C68.54 74.565 69.0861 74.2141 69.5445 73.769C70.003 73.3239 70.3644 72.7937 70.6073 72.21C70.8501 71.6263 70.9694 71.0011 70.9579 70.3717C70.9465 69.7423 70.8046 69.1216 70.5407 68.5466C70.2768 67.9716 69.8963 67.4541 69.422 67.025L56.3281 54.3063V35.9375Z" fill="url(#paint0_radial_169_3819)"/>
<ellipse cx="51" cy="58" rx="27" ry="28" fill="#090B32"/>
<path d="M51.5 81.1666C65.0773 81.1666 76.0833 70.3472 76.0833 56.9999C76.0833 43.6527 65.0773 32.8333 51.5 32.8333C37.9226 32.8333 26.9166 43.6527 26.9166 56.9999C26.9166 70.3472 37.9226 81.1666 51.5 81.1666Z" stroke="url(#paint1_radial_169_3819)" stroke-width="1.5" stroke-linecap="round" stroke-linejoin="round"/>
<path d="M58.875 48.5415C57.191 46.8861 54.2263 45.7358 51.5 45.6633M51.5 45.6633C48.255 45.5763 45.3542 47.019 45.3542 50.9582C45.3542 58.2082 58.875 54.5832 58.875 61.8332C58.875 65.9681 55.276 67.7443 51.5 67.6114M51.5 45.6633V41.2915M44.125 64.2498C45.7082 66.3282 48.6557 67.5123 51.5 67.6114M51.5 67.6114V72.7082" stroke="url(#paint2_radial_169_3819)" stroke-width="1.5" stroke-linecap="round" stroke-linejoin="round"/>
<defs>
<radialGradient id="paint0_radial_169_3819" cx="0" cy="0" r="1" gradientUnits="userSpaceOnUse" gradientTransform="translate(51.4938 49.9948) rotate(90) scale(49.9948 45.0626)">
<stop stop-color="#1C6D0F"/>
<stop offset="1" stop-color="#34EE30"/>
</radialGradient>
<radialGradient id="paint1_radial_169_3819" cx="0" cy="0" r="1" gradientUnits="userSpaceOnUse" gradientTransform="translate(51.5 56.9999) rotate(90) scale(24.1667 24.5833)">
<stop stop-color="#1C6D0F"/>
<stop offset="1" stop-color="#34EE30"/>
</radialGradient>
<radialGradient id="paint2_radial_169_3819" cx="0" cy="0" r="1" gradientUnits="userSpaceOnUse" gradientTransform="translate(51.5 56.9998) rotate(90) scale(15.7083 7.375)">
<stop stop-color="#1C6D0F"/>
<stop offset="1" stop-color="#34EE30"/>
</radialGradient>
</defs>
</svg>
