<svg width="112" height="86" viewBox="0 0 112 86" fill="none" xmlns="http://www.w3.org/2000/svg">
<path d="M59.5418 15.3278C59.7502 12.5874 60.7033 9.9451 62.3081 7.65885C63.9128 5.3726 66.1145 3.52052 68.6981 2.28342C71.2816 1.04632 74.1588 0.466463 77.0488 0.600453C79.9389 0.734443 82.7429 1.5777 85.1873 3.04791C85.4667 3.22155 85.6918 3.46345 85.8388 3.74821C85.9858 4.03297 86.0493 4.35006 86.0227 4.66619C85.9961 4.98231 85.8803 5.28579 85.6874 5.54473C85.4946 5.80367 85.2319 6.00852 84.9269 6.13776C80.6777 7.95313 77.0708 10.8948 74.5393 14.6094C72.0078 18.3239 70.6595 22.6535 70.6562 27.0781C70.6562 27.5945 70.6562 28.111 70.712 28.6186C70.7377 28.9394 70.6705 29.2608 70.5177 29.548C70.365 29.8353 70.1325 30.0774 69.8453 30.2482C69.5582 30.4191 69.2274 30.5122 68.8886 30.5175C68.5498 30.5228 68.2159 30.4401 67.923 30.2783C65.1835 28.7903 62.943 26.5971 61.46 23.9517C59.9771 21.3064 59.3121 18.3167 59.5418 15.3278ZM111.562 60.8942C111.569 62.912 110.98 64.8913 109.863 66.6076C108.746 68.324 107.144 69.7088 105.241 70.6051L105.036 70.6934L86.9862 77.9943C86.8078 78.0689 86.6227 78.128 86.433 78.1708L56.683 85.2333C56.3884 85.3053 56.0855 85.3424 55.7812 85.3437H7.4375C5.46495 85.3437 3.5732 84.5996 2.17839 83.2751C0.783592 81.9507 0 80.1543 0 78.2812V60.6249C0 58.7519 0.783592 56.9555 2.17839 55.631C3.5732 54.3065 5.46495 53.5624 7.4375 53.5624H20.7739L31.2886 43.5734C32.6674 42.2583 34.3069 41.2157 36.1125 40.5058C37.918 39.7959 39.8538 39.4328 41.808 39.4374H65.0781C67.0424 39.4372 68.9813 39.8592 70.7494 40.6718C72.5175 41.4843 74.0691 42.6664 75.2877 44.1293C76.5063 45.5922 77.3604 47.2981 77.786 49.119C78.2116 50.94 78.1976 52.8288 77.7451 54.6439L97.1942 50.3976C98.8873 49.9718 100.661 49.9209 102.378 50.2488C104.095 50.5767 105.71 51.2746 107.098 52.2887C108.486 53.3029 109.611 54.6062 110.385 56.0982C111.159 57.5902 111.562 59.231 111.562 60.8942ZM104.125 60.8942C104.124 60.3103 103.982 59.7344 103.709 59.2112C103.436 58.688 103.04 58.2315 102.552 57.8772C102.063 57.5228 101.495 57.2802 100.891 57.168C100.288 57.0559 99.6655 57.0773 99.0722 57.2305L98.928 57.2658L67.7835 64.0679C67.5103 64.1259 67.2313 64.1554 66.9514 64.1562H52.0625C51.0762 64.1562 50.1303 63.7842 49.4329 63.1219C48.7355 62.4597 48.3438 61.5615 48.3438 60.6249C48.3438 59.6884 48.7355 58.7902 49.4329 58.128C50.1303 57.4657 51.0762 57.0937 52.0625 57.0937H65.0781C66.5575 57.0937 67.9763 56.5356 69.0225 55.5423C70.0686 54.5489 70.6562 53.2016 70.6562 51.7968C70.6562 50.392 70.0686 49.0447 69.0225 48.0514C67.9763 47.058 66.5575 46.4999 65.0781 46.4999H41.808C40.831 46.497 39.863 46.6785 38.9605 47.0339C38.0579 47.3893 37.2388 47.9115 36.5507 48.5701L26.0312 58.5548V78.2812H55.3164L84.3366 71.3908L102.001 64.2489C102.644 63.9272 103.182 63.4445 103.556 62.8531C103.93 62.2618 104.127 61.5843 104.125 60.8942ZM78.0938 27.0781C78.0938 30.2209 79.0752 33.2932 80.914 35.9064C82.7528 38.5196 85.3664 40.5564 88.4242 41.7591C91.482 42.9618 94.8467 43.2765 98.0928 42.6634C101.339 42.0502 104.321 40.5368 106.661 38.3144C109.001 36.0921 110.595 33.2607 111.241 30.1782C111.887 27.0957 111.555 23.9006 110.289 20.997C109.022 18.0934 106.877 15.6116 104.125 13.8655C101.373 12.1194 98.1379 11.1874 94.8281 11.1874C90.3899 11.1874 86.1334 12.8616 82.9951 15.8417C79.8568 18.8218 78.0938 22.8636 78.0938 27.0781Z" fill="url(#paint0_radial_169_3815)"/>
<defs>
<radialGradient id="paint0_radial_169_3815" cx="0" cy="0" r="1" gradientUnits="userSpaceOnUse" gradientTransform="translate(55.7813 42.9626) rotate(90) scale(42.3811 55.7813)">
<stop stop-color="#1C6D0F"/>
<stop offset="1" stop-color="#34EE30"/>
</radialGradient>
</defs>
</svg>
