<svg width="137" height="144" viewBox="0 0 137 144" fill="none" xmlns="http://www.w3.org/2000/svg">
<g filter="url(#filter0_b_169_3784)">
<path d="M10 70.1644C10 37.5796 36.4152 11.1644 69 11.1644V11.1644C101.585 11.1644 128 37.5796 128 70.1644V70.1644C128 102.749 101.585 129.164 69 129.164V129.164C36.4152 129.164 10 102.749 10 70.1644V70.1644Z" fill="url(#paint0_radial_169_3784)"/>
<path d="M69 128.664C36.6913 128.664 10.5 102.473 10.5 70.1644C10.5 37.8558 36.6913 11.6644 69 11.6644C101.309 11.6644 127.5 37.8558 127.5 70.1644C127.5 102.473 101.309 128.664 69 128.664Z" stroke="url(#paint1_radial_169_3784)"/>
<path d="M69 128.664C36.6913 128.664 10.5 102.473 10.5 70.1644C10.5 37.8558 36.6913 11.6644 69 11.6644C101.309 11.6644 127.5 37.8558 127.5 70.1644C127.5 102.473 101.309 128.664 69 128.664Z" stroke="url(#paint2_radial_169_3784)"/>
<path d="M69 128.664C36.6913 128.664 10.5 102.473 10.5 70.1644C10.5 37.8558 36.6913 11.6644 69 11.6644C101.309 11.6644 127.5 37.8558 127.5 70.1644C127.5 102.473 101.309 128.664 69 128.664Z" stroke="url(#paint3_radial_169_3784)"/>
</g>
<g filter="url(#filter1_f_169_3784)">
<path d="M124 72C124 104.585 99.1518 131 68.5 131C37.8482 131 13 104.585 13 72C13 39.4152 37.8482 13 68.5 13C99.1518 13 124 39.4152 124 72Z" fill="url(#paint4_radial_169_3784)" fill-opacity="0.2"/>
</g>
<mask id="mask0_169_3784" style="mask-type:luminance" maskUnits="userSpaceOnUse" x="35" y="36" width="64" height="64">
<path d="M85.1 44.8H51.175C46.75 44.8 37.9 47.75 37.9 56.6C37.9 65.45 46.75 68.4 51.175 68.4H83.625C88.05 68.4 96.9 71.35 96.9 80.2C96.9 89.05 88.05 92 83.625 92H49.7" stroke="white" stroke-width="4" stroke-linecap="round" stroke-linejoin="round"/>
<path d="M91 50.7C92.5648 50.7 94.0655 50.0784 95.172 48.972C96.2784 47.8655 96.9 46.3648 96.9 44.8C96.9 43.2352 96.2784 41.7346 95.172 40.6281C94.0655 39.5216 92.5648 38.9 91 38.9C89.4353 38.9 87.9346 39.5216 86.8281 40.6281C85.7216 41.7346 85.1 43.2352 85.1 44.8C85.1 46.3648 85.7216 47.8655 86.8281 48.972C87.9346 50.0784 89.4353 50.7 91 50.7ZM43.8 97.9C45.3648 97.9 46.8655 97.2784 47.972 96.172C49.0784 95.0655 49.7 93.5648 49.7 92C49.7 90.4353 49.0784 88.9346 47.972 87.8281C46.8655 86.7216 45.3648 86.1 43.8 86.1C42.2352 86.1 40.7346 86.7216 39.6281 87.8281C38.5216 88.9346 37.9 90.4353 37.9 92C37.9 93.5648 38.5216 95.0655 39.6281 96.172C40.7346 97.2784 42.2352 97.9 43.8 97.9Z" fill="white" stroke="white" stroke-width="4" stroke-linejoin="round"/>
</mask>
<g mask="url(#mask0_169_3784)">
<path d="M32 33H102.8V103.8H32V33Z" fill="url(#paint5_radial_169_3784)"/>
</g>
<defs>
<filter id="filter0_b_169_3784" x="5" y="6.16443" width="128" height="128" filterUnits="userSpaceOnUse" color-interpolation-filters="sRGB">
<feFlood flood-opacity="0" result="BackgroundImageFix"/>
<feGaussianBlur in="BackgroundImageFix" stdDeviation="2.5"/>
<feComposite in2="SourceAlpha" operator="in" result="effect1_backgroundBlur_169_3784"/>
<feBlend mode="normal" in="SourceGraphic" in2="effect1_backgroundBlur_169_3784" result="shape"/>
</filter>
<filter id="filter1_f_169_3784" x="0.0454655" y="0.0454655" width="136.909" height="143.909" filterUnits="userSpaceOnUse" color-interpolation-filters="sRGB">
<feFlood flood-opacity="0" result="BackgroundImageFix"/>
<feBlend mode="normal" in="SourceGraphic" in2="BackgroundImageFix" result="shape"/>
<feGaussianBlur stdDeviation="6.47727" result="effect1_foregroundBlur_169_3784"/>
</filter>
<radialGradient id="paint0_radial_169_3784" cx="0" cy="0" r="1" gradientUnits="userSpaceOnUse" gradientTransform="translate(19.8708 11.1644) rotate(48.0195) scale(176.415 128.144)">
<stop stop-color="white" stop-opacity="0.36"/>
<stop offset="1" stop-color="white" stop-opacity="0"/>
</radialGradient>
<radialGradient id="paint1_radial_169_3784" cx="0" cy="0" r="1" gradientUnits="userSpaceOnUse" gradientTransform="translate(-52.8299 23.2361) rotate(35.1112) scale(136.041 80.3634)">
<stop stop-color="white"/>
<stop offset="1" stop-color="white" stop-opacity="0.06"/>
</radialGradient>
<radialGradient id="paint2_radial_169_3784" cx="0" cy="0" r="1" gradientUnits="userSpaceOnUse" gradientTransform="translate(162.546 90.137) rotate(161.34) scale(98.6195 66.795)">
<stop stop-color="#8470FF"/>
<stop offset="1" stop-color="#865CFF" stop-opacity="0"/>
</radialGradient>
<radialGradient id="paint3_radial_169_3784" cx="0" cy="0" r="1" gradientUnits="userSpaceOnUse" gradientTransform="translate(70.2847 -15.8041) rotate(47.2897) scale(65.9415 47.3867)">
<stop/>
<stop offset="1" stop-color="white" stop-opacity="0"/>
</radialGradient>
<radialGradient id="paint4_radial_169_3784" cx="0" cy="0" r="1" gradientUnits="userSpaceOnUse" gradientTransform="translate(68.5 13) rotate(90) scale(87.4388 82.2619)">
<stop stop-color="white"/>
<stop offset="1" stop-color="white" stop-opacity="0"/>
</radialGradient>
<radialGradient id="paint5_radial_169_3784" cx="0" cy="0" r="1" gradientUnits="userSpaceOnUse" gradientTransform="translate(67.4 68.4) rotate(90) scale(35.4)">
<stop stop-color="#1C6D0F"/>
<stop offset="1" stop-color="#34EE30"/>
</radialGradient>
</defs>
</svg>
