<svg width="1053" height="781" viewBox="0 0 1053 781" fill="none" xmlns="http://www.w3.org/2000/svg">
<g filter="url(#filter0_f_169_3492)">
<ellipse cx="972.486" cy="390.5" rx="149.521" ry="240.333" transform="rotate(-90 972.486 390.5)" fill="#3C459A" fill-opacity="0.5"/>
</g>
<mask id="mask0_169_3492" style="mask-type:alpha" maskUnits="userSpaceOnUse" x="0" y="29" width="1947" height="723">
<rect y="29" width="1947" height="723" fill="url(#paint0_radial_169_3492)"/>
</mask>
<g mask="url(#mask0_169_3492)">
<rect x="250.062" y="40.9583" width="95.1659" height="95.1659" stroke="white" stroke-width="1.20463"/>
<rect x="345.228" y="40.9583" width="95.1659" height="95.1659" stroke="white" stroke-width="1.20463"/>
<rect x="440.394" y="40.9583" width="95.1659" height="95.1659" stroke="white" stroke-width="1.20463"/>
<rect x="535.559" y="40.9583" width="95.1659" height="95.1659" stroke="white" stroke-width="1.20463"/>
<rect x="630.725" y="40.9583" width="95.1659" height="95.1659" stroke="white" stroke-width="1.20463"/>
<rect x="725.891" y="40.9583" width="95.1659" height="95.1659" stroke="white" stroke-width="1.20463"/>
<rect x="821.057" y="40.9583" width="95.1659" height="95.1659" fill="white" fill-opacity="0.25" stroke="white" stroke-width="1.20463"/>
<rect x="916.223" y="40.9583" width="95.1659" height="95.1659" stroke="white" stroke-width="1.20463"/>
<rect x="1011.39" y="40.9583" width="95.1659" height="95.1659" stroke="white" stroke-width="1.20463"/>
<rect x="250.062" y="136.124" width="95.1659" height="95.1659" stroke="white" stroke-width="1.20463"/>
<rect x="345.228" y="136.124" width="95.1659" height="95.1659" stroke="white" stroke-width="1.20463"/>
<rect x="440.394" y="136.124" width="95.1659" height="95.1659" stroke="white" stroke-width="1.20463"/>
<rect x="535.559" y="136.124" width="95.1659" height="95.1659" stroke="white" stroke-width="1.20463"/>
<rect x="630.725" y="136.124" width="95.1659" height="95.1659" stroke="white" stroke-width="1.20463"/>
<rect x="725.891" y="136.124" width="95.1659" height="95.1659" stroke="white" stroke-width="1.20463"/>
<rect x="821.057" y="136.124" width="95.1659" height="95.1659" stroke="white" stroke-width="1.20463"/>
<rect x="916.223" y="136.124" width="95.1659" height="95.1659" stroke="white" stroke-width="1.20463"/>
<rect x="1011.39" y="136.124" width="95.1659" height="95.1659" stroke="white" stroke-width="1.20463"/>
<rect x="250.062" y="231.29" width="95.1659" height="95.1659" stroke="white" stroke-width="1.20463"/>
<rect x="345.228" y="231.29" width="95.1659" height="95.1659" stroke="white" stroke-width="1.20463"/>
<rect x="440.394" y="231.29" width="95.1659" height="95.1659" stroke="white" stroke-width="1.20463"/>
<rect x="535.559" y="231.29" width="95.1659" height="95.1659" stroke="white" stroke-width="1.20463"/>
<rect x="630.725" y="231.29" width="95.1659" height="95.1659" fill="white" fill-opacity="0.25" stroke="white" stroke-width="1.20463"/>
<rect x="725.891" y="231.29" width="95.1659" height="95.1659" stroke="white" stroke-width="1.20463"/>
<rect x="821.057" y="231.29" width="95.1659" height="95.1659" fill="white" fill-opacity="0.25" stroke="white" stroke-width="1.20463"/>
<rect x="916.223" y="231.29" width="95.1659" height="95.1659" stroke="white" stroke-width="1.20463"/>
<rect x="1011.39" y="231.29" width="95.1659" height="95.1659" stroke="white" stroke-width="1.20463"/>
<rect x="250.062" y="326.456" width="95.1659" height="95.1659" stroke="white" stroke-width="1.20463"/>
<rect x="345.228" y="326.456" width="95.1659" height="95.1659" stroke="white" stroke-width="1.20463"/>
<rect x="440.394" y="326.456" width="95.1659" height="95.1659" stroke="white" stroke-width="1.20463"/>
<rect x="535.559" y="326.456" width="95.1659" height="95.1659" stroke="white" stroke-width="1.20463"/>
<rect x="630.725" y="326.456" width="95.1659" height="95.1659" stroke="white" stroke-width="1.20463"/>
<rect x="725.891" y="326.456" width="95.1659" height="95.1659" stroke="white" stroke-width="1.20463"/>
<rect x="821.057" y="326.456" width="95.1659" height="95.1659" stroke="white" stroke-width="1.20463"/>
<rect x="916.223" y="326.456" width="95.1659" height="95.1659" stroke="white" stroke-width="1.20463"/>
<rect x="1011.39" y="326.456" width="95.1659" height="95.1659" stroke="white" stroke-width="1.20463"/>
<rect x="250.062" y="421.622" width="95.1659" height="95.1659" stroke="white" stroke-width="1.20463"/>
<rect x="345.228" y="421.622" width="95.1659" height="95.1659" stroke="white" stroke-width="1.20463"/>
<rect x="440.394" y="421.622" width="95.1659" height="95.1659" stroke="white" stroke-width="1.20463"/>
<rect x="535.559" y="421.622" width="95.1659" height="95.1659" fill="white" fill-opacity="0.25" stroke="white" stroke-width="1.20463"/>
<rect x="630.725" y="421.622" width="95.1659" height="95.1659" stroke="white" stroke-width="1.20463"/>
<rect x="725.891" y="421.622" width="95.1659" height="95.1659" stroke="white" stroke-width="1.20463"/>
<rect x="821.057" y="421.622" width="95.1659" height="95.1659" stroke="white" stroke-width="1.20463"/>
<rect x="916.223" y="421.622" width="95.1659" height="95.1659" stroke="white" stroke-width="1.20463"/>
<rect x="1011.39" y="421.622" width="95.1659" height="95.1659" stroke="white" stroke-width="1.20463"/>
<rect x="250.062" y="516.788" width="95.1659" height="95.1659" stroke="white" stroke-width="1.20463"/>
<rect x="345.228" y="516.788" width="95.1659" height="95.1659" stroke="white" stroke-width="1.20463"/>
<rect x="440.394" y="516.788" width="95.1659" height="95.1659" stroke="white" stroke-width="1.20463"/>
<rect x="535.559" y="516.788" width="95.1659" height="95.1659" stroke="white" stroke-width="1.20463"/>
<rect x="630.725" y="516.788" width="95.1659" height="95.1659" stroke="white" stroke-width="1.20463"/>
<rect x="725.891" y="516.788" width="95.1659" height="95.1659" stroke="white" stroke-width="1.20463"/>
<rect x="821.057" y="516.788" width="95.1659" height="95.1659" stroke="white" stroke-width="1.20463"/>
<rect x="916.223" y="516.788" width="95.1659" height="95.1659" stroke="white" stroke-width="1.20463"/>
<rect x="1011.39" y="516.788" width="95.1659" height="95.1659" stroke="white" stroke-width="1.20463"/>
<rect x="250.062" y="611.953" width="95.1659" height="95.1659" stroke="white" stroke-width="1.20463"/>
<rect x="345.228" y="611.953" width="95.1659" height="95.1659" stroke="white" stroke-width="1.20463"/>
<rect x="440.394" y="611.953" width="95.1659" height="95.1659" stroke="white" stroke-width="1.20463"/>
<rect x="535.559" y="611.953" width="95.1659" height="95.1659" stroke="white" stroke-width="1.20463"/>
<rect x="630.725" y="611.953" width="95.1659" height="95.1659" stroke="white" stroke-width="1.20463"/>
<rect x="725.891" y="611.953" width="95.1659" height="95.1659" stroke="white" stroke-width="1.20463"/>
<rect x="821.057" y="611.953" width="95.1659" height="95.1659" stroke="white" stroke-width="1.20463"/>
<rect x="916.223" y="611.953" width="95.1659" height="95.1659" stroke="white" stroke-width="1.20463"/>
<rect x="1011.39" y="611.953" width="95.1659" height="95.1659" stroke="white" stroke-width="1.20463"/>
</g>
<defs>
<filter id="filter0_f_169_3492" x="491.227" y="0.0527344" width="962.518" height="780.895" filterUnits="userSpaceOnUse" color-interpolation-filters="sRGB">
<feFlood flood-opacity="0" result="BackgroundImageFix"/>
<feBlend mode="normal" in="SourceGraphic" in2="BackgroundImageFix" result="shape"/>
<feGaussianBlur stdDeviation="120.463" result="effect1_foregroundBlur_169_3492"/>
</filter>
<radialGradient id="paint0_radial_169_3492" cx="0" cy="0" r="1" gradientUnits="userSpaceOnUse" gradientTransform="translate(973.5 390.5) rotate(90) scale(445.648 1200.11)">
<stop stop-color="#D9D9D9" stop-opacity="0.2"/>
<stop offset="0.802083" stop-color="#D9D9D9" stop-opacity="0"/>
</radialGradient>
</defs>
</svg>
