<svg width="920" height="511" viewBox="0 0 920 511" fill="none" xmlns="http://www.w3.org/2000/svg">
<g filter="url(#filter0_f_374_2452)">
<ellipse cx="340.621" cy="127.127" rx="142.749" ry="142.749" transform="rotate(-90 340.621 127.127)" fill="#3C459A" fill-opacity="0.5"/>
</g>
<mask id="mask0_374_2452" style="mask-type:alpha" maskUnits="userSpaceOnUse" x="-237" y="-218" width="1157" height="691">
<rect x="-237" y="-218" width="1156.45" height="690.254" fill="url(#paint0_radial_374_2452)"/>
</mask>
<g mask="url(#mask0_374_2452)">
<rect x="-88.228" y="-16.2243" width="95.1659" height="95.1659" stroke="white" stroke-width="1.20463"/>
<rect x="6.93776" y="-16.2243" width="95.1659" height="95.1659" stroke="white" stroke-width="1.20463"/>
<rect x="102.104" y="-16.2243" width="95.1659" height="95.1659" stroke="white" stroke-width="1.20463"/>
<rect x="197.27" y="-16.2243" width="95.1659" height="95.1659" stroke="white" stroke-width="1.20463"/>
<rect x="292.435" y="-16.2243" width="95.1659" height="95.1659" fill="white" fill-opacity="0.25" stroke="white" stroke-width="1.20463"/>
<rect x="387.601" y="-16.2243" width="95.1659" height="95.1659" stroke="white" stroke-width="1.20463"/>
<rect x="482.767" y="-16.2243" width="95.1659" height="95.1659" fill="white" fill-opacity="0.25" stroke="white" stroke-width="1.20463"/>
<rect x="577.933" y="-16.2243" width="95.1659" height="95.1659" stroke="white" stroke-width="1.20463"/>
<rect x="673.099" y="-16.2243" width="95.1659" height="95.1659" stroke="white" stroke-width="1.20463"/>
<rect x="-88.228" y="78.9415" width="95.1659" height="95.1659" stroke="white" stroke-width="1.20463"/>
<rect x="6.93776" y="78.9415" width="95.1659" height="95.1659" stroke="white" stroke-width="1.20463"/>
<rect x="102.104" y="78.9415" width="95.1659" height="95.1659" stroke="white" stroke-width="1.20463"/>
<rect x="197.27" y="78.9415" width="95.1659" height="95.1659" stroke="white" stroke-width="1.20463"/>
<rect x="292.435" y="78.9415" width="95.1659" height="95.1659" stroke="white" stroke-width="1.20463"/>
<rect x="387.601" y="78.9415" width="95.1659" height="95.1659" stroke="white" stroke-width="1.20463"/>
<rect x="482.767" y="78.9415" width="95.1659" height="95.1659" stroke="white" stroke-width="1.20463"/>
<rect x="577.933" y="78.9415" width="95.1659" height="95.1659" stroke="white" stroke-width="1.20463"/>
<rect x="673.099" y="78.9415" width="95.1659" height="95.1659" stroke="white" stroke-width="1.20463"/>
<rect x="-88.228" y="174.107" width="95.1659" height="95.1659" stroke="white" stroke-width="1.20463"/>
<rect x="6.93776" y="174.107" width="95.1659" height="95.1659" stroke="white" stroke-width="1.20463"/>
<rect x="102.104" y="174.107" width="95.1659" height="95.1659" stroke="white" stroke-width="1.20463"/>
<rect x="197.27" y="174.107" width="95.1659" height="95.1659" fill="white" fill-opacity="0.25" stroke="white" stroke-width="1.20463"/>
<rect x="292.435" y="174.107" width="95.1659" height="95.1659" stroke="white" stroke-width="1.20463"/>
<rect x="387.601" y="174.107" width="95.1659" height="95.1659" stroke="white" stroke-width="1.20463"/>
<rect x="482.767" y="174.107" width="95.1659" height="95.1659" stroke="white" stroke-width="1.20463"/>
<rect x="577.933" y="174.107" width="95.1659" height="95.1659" stroke="white" stroke-width="1.20463"/>
<rect x="673.099" y="174.107" width="95.1659" height="95.1659" stroke="white" stroke-width="1.20463"/>
<rect x="-88.228" y="269.273" width="95.1659" height="95.1659" stroke="white" stroke-width="1.20463"/>
<rect x="6.93776" y="269.273" width="95.1659" height="95.1659" stroke="white" stroke-width="1.20463"/>
<rect x="102.104" y="269.273" width="95.1659" height="95.1659" stroke="white" stroke-width="1.20463"/>
<rect x="197.27" y="269.273" width="95.1659" height="95.1659" stroke="white" stroke-width="1.20463"/>
<rect x="292.435" y="269.273" width="95.1659" height="95.1659" stroke="white" stroke-width="1.20463"/>
<rect x="387.601" y="269.273" width="95.1659" height="95.1659" stroke="white" stroke-width="1.20463"/>
<rect x="482.767" y="269.273" width="95.1659" height="95.1659" stroke="white" stroke-width="1.20463"/>
<rect x="577.933" y="269.273" width="95.1659" height="95.1659" stroke="white" stroke-width="1.20463"/>
<rect x="673.099" y="269.273" width="95.1659" height="95.1659" stroke="white" stroke-width="1.20463"/>
<rect x="-88.228" y="364.439" width="95.1659" height="95.1659" stroke="white" stroke-width="1.20463"/>
<rect x="6.93776" y="364.439" width="95.1659" height="95.1659" stroke="white" stroke-width="1.20463"/>
<rect x="102.104" y="364.439" width="95.1659" height="95.1659" stroke="white" stroke-width="1.20463"/>
<rect x="197.27" y="364.439" width="95.1659" height="95.1659" stroke="white" stroke-width="1.20463"/>
<rect x="292.435" y="364.439" width="95.1659" height="95.1659" stroke="white" stroke-width="1.20463"/>
<rect x="387.601" y="364.439" width="95.1659" height="95.1659" stroke="white" stroke-width="1.20463"/>
<rect x="482.767" y="364.439" width="95.1659" height="95.1659" stroke="white" stroke-width="1.20463"/>
<rect x="577.933" y="364.439" width="95.1659" height="95.1659" stroke="white" stroke-width="1.20463"/>
<rect x="673.099" y="364.439" width="95.1659" height="95.1659" stroke="white" stroke-width="1.20463"/>
</g>
<defs>
<filter id="filter0_f_374_2452" x="-43.0544" y="-256.548" width="767.35" height="767.35" filterUnits="userSpaceOnUse" color-interpolation-filters="sRGB">
<feFlood flood-opacity="0" result="BackgroundImageFix"/>
<feBlend mode="normal" in="SourceGraphic" in2="BackgroundImageFix" result="shape"/>
<feGaussianBlur stdDeviation="120.463" result="effect1_foregroundBlur_374_2452"/>
</filter>
<radialGradient id="paint0_radial_374_2452" cx="0" cy="0" r="1" gradientUnits="userSpaceOnUse" gradientTransform="translate(341.223 127.127) rotate(90) scale(425.464 712.819)">
<stop stop-color="#D9D9D9" stop-opacity="0.2"/>
<stop offset="0.802083" stop-color="#D9D9D9" stop-opacity="0"/>
</radialGradient>
</defs>
</svg>
