<svg width="111" height="83" viewBox="0 0 111 83" fill="none" xmlns="http://www.w3.org/2000/svg">
<path opacity="0.6" d="M22.9328 0.699998C30.3328 0.699998 36.2328 3.39999 40.6328 8.79998C45.2328 14 47.5328 20.9 47.5328 29.5C47.5328 40.7 44.2328 51.2 37.6328 61C31.0328 70.6 22.8328 77.8 13.0328 82.6L11.2328 79C15.4328 75.8 19.1328 71.7 22.3328 66.7C25.5328 61.7 27.8328 55.5 29.2328 48.1L22.9328 46.6C15.9328 45 10.4328 42.1 6.43281 37.9C2.63281 33.5 0.732813 28.3 0.732813 22.3C0.732813 15.9 2.83281 10.7 7.03281 6.69999C11.4328 2.7 16.7328 0.699998 22.9328 0.699998ZM86.2328 0.699998C93.6328 0.699998 99.5328 3.39999 103.933 8.79998C108.533 14 110.833 20.9 110.833 29.5C110.833 40.7 107.533 51.2 100.933 61C94.3328 70.6 86.1328 77.8 76.3328 82.6L74.5328 79C78.7328 75.8 82.4328 71.7 85.6328 66.7C88.8328 61.7 91.1328 55.5 92.5328 48.1L86.2328 46.6C79.2328 45 73.7328 42.1 69.7328 37.9C65.9328 33.5 64.0328 28.3 64.0328 22.3C64.0328 15.9 66.1328 10.7 70.3328 6.69999C74.7328 2.7 80.0328 0.699998 86.2328 0.699998Z" fill="#06FFB4"/>
</svg>
