<svg width="139" height="127" viewBox="0 0 139 127" fill="none" xmlns="http://www.w3.org/2000/svg">
<g filter="url(#filter0_b_169_3770)">
<path d="M8 68C8 35.4152 34.4152 9 67 9C99.5848 9 126 35.4152 126 68C126 100.585 99.5848 127 67 127C34.4152 127 8 100.585 8 68Z" fill="url(#paint0_radial_169_3770)"/>
<path d="M8.5 68C8.5 35.6913 34.6913 9.5 67 9.5C99.3087 9.5 125.5 35.6913 125.5 68C125.5 100.309 99.3087 126.5 67 126.5C34.6913 126.5 8.5 100.309 8.5 68Z" stroke="url(#paint1_radial_169_3770)"/>
<path d="M8.5 68C8.5 35.6913 34.6913 9.5 67 9.5C99.3087 9.5 125.5 35.6913 125.5 68C125.5 100.309 99.3087 126.5 67 126.5C34.6913 126.5 8.5 100.309 8.5 68Z" stroke="url(#paint2_radial_169_3770)"/>
<path d="M8.5 68C8.5 35.6913 34.6913 9.5 67 9.5C99.3087 9.5 125.5 35.6913 125.5 68C125.5 100.309 99.3087 126.5 67 126.5C34.6913 126.5 8.5 100.309 8.5 68Z" stroke="url(#paint3_radial_169_3770)"/>
</g>
<g filter="url(#filter1_f_169_3770)">
<path d="M126 63.5C126 91.3904 100.704 114 69.5 114C38.2959 114 13 91.3904 13 63.5C13 35.6096 38.2959 13 69.5 13C100.704 13 126 35.6096 126 63.5Z" fill="url(#paint4_radial_169_3770)" fill-opacity="0.2"/>
</g>
<mask id="mask0_169_3770" style="mask-type:luminance" maskUnits="userSpaceOnUse" x="22" y="20" width="77" height="86">
<path fill-rule="evenodd" clip-rule="evenodd" d="M60.3628 63.0499V52.9093L87.5581 22.4874L96.6232 32.6281L69.4279 63.0499H60.3628Z" fill="white" stroke="white" stroke-width="4" stroke-linecap="round" stroke-linejoin="round"/>
<path d="M45.8585 63.0499H33.1674C30.7632 63.0499 28.4574 64.1183 26.7574 66.02C25.0574 67.9218 24.1023 70.5011 24.1023 73.1906C24.1023 75.88 25.0574 78.4593 26.7574 80.3611C28.4574 82.2628 30.7632 83.3312 33.1674 83.3312H87.558C89.9622 83.3312 92.268 84.3996 93.968 86.3013C95.6681 88.203 96.6231 90.7823 96.6231 93.4718C96.6231 96.1613 95.6681 98.7406 93.968 100.642C92.268 102.544 89.9622 103.612 87.558 103.612H49.4846" stroke="white" stroke-width="4" stroke-linecap="round" stroke-linejoin="round"/>
</mask>
<g mask="url(#mask0_169_3770)">
<path d="M16.8501 14.3749H103.875V111.725H16.8501V14.3749Z" fill="url(#paint5_radial_169_3770)"/>
</g>
<defs>
<filter id="filter0_b_169_3770" x="3" y="4" width="128" height="128" filterUnits="userSpaceOnUse" color-interpolation-filters="sRGB">
<feFlood flood-opacity="0" result="BackgroundImageFix"/>
<feGaussianBlur in="BackgroundImageFix" stdDeviation="2.5"/>
<feComposite in2="SourceAlpha" operator="in" result="effect1_backgroundBlur_169_3770"/>
<feBlend mode="normal" in="SourceGraphic" in2="effect1_backgroundBlur_169_3770" result="shape"/>
</filter>
<filter id="filter1_f_169_3770" x="0.0454655" y="0.0454655" width="138.909" height="126.909" filterUnits="userSpaceOnUse" color-interpolation-filters="sRGB">
<feFlood flood-opacity="0" result="BackgroundImageFix"/>
<feBlend mode="normal" in="SourceGraphic" in2="BackgroundImageFix" result="shape"/>
<feGaussianBlur stdDeviation="6.47727" result="effect1_foregroundBlur_169_3770"/>
</filter>
<radialGradient id="paint0_radial_169_3770" cx="0" cy="0" r="1" gradientUnits="userSpaceOnUse" gradientTransform="translate(17.8708 9) rotate(48.0195) scale(176.415 128.144)">
<stop stop-color="white" stop-opacity="0.36"/>
<stop offset="1" stop-color="white" stop-opacity="0"/>
</radialGradient>
<radialGradient id="paint1_radial_169_3770" cx="0" cy="0" r="1" gradientUnits="userSpaceOnUse" gradientTransform="translate(-54.8299 21.0717) rotate(35.1112) scale(136.041 80.3634)">
<stop stop-color="white"/>
<stop offset="1" stop-color="white" stop-opacity="0.06"/>
</radialGradient>
<radialGradient id="paint2_radial_169_3770" cx="0" cy="0" r="1" gradientUnits="userSpaceOnUse" gradientTransform="translate(160.546 87.9726) rotate(161.34) scale(98.6195 66.795)">
<stop stop-color="#8470FF"/>
<stop offset="1" stop-color="#865CFF" stop-opacity="0"/>
</radialGradient>
<radialGradient id="paint3_radial_169_3770" cx="0" cy="0" r="1" gradientUnits="userSpaceOnUse" gradientTransform="translate(68.2847 -17.9685) rotate(47.2897) scale(65.9415 47.3867)">
<stop/>
<stop offset="1" stop-color="white" stop-opacity="0"/>
</radialGradient>
<radialGradient id="paint4_radial_169_3770" cx="0" cy="0" r="1" gradientUnits="userSpaceOnUse" gradientTransform="translate(69.5 13) rotate(90) scale(74.8417 83.7441)">
<stop stop-color="white"/>
<stop offset="1" stop-color="white" stop-opacity="0"/>
</radialGradient>
<radialGradient id="paint5_radial_169_3770" cx="0" cy="0" r="1" gradientUnits="userSpaceOnUse" gradientTransform="translate(60.3626 63.0499) rotate(90) scale(48.675 43.5125)">
<stop stop-color="#1C6D0F"/>
<stop offset="1" stop-color="#34EE30"/>
</radialGradient>
</defs>
</svg>
