<svg width="583" height="732" viewBox="0 0 583 732" fill="none" xmlns="http://www.w3.org/2000/svg">
<path opacity="0.5" d="M420.962 255.485C355.077 221.256 300.585 253.288 290.945 327.062C289.272 339.889 300.186 356.755 313.411 363.629L528.432 475.317C541.657 482.191 552.572 476.663 550.978 462.136C541.339 378.299 486.846 289.643 420.962 255.485Z" fill="url(#paint0_linear_170_7793)"/>
<path opacity="0.5" d="M494.414 159.601C494.414 210.555 461.273 234.65 420.404 213.39C379.614 192.2 346.473 133.734 346.473 82.7803C346.473 31.8264 379.614 7.73138 420.483 28.9917C461.353 50.1812 494.414 108.718 494.414 159.601Z" fill="url(#paint1_linear_170_7793)"/>
<path opacity="0.07" d="M452.828 234.225C386.944 199.996 332.451 232.028 322.812 305.801C321.139 318.628 332.053 335.495 345.278 342.369L560.299 454.057C573.524 460.931 584.438 455.403 582.845 440.875C573.205 357.039 518.713 268.383 452.828 234.225Z" fill="url(#paint2_linear_170_7793)"/>
<path opacity="0.07" d="M526.281 138.341C526.281 189.295 493.14 213.39 452.27 192.129C411.481 170.94 378.339 112.474 378.339 61.52C378.339 10.5661 411.481 -13.529 452.35 7.73138C493.219 28.9208 526.281 87.4576 526.281 138.341Z" fill="url(#paint3_linear_170_7793)"/>
<path opacity="0.2" d="M148.34 281.494L0 205.311V274.052L148.42 350.235L148.34 281.494Z" fill="url(#paint4_linear_170_7793)"/>
<path d="M30.1145 243.863C30.1145 249.532 26.3702 252.154 21.6698 249.816C17.0491 247.406 13.2251 240.886 13.2251 235.217C13.2251 229.547 16.9695 226.925 21.6698 229.264C26.3702 231.673 30.1145 238.193 30.1145 243.863Z" fill="#38DDD3"/>
<path opacity="0.15" d="M37.7627 241.737L86.28 266.611V276.249L37.7627 251.375V241.737Z" fill="#38DDD3"/>
<path opacity="0.15" d="M38.0015 261.154L133.044 309.982V319.62L38.0015 270.793V261.154Z" fill="#38DDD3"/>
<path opacity="0.05" d="M382.562 350.802L531.619 427.339V712.866L382.562 636.399V350.802Z" fill="url(#paint5_linear_170_7793)"/>
<path opacity="0.3" d="M506.763 446.474L357.626 369.937V655.463L506.683 732L506.763 446.474ZM406.223 413.166L456.015 438.678V450.017L406.223 424.859V413.166Z" fill="url(#paint6_linear_170_7793)"/>
<path opacity="0.15" d="M372.045 550.862L491.785 612.304V621.942L372.045 560.5V550.862Z" fill="#38DDD3"/>
<path opacity="0.15" d="M380.491 573.965L483.5 626.832V636.47L380.491 583.603V573.965Z" fill="#38DDD3"/>
<path d="M465.495 526.838C465.495 504.231 450.597 478.223 432.274 468.797C413.95 459.372 399.053 470.073 399.053 492.68C399.053 515.286 413.95 541.295 432.274 550.72C450.597 560.146 465.495 549.445 465.495 526.838Z" fill="#38DDD3"/>
<path opacity="0.05" d="M196.937 120.978L345.994 197.515V483.041L196.937 406.504V120.978Z" fill="url(#paint7_linear_170_7793)"/>
<path opacity="0.3" d="M321.138 216.862L172.001 140.325V425.851L321.059 502.388L321.138 216.862ZM220.598 183.554L270.39 209.067V220.406L220.598 195.247V183.554Z" fill="url(#paint8_linear_170_7793)"/>
<path opacity="0.15" d="M186.421 320.967L306.161 382.409V392.047L186.421 330.605V320.967Z" fill="#38DDD3"/>
<path opacity="0.15" d="M194.786 344.141L297.716 397.008V406.646L194.707 353.779L194.786 344.141Z" fill="#38DDD3"/>
<path d="M279.871 297.014C279.871 274.407 264.973 248.398 246.65 238.973C228.326 229.548 213.429 240.249 213.429 262.855C213.429 285.462 228.326 311.471 246.65 320.896C264.973 330.322 279.871 319.62 279.871 297.014Z" fill="#38DDD3" fill-opacity="0.866667"/>
<path opacity="0.3" d="M279.871 456.253L42.7812 334.503L42.8609 444.419L258.998 555.398L279.95 582.965L279.871 456.253Z" fill="url(#paint9_linear_170_7793)"/>
<path d="M17.5269 377.378V347.542L106.993 393.465V423.3L17.5269 377.378Z" fill="#38DDD3"/>
<path opacity="0.15" d="M218.926 451.718L166.983 425.072V434.71L218.926 461.356V451.718Z" fill="#38DDD3"/>
<path opacity="0.15" d="M218.926 471.065L118.784 419.686V429.324L218.926 480.703V471.065Z" fill="#38DDD3"/>
<path opacity="0.15" d="M218.926 490.341L97.6724 428.048V437.686L219.005 499.979L218.926 490.341Z" fill="#38DDD3"/>
<path d="M231.752 468.372C231.752 477.443 237.806 487.86 245.215 491.687C252.625 495.514 258.679 491.262 258.679 482.191C258.679 473.12 252.625 462.702 245.215 458.876C237.727 455.049 231.672 459.301 231.752 468.372Z" fill="#38DDD3"/>
<path opacity="0.2" d="M94.0074 126.435C98.7874 128.844 102.611 134.797 102.611 139.687V161.302L118.704 169.522C123.484 171.932 127.308 177.885 127.308 182.775C127.308 187.665 123.484 189.649 118.704 187.239L102.611 179.019V200.633C102.611 205.523 98.7874 207.508 94.0074 205.098C89.2274 202.689 85.4033 196.736 85.4033 191.846V170.231L69.3106 162.01C64.5306 159.601 60.7065 153.648 60.7065 148.758C60.7065 143.868 64.5306 141.884 69.3106 144.294L85.4033 152.514V130.9C85.4033 126.01 89.2274 124.025 94.0074 126.435Z" fill="url(#paint10_linear_170_7793)"/>
<defs>
<linearGradient id="paint0_linear_170_7793" x1="692.814" y1="199.654" x2="447.652" y2="400.698" gradientUnits="userSpaceOnUse">
<stop stop-color="white"/>
<stop offset="1" stop-color="white" stop-opacity="0"/>
</linearGradient>
<linearGradient id="paint1_linear_170_7793" x1="556.431" y1="32.9595" x2="311.268" y2="234.004" gradientUnits="userSpaceOnUse">
<stop stop-color="white"/>
<stop offset="1" stop-color="white" stop-opacity="0"/>
</linearGradient>
<linearGradient id="paint2_linear_170_7793" x1="724.681" y1="178.393" x2="479.519" y2="379.438" gradientUnits="userSpaceOnUse">
<stop stop-color="white"/>
<stop offset="1" stop-color="white" stop-opacity="0"/>
</linearGradient>
<linearGradient id="paint3_linear_170_7793" x1="588.298" y1="11.6992" x2="343.135" y2="212.744" gradientUnits="userSpaceOnUse">
<stop stop-color="white"/>
<stop offset="1" stop-color="white" stop-opacity="0"/>
</linearGradient>
<linearGradient id="paint4_linear_170_7793" x1="90.9121" y1="252.007" x2="62.9709" y2="306.426" gradientUnits="userSpaceOnUse">
<stop stop-color="white"/>
<stop offset="1" stop-color="white" stop-opacity="0"/>
</linearGradient>
<linearGradient id="paint5_linear_170_7793" x1="543.666" y1="398.488" x2="389.552" y2="698.644" gradientUnits="userSpaceOnUse">
<stop stop-color="white"/>
<stop offset="1" stop-color="white" stop-opacity="0"/>
</linearGradient>
<linearGradient id="paint6_linear_170_7793" x1="518.734" y1="417.587" x2="364.62" y2="717.743" gradientUnits="userSpaceOnUse">
<stop stop-color="white"/>
<stop offset="1" stop-color="white" stop-opacity="0"/>
</linearGradient>
<linearGradient id="paint7_linear_170_7793" x1="358.036" y1="168.651" x2="203.922" y2="468.807" gradientUnits="userSpaceOnUse">
<stop stop-color="white"/>
<stop offset="1" stop-color="white" stop-opacity="0"/>
</linearGradient>
<linearGradient id="paint8_linear_170_7793" x1="333.109" y1="187.975" x2="178.995" y2="488.131" gradientUnits="userSpaceOnUse">
<stop stop-color="white"/>
<stop offset="1" stop-color="white" stop-opacity="0"/>
</linearGradient>
<linearGradient id="paint9_linear_170_7793" x1="228.168" y1="412.233" x2="116.911" y2="510.16" gradientUnits="userSpaceOnUse">
<stop stop-color="white"/>
<stop offset="1" stop-color="white" stop-opacity="0"/>
</linearGradient>
<linearGradient id="paint10_linear_170_7793" x1="110.64" y1="154.066" x2="72.7627" y2="187.67" gradientUnits="userSpaceOnUse">
<stop stop-color="white"/>
<stop offset="1" stop-color="white" stop-opacity="0"/>
</linearGradient>
</defs>
</svg>
