<svg width="1318" height="472" viewBox="0 0 1318 472" fill="none" xmlns="http://www.w3.org/2000/svg">
<g filter="url(#filter0_f_170_7624)">
<ellipse cx="343.486" cy="390.5" rx="149.521" ry="240.333" transform="rotate(-90 343.486 390.5)" fill="#3C459A" fill-opacity="0.5"/>
</g>
<mask id="mask0_170_7624" style="mask-type:alpha" maskUnits="userSpaceOnUse" x="-629" y="29" width="1947" height="723">
<rect x="-629" y="29" width="1947" height="723" fill="url(#paint0_radial_170_7624)"/>
</mask>
<g mask="url(#mask0_170_7624)">
<rect x="-93.4407" y="40.9583" width="95.1659" height="95.1659" stroke="white" stroke-width="1.20463"/>
<rect x="1.72536" y="40.9583" width="95.1659" height="95.1659" stroke="white" stroke-width="1.20463"/>
<rect x="96.8909" y="40.9583" width="95.1659" height="95.1659" stroke="white" stroke-width="1.20463"/>
<rect x="192.057" y="40.9583" width="95.1659" height="95.1659" fill="white" fill-opacity="0.25" stroke="white" stroke-width="1.20463"/>
<rect x="287.223" y="40.9583" width="95.1659" height="95.1659" stroke="white" stroke-width="1.20463"/>
<rect x="382.389" y="40.9583" width="95.1659" height="95.1659" stroke="white" stroke-width="1.20463"/>
<rect x="-93.4407" y="136.124" width="95.1659" height="95.1659" stroke="white" stroke-width="1.20463"/>
<rect x="1.72536" y="136.124" width="95.1659" height="95.1659" stroke="white" stroke-width="1.20463"/>
<rect x="96.8909" y="136.124" width="95.1659" height="95.1659" stroke="white" stroke-width="1.20463"/>
<rect x="192.057" y="136.124" width="95.1659" height="95.1659" stroke="white" stroke-width="1.20463"/>
<rect x="287.223" y="136.124" width="95.1659" height="95.1659" stroke="white" stroke-width="1.20463"/>
<rect x="382.389" y="136.124" width="95.1659" height="95.1659" stroke="white" stroke-width="1.20463"/>
<rect x="-93.4407" y="231.29" width="95.1659" height="95.1659" stroke="white" stroke-width="1.20463"/>
<rect x="1.72536" y="231.29" width="95.1659" height="95.1659" fill="white" fill-opacity="0.25" stroke="white" stroke-width="1.20463"/>
<rect x="96.8909" y="231.29" width="95.1659" height="95.1659" stroke="white" stroke-width="1.20463"/>
<rect x="192.057" y="231.29" width="95.1659" height="95.1659" fill="white" fill-opacity="0.25" stroke="white" stroke-width="1.20463"/>
<rect x="287.223" y="231.29" width="95.1659" height="95.1659" stroke="white" stroke-width="1.20463"/>
<rect x="382.389" y="231.29" width="95.1659" height="95.1659" stroke="white" stroke-width="1.20463"/>
<rect x="-93.4407" y="326.456" width="95.1659" height="95.1659" stroke="white" stroke-width="1.20463"/>
<rect x="1.72536" y="326.456" width="95.1659" height="95.1659" stroke="white" stroke-width="1.20463"/>
<rect x="96.8909" y="326.456" width="95.1659" height="95.1659" stroke="white" stroke-width="1.20463"/>
<rect x="192.057" y="326.456" width="95.1659" height="95.1659" stroke="white" stroke-width="1.20463"/>
<rect x="287.223" y="326.456" width="95.1659" height="95.1659" stroke="white" stroke-width="1.20463"/>
<rect x="382.389" y="326.456" width="95.1659" height="95.1659" stroke="white" stroke-width="1.20463"/>
<rect x="-93.4407" y="421.622" width="95.1659" height="95.1659" fill="white" fill-opacity="0.25" stroke="white" stroke-width="1.20463"/>
<rect x="1.72536" y="421.622" width="95.1659" height="95.1659" stroke="white" stroke-width="1.20463"/>
<rect x="96.8909" y="421.622" width="95.1659" height="95.1659" stroke="white" stroke-width="1.20463"/>
<rect x="192.057" y="421.622" width="95.1659" height="95.1659" stroke="white" stroke-width="1.20463"/>
<rect x="287.223" y="421.622" width="95.1659" height="95.1659" stroke="white" stroke-width="1.20463"/>
<rect x="382.389" y="421.622" width="95.1659" height="95.1659" stroke="white" stroke-width="1.20463"/>
</g>
<defs>
<filter id="filter0_f_170_7624" x="-137.773" y="0.0527344" width="962.518" height="780.894" filterUnits="userSpaceOnUse" color-interpolation-filters="sRGB">
<feFlood flood-opacity="0" result="BackgroundImageFix"/>
<feBlend mode="normal" in="SourceGraphic" in2="BackgroundImageFix" result="shape"/>
<feGaussianBlur stdDeviation="120.463" result="effect1_foregroundBlur_170_7624"/>
</filter>
<radialGradient id="paint0_radial_170_7624" cx="0" cy="0" r="1" gradientUnits="userSpaceOnUse" gradientTransform="translate(344.5 390.5) rotate(90) scale(445.648 1200.11)">
<stop stop-color="#D9D9D9" stop-opacity="0.2"/>
<stop offset="0.802083" stop-color="#D9D9D9" stop-opacity="0"/>
</radialGradient>
</defs>
</svg>
