<svg width="749" height="421" viewBox="0 0 749 421" fill="none" xmlns="http://www.w3.org/2000/svg">
<g filter="url(#filter0_f_307_19061)">
<ellipse cx="169.621" cy="37.1272" rx="142.749" ry="142.749" transform="rotate(-90 169.621 37.1272)" fill="#3C459A" fill-opacity="0.5"/>
</g>
<mask id="mask0_307_19061" style="mask-type:alpha" maskUnits="userSpaceOnUse" x="-408" y="-308" width="1157" height="691">
<rect x="-408" y="-308" width="1156.45" height="690.254" fill="url(#paint0_radial_307_19061)"/>
</mask>
<g mask="url(#mask0_307_19061)">
<rect x="-68.8957" y="-11.0578" width="95.1659" height="95.1659" stroke="white" stroke-width="1.20463"/>
<rect x="26.2703" y="-11.0578" width="95.1659" height="95.1659" stroke="white" stroke-width="1.20463"/>
<rect x="121.435" y="-11.0578" width="95.1659" height="95.1659" stroke="white" stroke-width="1.20463"/>
<rect x="216.601" y="-11.0578" width="95.1659" height="95.1659" stroke="white" stroke-width="1.20463"/>
<rect x="311.767" y="-11.0578" width="95.1659" height="95.1659" stroke="white" stroke-width="1.20463"/>
<rect x="406.933" y="-11.0578" width="95.1659" height="95.1659" stroke="white" stroke-width="1.20463"/>
<rect x="502.099" y="-11.0578" width="95.1659" height="95.1659" stroke="white" stroke-width="1.20463"/>
<rect x="-68.8957" y="84.1072" width="95.1659" height="95.1659" stroke="white" stroke-width="1.20463"/>
<rect x="26.2703" y="84.1072" width="95.1659" height="95.1659" fill="white" fill-opacity="0.25" stroke="white" stroke-width="1.20463"/>
<rect x="121.435" y="84.1072" width="95.1659" height="95.1659" stroke="white" stroke-width="1.20463"/>
<rect x="216.601" y="84.1072" width="95.1659" height="95.1659" stroke="white" stroke-width="1.20463"/>
<rect x="311.767" y="84.1072" width="95.1659" height="95.1659" stroke="white" stroke-width="1.20463"/>
<rect x="406.933" y="84.1072" width="95.1659" height="95.1659" stroke="white" stroke-width="1.20463"/>
<rect x="502.099" y="84.1072" width="95.1659" height="95.1659" stroke="white" stroke-width="1.20463"/>
<rect x="-68.8957" y="179.273" width="95.1659" height="95.1659" stroke="white" stroke-width="1.20463"/>
<rect x="26.2703" y="179.273" width="95.1659" height="95.1659" stroke="white" stroke-width="1.20463"/>
<rect x="121.435" y="179.273" width="95.1659" height="95.1659" stroke="white" stroke-width="1.20463"/>
<rect x="216.601" y="179.273" width="95.1659" height="95.1659" stroke="white" stroke-width="1.20463"/>
<rect x="311.767" y="179.273" width="95.1659" height="95.1659" stroke="white" stroke-width="1.20463"/>
<rect x="406.933" y="179.273" width="95.1659" height="95.1659" stroke="white" stroke-width="1.20463"/>
<rect x="502.099" y="179.273" width="95.1659" height="95.1659" stroke="white" stroke-width="1.20463"/>
<rect x="-68.8957" y="274.439" width="95.1659" height="95.1659" stroke="white" stroke-width="1.20463"/>
<rect x="26.2703" y="274.439" width="95.1659" height="95.1659" stroke="white" stroke-width="1.20463"/>
<rect x="121.435" y="274.439" width="95.1659" height="95.1659" stroke="white" stroke-width="1.20463"/>
<rect x="216.601" y="274.439" width="95.1659" height="95.1659" stroke="white" stroke-width="1.20463"/>
<rect x="311.767" y="274.439" width="95.1659" height="95.1659" stroke="white" stroke-width="1.20463"/>
<rect x="406.933" y="274.439" width="95.1659" height="95.1659" stroke="white" stroke-width="1.20463"/>
<rect x="502.099" y="274.439" width="95.1659" height="95.1659" stroke="white" stroke-width="1.20463"/>
</g>
<defs>
<filter id="filter0_f_307_19061" x="-214.054" y="-346.548" width="767.351" height="767.351" filterUnits="userSpaceOnUse" color-interpolation-filters="sRGB">
<feFlood flood-opacity="0" result="BackgroundImageFix"/>
<feBlend mode="normal" in="SourceGraphic" in2="BackgroundImageFix" result="shape"/>
<feGaussianBlur stdDeviation="120.463" result="effect1_foregroundBlur_307_19061"/>
</filter>
<radialGradient id="paint0_radial_307_19061" cx="0" cy="0" r="1" gradientUnits="userSpaceOnUse" gradientTransform="translate(170.223 37.1269) rotate(90) scale(425.464 712.819)">
<stop stop-color="#D9D9D9" stop-opacity="0.2"/>
<stop offset="0.802083" stop-color="#D9D9D9" stop-opacity="0"/>
</radialGradient>
</defs>
</svg>
