<svg width="1143" height="493" viewBox="0 0 1143 493" fill="none" xmlns="http://www.w3.org/2000/svg">
<g filter="url(#filter0_f_428_2222)">
<rect x="1169" y="862" width="316" height="554" transform="rotate(-180 1169 862)" fill="url(#paint0_diamond_428_2222)"/>
</g>
<g filter="url(#filter1_f_428_2222)">
<ellipse cx="972.486" cy="408.5" rx="149.521" ry="240.333" transform="rotate(-90 972.486 408.5)" fill="#3C459A" fill-opacity="0.5"/>
</g>
<mask id="mask0_428_2222" style="mask-type:alpha" maskUnits="userSpaceOnUse" x="0" y="47" width="1947" height="723">
<rect y="47" width="1947" height="723" fill="url(#paint1_radial_428_2222)"/>
</mask>
<g mask="url(#mask0_428_2222)">
<rect x="250.061" y="58.9583" width="95.1659" height="95.1659" stroke="white" stroke-width="1.20463"/>
<rect x="345.227" y="58.9583" width="95.1659" height="95.1659" stroke="white" stroke-width="1.20463"/>
<rect x="440.393" y="58.9583" width="95.1659" height="95.1659" stroke="white" stroke-width="1.20463"/>
<rect x="535.559" y="58.9583" width="95.1659" height="95.1659" stroke="white" stroke-width="1.20463"/>
<rect x="630.724" y="58.9583" width="95.1659" height="95.1659" stroke="white" stroke-width="1.20463"/>
<rect x="725.89" y="58.9583" width="95.1659" height="95.1659" stroke="white" stroke-width="1.20463"/>
<rect x="821.056" y="58.9583" width="95.1659" height="95.1659" fill="white" fill-opacity="0.25" stroke="white" stroke-width="1.20463"/>
<rect x="916.222" y="58.9583" width="95.1659" height="95.1659" stroke="white" stroke-width="1.20463"/>
<rect x="1011.39" y="58.9583" width="95.1659" height="95.1659" stroke="white" stroke-width="1.20463"/>
<rect x="250.061" y="154.124" width="95.1659" height="95.1659" stroke="white" stroke-width="1.20463"/>
<rect x="345.227" y="154.124" width="95.1659" height="95.1659" stroke="white" stroke-width="1.20463"/>
<rect x="440.393" y="154.124" width="95.1659" height="95.1659" stroke="white" stroke-width="1.20463"/>
<rect x="535.559" y="154.124" width="95.1659" height="95.1659" stroke="white" stroke-width="1.20463"/>
<rect x="630.724" y="154.124" width="95.1659" height="95.1659" stroke="white" stroke-width="1.20463"/>
<rect x="725.89" y="154.124" width="95.1659" height="95.1659" stroke="white" stroke-width="1.20463"/>
<rect x="821.056" y="154.124" width="95.1659" height="95.1659" stroke="white" stroke-width="1.20463"/>
<rect x="916.222" y="154.124" width="95.1659" height="95.1659" stroke="white" stroke-width="1.20463"/>
<rect x="1011.39" y="154.124" width="95.1659" height="95.1659" stroke="white" stroke-width="1.20463"/>
<rect x="250.061" y="249.29" width="95.1659" height="95.1659" stroke="white" stroke-width="1.20463"/>
<rect x="345.227" y="249.29" width="95.1659" height="95.1659" stroke="white" stroke-width="1.20463"/>
<rect x="440.393" y="249.29" width="95.1659" height="95.1659" stroke="white" stroke-width="1.20463"/>
<rect x="535.559" y="249.29" width="95.1659" height="95.1659" stroke="white" stroke-width="1.20463"/>
<rect x="630.724" y="249.29" width="95.1659" height="95.1659" fill="white" fill-opacity="0.25" stroke="white" stroke-width="1.20463"/>
<rect x="725.89" y="249.29" width="95.1659" height="95.1659" stroke="white" stroke-width="1.20463"/>
<rect x="821.056" y="249.29" width="95.1659" height="95.1659" fill="white" fill-opacity="0.25" stroke="white" stroke-width="1.20463"/>
<rect x="916.222" y="249.29" width="95.1659" height="95.1659" stroke="white" stroke-width="1.20463"/>
<rect x="1011.39" y="249.29" width="95.1659" height="95.1659" stroke="white" stroke-width="1.20463"/>
<rect x="250.061" y="344.456" width="95.1659" height="95.1659" stroke="white" stroke-width="1.20463"/>
<rect x="345.227" y="344.456" width="95.1659" height="95.1659" stroke="white" stroke-width="1.20463"/>
<rect x="440.393" y="344.456" width="95.1659" height="95.1659" stroke="white" stroke-width="1.20463"/>
<rect x="535.559" y="344.456" width="95.1659" height="95.1659" stroke="white" stroke-width="1.20463"/>
<rect x="630.724" y="344.456" width="95.1659" height="95.1659" stroke="white" stroke-width="1.20463"/>
<rect x="725.89" y="344.456" width="95.1659" height="95.1659" stroke="white" stroke-width="1.20463"/>
<rect x="821.056" y="344.456" width="95.1659" height="95.1659" stroke="white" stroke-width="1.20463"/>
<rect x="916.222" y="344.456" width="95.1659" height="95.1659" stroke="white" stroke-width="1.20463"/>
<rect x="1011.39" y="344.456" width="95.1659" height="95.1659" stroke="white" stroke-width="1.20463"/>
<rect x="250.061" y="439.622" width="95.1659" height="95.1659" stroke="white" stroke-width="1.20463"/>
<rect x="345.227" y="439.622" width="95.1659" height="95.1659" stroke="white" stroke-width="1.20463"/>
<rect x="440.393" y="439.622" width="95.1659" height="95.1659" stroke="white" stroke-width="1.20463"/>
<rect x="535.559" y="439.622" width="95.1659" height="95.1659" fill="white" fill-opacity="0.25" stroke="white" stroke-width="1.20463"/>
<rect x="630.724" y="439.622" width="95.1659" height="95.1659" stroke="white" stroke-width="1.20463"/>
<rect x="725.89" y="439.622" width="95.1659" height="95.1659" stroke="white" stroke-width="1.20463"/>
<rect x="821.056" y="439.622" width="95.1659" height="95.1659" stroke="white" stroke-width="1.20463"/>
<rect x="916.222" y="439.622" width="95.1659" height="95.1659" stroke="white" stroke-width="1.20463"/>
<rect x="1011.39" y="439.622" width="95.1659" height="95.1659" stroke="white" stroke-width="1.20463"/>
</g>
<defs>
<filter id="filter0_f_428_2222" x="545.491" y="0.491211" width="931.018" height="1169.02" filterUnits="userSpaceOnUse" color-interpolation-filters="sRGB">
<feFlood flood-opacity="0" result="BackgroundImageFix"/>
<feBlend mode="normal" in="SourceGraphic" in2="BackgroundImageFix" result="shape"/>
<feGaussianBlur stdDeviation="153.754" result="effect1_foregroundBlur_428_2222"/>
</filter>
<filter id="filter1_f_428_2222" x="491.227" y="18.0527" width="962.519" height="780.894" filterUnits="userSpaceOnUse" color-interpolation-filters="sRGB">
<feFlood flood-opacity="0" result="BackgroundImageFix"/>
<feBlend mode="normal" in="SourceGraphic" in2="BackgroundImageFix" result="shape"/>
<feGaussianBlur stdDeviation="120.463" result="effect1_foregroundBlur_428_2222"/>
</filter>
<radialGradient id="paint0_diamond_428_2222" cx="0" cy="0" r="1" gradientUnits="userSpaceOnUse" gradientTransform="translate(1341.84 1119.1) rotate(29.972) scale(306.337 556.076)">
<stop stop-color="#85FF83"/>
<stop offset="0.5" stop-color="#0E4710"/>
<stop offset="1" stop-color="#94F474"/>
</radialGradient>
<radialGradient id="paint1_radial_428_2222" cx="0" cy="0" r="1" gradientUnits="userSpaceOnUse" gradientTransform="translate(973.5 408.5) rotate(90) scale(445.648 1200.11)">
<stop stop-color="#D9D9D9" stop-opacity="0.2"/>
<stop offset="0.802083" stop-color="#D9D9D9" stop-opacity="0"/>
</radialGradient>
</defs>
</svg>
