<svg width="611" height="952" viewBox="0 0 611 952" fill="none" xmlns="http://www.w3.org/2000/svg">
<path opacity="0.3" d="M236.201 1.54573C242.501 5.14573 247.501 13.9457 247.501 21.1457V214.346L304.801 247.446V446.746C304.801 453.946 299.701 456.846 293.501 453.246C287.201 449.646 282.201 440.846 282.201 433.646V260.446L224.801 227.446V8.04574C224.801 0.845736 229.901 -2.05427 236.201 1.54573Z" fill="url(#paint0_linear_572_3469)"/>
<path opacity="0.3" d="M267.4 840.745C273.7 844.345 278.7 841.445 278.7 834.245V689.445L336 722.545V627.745C336 620.545 330.9 611.745 324.7 608.145C318.4 604.545 313.4 607.445 313.4 614.645V683.345L256.1 650.245V821.145C256.1 828.345 261.2 837.145 267.4 840.745Z" fill="url(#paint1_linear_572_3469)"/>
<path opacity="0.3" d="M355.499 143.346C361.799 146.946 366.799 155.746 366.799 162.946V491.646C366.799 498.846 361.699 501.746 355.499 498.146C349.199 494.546 344.199 485.746 344.199 478.546V149.846C344.199 142.646 349.299 139.746 355.499 143.346Z" fill="url(#paint2_linear_572_3469)"/>
<path d="M291.3 824.246C291.3 844.046 279.7 853.447 265.4 845.147C251.1 836.947 239.5 814.147 239.5 794.347C239.5 774.547 251.1 765.147 265.4 773.447C279.7 781.647 291.3 804.446 291.3 824.246Z" fill="url(#paint3_linear_572_3469)"/>
<path opacity="0.3" d="M481.6 308.145C475.3 304.545 470.3 307.445 470.3 314.645V412.245L413 379.145V499.045C413 506.245 418.1 515.045 424.3 518.645C430.6 522.245 435.6 519.345 435.6 512.145V418.345L492.9 451.445V327.745C492.9 320.545 487.8 311.745 481.6 308.145Z" fill="url(#paint4_linear_572_3469)"/>
<path d="M507.001 342.646C507.001 362.246 495.501 371.446 481.401 363.346C467.301 355.146 455.801 332.746 455.801 313.146C455.801 293.546 467.201 284.346 481.401 292.446C495.601 300.646 507.001 323.046 507.001 342.646Z" fill="url(#paint5_linear_572_3469)"/>
<path opacity="0.3" d="M591.199 841.847C591.199 834.647 586.099 825.846 579.899 822.246L490.899 770.847V696.347L402.499 645.347C396.199 641.747 391.199 644.647 391.199 651.847C391.199 659.047 396.299 667.846 402.499 671.446L468.299 709.446V783.946L579.999 848.347C586.199 851.947 591.199 849.047 591.199 841.847Z" fill="url(#paint6_linear_572_3469)"/>
<path opacity="0.3" d="M376.4 950.245C370.1 946.645 365.1 937.845 365.1 930.645V693.645C365.1 686.445 370.2 683.545 376.4 687.145C382.7 690.745 387.7 699.545 387.7 706.745V943.745C387.7 950.945 382.6 953.845 376.4 950.245Z" fill="url(#paint7_linear_572_3469)"/>
<path d="M604.999 850.446C604.999 870.246 593.399 879.646 579.099 871.346C564.799 863.146 553.199 840.346 553.199 820.546C553.199 800.746 564.799 791.346 579.099 799.646C593.399 807.846 604.999 830.646 604.999 850.446Z" fill="url(#paint8_linear_572_3469)"/>
<path opacity="0.3" d="M51.0996 452.646L213.9 546.646V848.246L51.0996 754.246V452.646Z" fill="url(#paint9_linear_572_3469)"/>
<path opacity="0.15" d="M76.9004 644.445L173.9 700.445V712.345L76.9004 656.345V644.445Z" fill="white"/>
<path opacity="0.15" d="M87 673.746L163.9 718.146V730.046L87 685.646V673.746Z" fill="white"/>
<path d="M113.2 727.446L0 662.046V695.746L113.3 761.146L113.2 727.446Z" fill="url(#paint10_linear_572_3469)"/>
<path opacity="0.2" d="M167.8 576.746L142.5 596.746L125.5 574.946L103.3 594.146L94.5 587.746L127.2 560.246L143.8 582.046L162.1 568.446L167.8 576.746Z" fill="white"/>
<path d="M186.8 576.245C186.8 587.545 180.2 592.846 172.1 588.146C164 583.446 157.4 570.545 157.4 559.245C157.4 547.945 164 542.646 172.1 547.346C180.2 552.046 186.8 565.045 186.8 576.245Z" fill="url(#paint11_linear_572_3469)"/>
<path d="M111 598.046C111 609.346 104.4 614.646 96.2996 609.946C88.1996 605.246 81.5996 592.346 81.5996 581.046C81.5996 569.746 88.1996 564.446 96.2996 569.146C104.4 573.846 111 586.746 111 598.046Z" fill="url(#paint12_linear_572_3469)"/>
<path opacity="0.2" d="M610.601 649.845L455.801 560.445V641.045L610.601 730.445V649.845Z" fill="url(#paint13_linear_572_3469)"/>
<path opacity="0.15" d="M495.4 602.846L542 629.746V639.446L495.4 612.446V602.846Z" fill="white"/>
<path opacity="0.15" d="M495.5 622.246L594.7 679.446V689.246L495.5 632.046V622.246Z" fill="white"/>
<path d="M487.299 605.645C487.299 612.245 483.399 615.445 478.499 612.645C473.599 609.845 469.699 602.145 469.699 595.545C469.699 588.945 473.599 585.745 478.499 588.545C483.399 591.345 487.299 599.045 487.299 605.645Z" fill="url(#paint14_linear_572_3469)"/>
<path opacity="0.2" d="M213.4 403.345L58.5996 313.945V394.545L213.4 483.945V403.345Z" fill="url(#paint15_linear_572_3469)"/>
<path opacity="0.15" d="M98.1992 356.346L144.799 383.246V392.946L98.1992 366.046V356.346Z" fill="white"/>
<path opacity="0.15" d="M98.3008 375.746L197.501 432.946V442.746L98.3008 385.546V375.746Z" fill="white"/>
<path d="M90.1 359.145C90.1 365.745 86.2 368.945 81.3 366.145C76.4 363.345 72.5 355.645 72.5 349.045C72.5 342.445 76.4 339.245 81.3 342.045C86.1 344.845 90.1 352.545 90.1 359.145Z" fill="url(#paint16_linear_572_3469)"/>
<path opacity="0.2" d="M417.9 578.546C417.9 627.546 389.2 650.746 353.9 630.346C318.5 609.946 289.9 553.646 289.9 504.646C289.9 455.646 318.6 432.446 353.9 452.846C389.3 473.246 417.9 529.546 417.9 578.546Z" fill="url(#paint17_linear_572_3469)"/>
<path opacity="0.4" d="M336.601 535.805C338.301 535.305 339.201 533.505 339.201 530.405C339.201 527.205 338.301 524.404 336.601 522.104C334.801 519.804 332.201 517.605 328.801 515.705C327.701 515.105 326.501 514.405 325.201 513.805C323.901 513.105 322.801 512.504 321.801 512.104V529.305L328.101 532.905C332.101 535.205 334.901 536.105 336.601 535.805Z" fill="white"/>
<path opacity="0.4" d="M329.799 547.604L321.699 542.904V563.504C322.699 564.204 323.699 564.904 324.699 565.504C325.799 566.204 326.999 566.904 328.299 567.704C332.199 569.904 335.299 571.004 337.699 570.804C340.099 570.704 341.299 568.504 341.299 564.404C341.299 560.804 340.299 557.604 338.299 554.904C336.299 552.204 333.499 549.704 329.799 547.604Z" fill="white"/>
<path opacity="0.4" d="M332 454.405C296.6 434.005 268 457.205 268 506.205C268 555.205 296.7 611.505 332 631.905C367.4 652.305 396 629.105 396 580.105C396 531.105 367.3 474.805 332 454.405ZM347.8 587.405C344.4 588.705 339.7 588.005 333.7 585.305V597.305L321.4 590.205V578.305C320.5 577.805 319.7 577.205 318.8 576.605C315.7 574.505 312.5 572.005 309.1 569.105V491.705C311.7 492.505 314.6 493.705 317.8 495.205C319 495.705 320.2 496.305 321.4 496.905V485.005L333.7 492.105L333.6 504.305C334.6 505.105 335.6 505.805 336.5 506.605C339.6 509.105 342.3 511.905 344.5 514.905C346.7 517.905 348.4 521.305 349.6 524.905C350.9 528.505 351.5 532.405 351.5 536.605C351.5 543.005 349.3 546.805 344.9 547.905C348.6 551.905 351.1 555.905 352.4 560.005C353.7 564.005 354.4 568.205 354.4 572.305C354.4 580.705 352.2 585.705 347.8 587.405Z" fill="white"/>
<defs>
<linearGradient id="paint0_linear_572_3469" x1="349.77" y1="80.1889" x2="185.681" y2="364.473" gradientUnits="userSpaceOnUse">
<stop stop-color="white"/>
<stop offset="1" stop-color="white" stop-opacity="0"/>
</linearGradient>
<linearGradient id="paint1_linear_572_3469" x1="231.08" y1="806.718" x2="334.806" y2="627.013" gradientUnits="userSpaceOnUse">
<stop stop-color="white"/>
<stop offset="1" stop-color="white" stop-opacity="0"/>
</linearGradient>
<linearGradient id="paint2_linear_572_3469" x1="426.663" y1="197.453" x2="284.337" y2="444.036" gradientUnits="userSpaceOnUse">
<stop stop-color="white"/>
<stop offset="1" stop-color="white" stop-opacity="0"/>
</linearGradient>
<linearGradient id="paint3_linear_572_3469" x1="233.499" y1="848.167" x2="300.266" y2="846.772" gradientUnits="userSpaceOnUse">
<stop stop-color="#20F335"/>
<stop offset="0.537615" stop-color="#51AB6C"/>
<stop offset="1" stop-color="#139319"/>
</linearGradient>
<linearGradient id="paint4_linear_572_3469" x1="542.255" y1="260.574" x2="406.674" y2="495.467" gradientUnits="userSpaceOnUse">
<stop stop-color="white"/>
<stop offset="1" stop-color="white" stop-opacity="0"/>
</linearGradient>
<linearGradient id="paint5_linear_572_3469" x1="449.869" y1="366.285" x2="515.863" y2="364.905" gradientUnits="userSpaceOnUse">
<stop stop-color="#20F335"/>
<stop offset="0.537615" stop-color="#51AB6C"/>
<stop offset="1" stop-color="#139319"/>
</linearGradient>
<linearGradient id="paint6_linear_572_3469" x1="628.502" y1="746.862" x2="402.491" y2="746.837" gradientUnits="userSpaceOnUse">
<stop stop-color="white"/>
<stop offset="1" stop-color="white" stop-opacity="0"/>
</linearGradient>
<linearGradient id="paint7_linear_572_3469" x1="325.058" y1="907.521" x2="427.848" y2="729.685" gradientUnits="userSpaceOnUse">
<stop stop-color="white"/>
<stop offset="1" stop-color="white" stop-opacity="0"/>
</linearGradient>
<linearGradient id="paint8_linear_572_3469" x1="547.198" y1="874.366" x2="613.965" y2="872.971" gradientUnits="userSpaceOnUse">
<stop stop-color="#20F335"/>
<stop offset="0.537615" stop-color="#51AB6C"/>
<stop offset="1" stop-color="#139319"/>
</linearGradient>
<linearGradient id="paint9_linear_572_3469" x1="231.333" y1="479.218" x2="86.804" y2="729.614" gradientUnits="userSpaceOnUse">
<stop stop-color="white"/>
<stop offset="1" stop-color="white" stop-opacity="0"/>
</linearGradient>
<linearGradient id="paint10_linear_572_3469" x1="-13.1262" y1="761.146" x2="132.787" y2="755.913" gradientUnits="userSpaceOnUse">
<stop stop-color="#20F335"/>
<stop offset="0.537615" stop-color="#51AB6C"/>
<stop offset="1" stop-color="#139319"/>
</linearGradient>
<linearGradient id="paint11_linear_572_3469" x1="153.994" y1="589.858" x2="191.889" y2="589.068" gradientUnits="userSpaceOnUse">
<stop stop-color="#20F335"/>
<stop offset="0.537615" stop-color="#51AB6C"/>
<stop offset="1" stop-color="#139319"/>
</linearGradient>
<linearGradient id="paint12_linear_572_3469" x1="78.1935" y1="611.659" x2="116.088" y2="610.869" gradientUnits="userSpaceOnUse">
<stop stop-color="#20F335"/>
<stop offset="0.537615" stop-color="#51AB6C"/>
<stop offset="1" stop-color="#139319"/>
</linearGradient>
<linearGradient id="paint13_linear_572_3469" x1="550.659" y1="615.198" x2="515.742" y2="675.692" gradientUnits="userSpaceOnUse">
<stop stop-color="white"/>
<stop offset="1" stop-color="white" stop-opacity="0"/>
</linearGradient>
<linearGradient id="paint14_linear_572_3469" x1="467.66" y1="613.661" x2="490.345" y2="613.182" gradientUnits="userSpaceOnUse">
<stop stop-color="#20F335"/>
<stop offset="0.537615" stop-color="#51AB6C"/>
<stop offset="1" stop-color="#139319"/>
</linearGradient>
<linearGradient id="paint15_linear_572_3469" x1="153.458" y1="368.698" x2="118.541" y2="429.192" gradientUnits="userSpaceOnUse">
<stop stop-color="white"/>
<stop offset="1" stop-color="white" stop-opacity="0"/>
</linearGradient>
<linearGradient id="paint16_linear_572_3469" x1="70.461" y1="367.161" x2="93.1461" y2="366.682" gradientUnits="userSpaceOnUse">
<stop stop-color="#20F335"/>
<stop offset="0.537615" stop-color="#51AB6C"/>
<stop offset="1" stop-color="#139319"/>
</linearGradient>
<linearGradient id="paint17_linear_572_3469" x1="366.758" y1="468.38" x2="337.813" y2="633.21" gradientUnits="userSpaceOnUse">
<stop stop-color="white"/>
<stop offset="1" stop-color="white" stop-opacity="0"/>
</linearGradient>
</defs>
</svg>
