<svg width="689" height="808" viewBox="0 0 689 808" fill="none" xmlns="http://www.w3.org/2000/svg">
<path opacity="0.5" d="M366.349 248.029C306.073 215.988 256.243 245.934 247.427 315.079C245.893 327.04 255.86 342.842 268.03 349.302L464.668 453.893C476.838 460.354 486.804 455.115 485.271 441.496C476.454 363.184 426.528 280.07 366.349 248.029Z" fill="url(#paint0_linear_110_1155)"/>
<path opacity="0.5" d="M433.524 158.28C433.524 206.036 403.242 228.56 365.87 208.655C328.497 188.749 298.215 134.009 298.215 86.2539C298.215 38.4983 328.497 15.9738 365.87 35.8792C403.242 55.7846 433.524 110.524 433.524 158.28Z" fill="url(#paint1_linear_110_1155)"/>
<path opacity="0.07" d="M405.063 219.393C344.787 187.352 294.957 217.298 286.141 286.443C284.608 298.404 294.574 314.206 306.744 320.666L503.382 425.257C515.552 431.718 525.518 426.479 523.985 412.86C515.169 334.548 465.339 251.434 405.063 219.393Z" fill="url(#paint2_linear_110_1155)"/>
<path opacity="0.07" d="M472.238 129.644C472.238 177.4 441.957 199.924 404.584 180.019C367.211 160.113 336.93 105.373 336.93 57.6179C336.93 9.86239 367.211 -12.6622 404.584 7.24326C441.957 27.1487 472.238 81.8886 472.238 129.644Z" fill="url(#paint3_linear_110_1155)"/>
<path opacity="0.2" d="M602.468 489.077L432.182 399.502V480.346L602.468 569.921V489.077Z" fill="url(#paint4_linear_110_1155)"/>
<path d="M466.776 444.813C466.776 451.448 462.463 454.591 457.097 451.798C451.731 449.004 447.418 441.321 447.418 434.686C447.418 428.051 451.731 424.908 457.097 427.702C462.463 430.495 466.776 438.178 466.776 444.813Z" fill="url(#paint5_radial_110_1155)"/>
<path opacity="0.15" d="M475.783 441.932L526.955 468.909V478.6L475.688 451.623L475.783 441.932Z" fill="white"/>
<path opacity="0.15" d="M475.784 461.401L584.835 518.76V528.626L475.784 471.267V461.401Z" fill="white"/>
<path opacity="0.2" d="M256.53 395.661L86.2446 306.174V387.018L256.53 476.592V395.661Z" fill="url(#paint6_linear_110_1155)"/>
<path d="M120.839 351.398C120.839 358.033 116.526 361.176 111.16 358.382C105.794 355.588 101.481 347.905 101.481 341.27C101.481 334.635 105.794 331.492 111.16 334.286C116.526 337.08 120.839 344.762 120.839 351.398Z" fill="url(#paint7_radial_110_1155)"/>
<path opacity="0.15" d="M129.559 348.953L160.416 365.192V375.057L129.559 358.818V348.953Z" fill="white"/>
<path opacity="0.15" d="M129.846 368.422L238.898 425.781V435.646L129.846 378.287V368.422Z" fill="white"/>
<path opacity="0.3" d="M366.253 485.061L688.904 654.781L689 808L394.81 653.296L366.349 661.765L366.253 485.061Z" fill="url(#paint8_linear_110_1155)"/>
<path d="M431.799 570.881C431.799 583.54 423.653 589.39 413.495 584.064C403.338 578.738 395.192 564.159 395.192 551.587C395.192 538.928 403.338 533.078 413.495 538.404C423.557 543.729 431.799 558.309 431.799 570.881Z" fill="url(#paint9_radial_110_1155)"/>
<path opacity="0.15" d="M449.239 565.992L519.96 603.184V616.629L449.239 579.437V565.992Z" fill="white"/>
<path opacity="0.15" d="M449.239 592.969L660.443 704.02V717.465L449.239 606.414V592.969Z" fill="white"/>
<path opacity="0.15" d="M449.239 619.946L614.35 706.814V720.259L449.239 633.391V619.946Z" fill="white"/>
<path opacity="0.3" d="M322.651 529.062L0 359.429L0.0958275 512.649L294.286 667.352L322.747 705.766L322.651 529.062Z" fill="url(#paint10_linear_110_1155)"/>
<path d="M257.105 545.912C257.105 558.571 265.346 573.064 275.408 578.389C285.566 583.715 293.711 577.778 293.711 565.119C293.711 552.46 285.47 537.967 275.408 532.642C265.346 527.403 257.105 533.34 257.105 545.912Z" fill="url(#paint11_radial_110_1155)"/>
<path opacity="0.15" d="M239.665 522.776L168.944 485.584V499.029L239.665 536.221V522.776Z" fill="white"/>
<path opacity="0.15" d="M239.76 549.666L28.5566 438.615V452.06L239.665 563.111L239.76 549.666Z" fill="white"/>
<path opacity="0.15" d="M239.76 576.643L74.6494 489.775V503.22L239.76 590.088V576.643Z" fill="white"/>
<path opacity="0.2" d="M134.35 624.486C140.099 627.454 144.699 634.788 144.699 640.899V667.527L164.056 677.654C169.806 680.623 174.406 687.956 174.406 693.98C174.406 700.004 169.806 702.449 164.056 699.48L144.699 689.266V715.894C144.699 721.918 140.099 724.362 134.35 721.394C128.6 718.426 124 711.092 124 705.068V678.44L104.643 668.313C98.8937 665.344 94.2939 658.011 94.2939 651.987C94.2939 645.963 98.8937 643.518 104.643 646.487L124 656.614V629.986C123.905 623.875 128.6 621.43 134.35 624.486Z" fill="url(#paint12_linear_110_1155)"/>
<path opacity="0.2" d="M550.721 283.387L577.361 331.056C581.002 337.604 580.427 344.151 576.019 345.723C571.611 347.294 565.095 343.191 561.453 336.643L561.166 336.032V388.939C561.166 394.963 556.566 397.407 550.817 394.439C545.067 391.383 540.467 384.137 540.467 378.113V325.206L540.18 325.468C536.538 328.175 529.926 325.381 525.614 319.182C521.206 312.984 520.631 305.825 524.272 303.118L550.721 283.387Z" fill="url(#paint13_linear_110_1155)"/>
<path opacity="0.2" d="M322.652 368.606L281.638 347.041V334.469L322.652 356.034C326.006 357.78 330.893 361.359 335.014 366.859C339.518 372.709 342.68 380.13 342.68 388.162C342.68 397.067 340.188 402.13 335.493 403.527C331.085 404.837 325.814 402.567 322.652 400.908L305.786 392.003L305.69 391.916C304.253 391.13 301.953 390.344 300.132 390.868C298.599 391.305 296.97 392.614 296.97 397.591C296.97 402.567 298.695 405.535 300.037 407.369C301.761 409.639 304.061 411.21 305.499 411.909L305.69 411.996L357.246 439.148V451.719L305.978 424.742C302.432 423.084 297.353 419.504 292.945 413.917C288.154 407.718 284.896 399.948 284.896 391.305C284.896 382.662 288.154 378.296 292.85 377.074C297.258 375.939 302.336 377.598 305.882 379.519L322.556 388.336C324.952 389.646 326.772 390.17 328.018 389.821C328.976 389.559 330.701 388.336 330.701 381.963C330.701 377.772 329.264 375.066 327.827 373.32C326.198 370.963 324.089 369.304 322.652 368.606Z" fill="white"/>
<path d="M289.208 344.335C289.208 355.597 281.925 360.923 273.013 356.296C264.101 351.581 256.818 338.66 256.818 327.311C256.818 316.048 264.101 310.723 273.013 315.35C281.925 320.064 289.208 333.073 289.208 344.335Z" fill="url(#paint14_radial_110_1155)"/>
<path d="M378.327 456.085C378.327 467.347 371.044 472.672 362.132 468.045C353.22 463.331 345.938 450.41 345.938 439.06C345.938 427.798 353.22 422.472 362.132 427.1C371.044 431.814 378.327 444.822 378.327 456.085Z" fill="url(#paint15_radial_110_1155)"/>
<defs>
<linearGradient id="paint0_linear_110_1155" x1="614.998" y1="195.779" x2="386.465" y2="378.761" gradientUnits="userSpaceOnUse">
<stop stop-color="white"/>
<stop offset="1" stop-color="white" stop-opacity="0"/>
</linearGradient>
<linearGradient id="paint1_linear_110_1155" x1="490.251" y1="39.6208" x2="261.719" y2="222.603" gradientUnits="userSpaceOnUse">
<stop stop-color="white"/>
<stop offset="1" stop-color="white" stop-opacity="0"/>
</linearGradient>
<linearGradient id="paint2_linear_110_1155" x1="653.729" y1="167.133" x2="425.196" y2="350.115" gradientUnits="userSpaceOnUse">
<stop stop-color="white"/>
<stop offset="1" stop-color="white" stop-opacity="0"/>
</linearGradient>
<linearGradient id="paint3_linear_110_1155" x1="528.982" y1="10.9741" x2="300.45" y2="193.956" gradientUnits="userSpaceOnUse">
<stop stop-color="white"/>
<stop offset="1" stop-color="white" stop-opacity="0"/>
</linearGradient>
<linearGradient id="paint4_linear_110_1155" x1="536.516" y1="454.405" x2="503.219" y2="517.724" gradientUnits="userSpaceOnUse">
<stop stop-color="white"/>
<stop offset="1" stop-color="white" stop-opacity="0"/>
</linearGradient>
<radialGradient id="paint5_radial_110_1155" cx="0" cy="0" r="1" gradientUnits="userSpaceOnUse" gradientTransform="translate(457.097 439.75) rotate(90) scale(13.0685 9.67859)">
<stop stop-color="#1C6D0F"/>
<stop offset="1" stop-color="#34EE30"/>
</radialGradient>
<linearGradient id="paint6_linear_110_1155" x1="190.579" y1="361" x2="157.283" y2="424.32" gradientUnits="userSpaceOnUse">
<stop stop-color="white"/>
<stop offset="1" stop-color="white" stop-opacity="0"/>
</linearGradient>
<radialGradient id="paint7_radial_110_1155" cx="0" cy="0" r="1" gradientUnits="userSpaceOnUse" gradientTransform="translate(111.16 346.334) rotate(90) scale(13.0685 9.67858)">
<stop stop-color="#1C6D0F"/>
<stop offset="1" stop-color="#34EE30"/>
</radialGradient>
<linearGradient id="paint8_linear_110_1155" x1="504.839" y1="490.048" x2="539.554" y2="799.104" gradientUnits="userSpaceOnUse">
<stop stop-color="white"/>
<stop offset="1" stop-color="white" stop-opacity="0"/>
</linearGradient>
<radialGradient id="paint9_radial_110_1155" cx="0" cy="0" r="1" gradientUnits="userSpaceOnUse" gradientTransform="translate(413.495 561.234) rotate(90) scale(24.7972 18.3031)">
<stop stop-color="#1C6D0F"/>
<stop offset="1" stop-color="#34EE30"/>
</radialGradient>
<linearGradient id="paint10_linear_110_1155" x1="252.295" y1="467.706" x2="97.7085" y2="600.56" gradientUnits="userSpaceOnUse">
<stop stop-color="white"/>
<stop offset="1" stop-color="white" stop-opacity="0"/>
</linearGradient>
<radialGradient id="paint11_radial_110_1155" cx="0" cy="0" r="1" gradientUnits="userSpaceOnUse" gradientTransform="translate(275.408 555.54) rotate(90) scale(24.8028 18.3031)">
<stop stop-color="#1C6D0F"/>
<stop offset="1" stop-color="#34EE30"/>
</radialGradient>
<linearGradient id="paint12_linear_110_1155" x1="154.334" y1="658.496" x2="107.818" y2="698.79" gradientUnits="userSpaceOnUse">
<stop stop-color="white"/>
<stop offset="1" stop-color="white" stop-opacity="0"/>
</linearGradient>
<linearGradient id="paint13_linear_110_1155" x1="569.657" y1="331.475" x2="523.303" y2="359.837" gradientUnits="userSpaceOnUse">
<stop stop-color="white"/>
<stop offset="1" stop-color="white" stop-opacity="0"/>
</linearGradient>
<radialGradient id="paint14_radial_110_1155" cx="0" cy="0" r="1" gradientUnits="userSpaceOnUse" gradientTransform="translate(273.013 335.823) rotate(90) scale(22.1407 16.1949)">
<stop stop-color="#1C6D0F"/>
<stop offset="1" stop-color="#34EE30"/>
</radialGradient>
<radialGradient id="paint15_radial_110_1155" cx="0" cy="0" r="1" gradientUnits="userSpaceOnUse" gradientTransform="translate(362.132 447.572) rotate(90) scale(22.1407 16.1949)">
<stop stop-color="#1C6D0F"/>
<stop offset="1" stop-color="#34EE30"/>
</radialGradient>
</defs>
</svg>
