<svg width="31" height="19" viewBox="0 0 31 19" fill="none" xmlns="http://www.w3.org/2000/svg">
<path d="M9.95859 0C7.31741 0 4.7844 1.00089 2.9168 2.78249C1.04921 4.56408 0 6.98044 0 9.5C0 12.0196 1.04921 14.4359 2.9168 16.2175C4.7844 17.9991 7.31741 19 9.95859 19H21.0414C23.6826 19 26.2156 17.9991 28.0832 16.2175C29.9508 14.4359 31 12.0196 31 9.5C31 6.98044 29.9508 4.56408 28.0832 2.78249C26.2156 1.00089 23.6826 0 21.0414 0H9.95859ZM5.53698 9.5C5.53698 9.22005 5.65356 8.95156 5.86107 8.75361C6.06858 8.55565 6.35003 8.44444 6.64349 8.44444H8.85651V6.33333C8.85651 6.05338 8.97309 5.7849 9.1806 5.58694C9.38811 5.38899 9.66956 5.27778 9.96302 5.27778C10.2565 5.27778 10.5379 5.38899 10.7454 5.58694C10.953 5.7849 11.0695 6.05338 11.0695 6.33333V8.44444H13.2826C13.576 8.44444 13.8575 8.55565 14.065 8.75361C14.2725 8.95156 14.3891 9.22005 14.3891 9.5C14.3891 9.77995 14.2725 10.0484 14.065 10.2464C13.8575 10.4443 13.576 10.5556 13.2826 10.5556H11.0695V12.6667C11.0695 12.9466 10.953 13.2151 10.7454 13.4131C10.5379 13.611 10.2565 13.7222 9.96302 13.7222C9.66956 13.7222 9.38811 13.611 9.1806 13.4131C8.97309 13.2151 8.85651 12.9466 8.85651 12.6667V10.5556H6.64349C6.35003 10.5556 6.06858 10.4443 5.86107 10.2464C5.65356 10.0484 5.53698 9.77995 5.53698 9.5ZM22.1258 12.6667C22.1258 13.2266 21.8926 13.7635 21.4776 14.1594C21.0626 14.5554 20.4997 14.7778 19.9128 14.7778C19.3258 14.7778 18.7629 14.5554 18.3479 14.1594C17.9329 13.7635 17.6997 13.2266 17.6997 12.6667C17.6997 12.1068 17.9329 11.5698 18.3479 11.1739C18.7629 10.778 19.3258 10.5556 19.9128 10.5556C20.4997 10.5556 21.0626 10.778 21.4776 11.1739C21.8926 11.5698 22.1258 12.1068 22.1258 12.6667ZM22.1258 8.44444C21.5389 8.44444 20.976 8.22202 20.5609 7.82611C20.1459 7.4302 19.9128 6.89324 19.9128 6.33333C19.9128 5.77343 20.1459 5.23646 20.5609 4.84055C20.976 4.44464 21.5389 4.22222 22.1258 4.22222C22.7127 4.22222 23.2756 4.44464 23.6906 4.84055C24.1056 5.23646 24.3388 5.77343 24.3388 6.33333C24.3388 6.89324 24.1056 7.4302 23.6906 7.82611C23.2756 8.22202 22.7127 8.44444 22.1258 8.44444Z" fill="white"/>
</svg>
