<svg width="30" height="30" viewBox="0 0 30 30" fill="none" xmlns="http://www.w3.org/2000/svg">
<path d="M25.2025 6.12228C25.71 6.73478 26.1462 7.40853 26.4975 8.12978C26.287 8.54098 25.9959 8.90555 25.6414 9.20171C25.2869 9.49787 24.8763 9.71954 24.4342 9.85348C23.9922 9.98743 23.5276 10.0309 23.0683 9.98129C22.6091 9.93169 22.1645 9.79003 21.7613 9.56478L25.2025 6.12228ZM23.8775 4.79728L20.435 8.23728C20.2097 7.83407 20.068 7.38958 20.0183 6.93038C19.9686 6.47117 20.0119 6.00666 20.1458 5.56459C20.2796 5.12251 20.5011 4.71194 20.7972 4.35739C21.0932 4.00284 21.4577 3.71159 21.8688 3.50103C22.5876 3.85094 23.262 4.28571 23.8775 4.79603V4.79728ZM27.5 12.4998C27.5 11.731 27.4125 10.9823 27.2487 10.2623C26.7541 10.7733 26.1616 11.1794 25.5066 11.4564C24.8515 11.7335 24.1474 11.8757 23.4363 11.8748C22.3514 11.8764 21.2922 11.5443 20.4025 10.9235L19.4512 11.8748L25.7413 18.1648C26.8896 16.4991 27.5031 14.523 27.5 12.4998ZM18.125 6.56228C18.125 5.06728 18.7425 3.71603 19.7375 2.74978C18.3873 2.44208 16.988 2.41728 15.6277 2.67694C14.2674 2.9366 12.9757 3.4751 11.8338 4.25853L18.125 10.5485L19.0762 9.59728C18.4552 8.70721 18.1231 7.6476 18.125 6.56228ZM18.125 13.1998L24.5325 19.6085C23.2764 20.8534 21.7123 21.7425 20 22.1848C20.0037 19.2763 18.9631 16.4632 17.0675 14.2573L18.125 13.1998ZM15.7425 12.9323C13.5366 11.0367 10.7235 9.99609 7.815 9.99978C8.25696 8.28763 9.14557 6.72352 10.39 5.46728L16.8 11.8748L15.7438 12.9323H15.7425ZM5.3125 11.2498C4.56658 11.2498 3.85121 11.5461 3.32376 12.0735C2.79632 12.601 2.5 13.3164 2.5 14.0623V16.5623C2.5 19.4631 3.65234 22.2451 5.70352 24.2963C7.7547 26.3474 10.5367 27.4998 13.4375 27.4998H15.9375C16.6834 27.4998 17.3988 27.2035 17.9262 26.676C18.4537 26.1486 18.75 25.4332 18.75 24.6873V22.1873C18.75 19.2865 17.5977 16.5045 15.5465 14.4533C13.4953 12.4021 10.7133 11.2498 7.8125 11.2498H5.3125ZM8.4 17.1498C8.57578 16.9742 8.81406 16.8756 9.0625 16.8756C9.31094 16.8756 9.54922 16.9742 9.725 17.1498L12.85 20.2748C12.9421 20.3606 13.016 20.4641 13.0672 20.5791C13.1185 20.6941 13.146 20.8182 13.1482 20.9441C13.1505 21.07 13.1273 21.195 13.0802 21.3118C13.033 21.4285 12.9628 21.5346 12.8738 21.6236C12.7848 21.7126 12.6787 21.7828 12.562 21.8299C12.4453 21.8771 12.3202 21.9002 12.1943 21.898C12.0685 21.8958 11.9443 21.8682 11.8293 21.817C11.7143 21.7658 11.6108 21.6919 11.525 21.5998L8.4 18.4748C8.22444 18.299 8.12582 18.0607 8.12582 17.8123C8.12582 17.5638 8.22444 17.3256 8.4 17.1498Z" fill="white"/>
</svg>
