<svg width="34" height="34" viewBox="0 0 34 34" fill="none" xmlns="http://www.w3.org/2000/svg">
<path fill-rule="evenodd" clip-rule="evenodd" d="M4.25 8.5C4.25 7.37283 4.69777 6.29183 5.4948 5.4948C6.29183 4.69777 7.37283 4.25 8.5 4.25H25.5C26.6272 4.25 27.7082 4.69777 28.5052 5.4948C29.3022 6.29183 29.75 7.37283 29.75 8.5V19.499L31.7999 23.5988C33.2138 26.4251 31.1582 29.75 27.999 29.75H6.001C2.84184 29.75 0.787671 26.4251 2.20009 23.5988L4.25 19.499V8.5ZM8.5 7.08333C8.12428 7.08333 7.76395 7.23259 7.49827 7.49827C7.23259 7.76394 7.08334 8.12428 7.08334 8.5V15.5833C7.08334 15.9591 7.23259 16.3194 7.49827 16.5851C7.76395 16.8507 8.12428 17 8.5 17H25.5C25.8757 17 26.2361 16.8507 26.5017 16.5851C26.7674 16.3194 26.9167 15.9591 26.9167 15.5833V8.5C26.9167 8.12428 26.7674 7.76394 26.5017 7.49827C26.2361 7.23259 25.8757 7.08333 25.5 7.08333H8.5Z" fill="white"/>
</svg>
