<svg width="34" height="33" viewBox="0 0 34 33" fill="none" xmlns="http://www.w3.org/2000/svg">
<path d="M9.70397 23.5809L5.17064 21.1746L6.65814 19.7309L10.1998 20.2121L15.7248 14.8496L4.6748 9.00586L6.65814 7.08086L20.1873 10.4496L25.7477 5.12148C26.1491 4.7319 26.6511 4.53711 27.2536 4.53711C27.8562 4.53711 28.3577 4.7319 28.7581 5.12148C29.1595 5.51107 29.3602 5.99828 29.3602 6.58311C29.3602 7.16794 29.1595 7.65469 28.7581 8.04336L23.2331 13.4059L26.704 26.5371L24.7206 28.4621L18.6998 17.7371L13.1748 23.0996L13.6706 26.5371L12.1831 27.9809L9.70397 23.5809Z" fill="white"/>
</svg>
