<svg width="34" height="34" viewBox="0 0 34 34" fill="none" xmlns="http://www.w3.org/2000/svg">
<path d="M29.75 15.5833V12.75H26.9167V9.91667C26.9144 9.16591 26.6152 8.44654 26.0843 7.91567C25.5535 7.38481 24.8341 7.08558 24.0833 7.08333H21.25V4.25H18.4167V7.08333H15.5833V4.25H12.75V7.08333H9.91667C9.16591 7.08558 8.44654 7.38481 7.91567 7.91567C7.38481 8.44654 7.08558 9.16591 7.08333 9.91667V12.75H4.25V15.5833H7.08333V18.4167H4.25V21.25H7.08333V24.0833C7.08558 24.8341 7.38481 25.5535 7.91567 26.0843C8.44654 26.6152 9.16591 26.9144 9.91667 26.9167H12.75V29.75H15.5833V26.9167H18.4167V29.75H21.25V26.9167H24.0833C24.8341 26.9144 25.5535 26.6152 26.0843 26.0843C26.6152 25.5535 26.9144 24.8341 26.9167 24.0833V21.25H29.75V18.4167H26.9167V15.5833H29.75ZM24.0833 24.0833H9.91667V9.91667H24.0833V24.0833Z" fill="white"/>
<path d="M16.0947 11.333H14.1893L11.3418 22.6663H12.7967L13.454 20.0101H16.735L17.3754 22.6663H18.8799L16.0947 11.333ZM13.6453 18.8753L15.0875 12.6788H15.1526L16.5452 18.8753H13.6453ZM20.179 11.333H21.5956V22.6663H20.179V11.333Z" fill="white"/>
</svg>
