<svg width="34" height="34" viewBox="0 0 34 34" fill="none" xmlns="http://www.w3.org/2000/svg">
<path fill-rule="evenodd" clip-rule="evenodd" d="M33.7715 1.43574L32.844 1.28774L32.6006 0.377082L33.9998 0L33.7715 1.43574ZM21.3491 14.4734L20.5494 14.9673L20.5475 14.9655L20.5447 14.9607L20.5353 14.9457L20.5034 14.8919C20.477 14.8467 20.4376 14.7807 20.3906 14.6968C20.2589 14.466 20.1321 14.2324 20.01 13.9963C19.6238 13.2542 19.2867 12.4874 19.0008 11.7009C18.6832 10.8109 18.4107 9.79188 18.3684 8.80581C18.3271 7.82351 18.5094 6.75731 19.2386 5.92113C19.8935 5.17074 21.1282 4.47974 22.4259 3.88206C23.7706 3.26082 25.353 2.66503 26.8518 2.14937C28.7082 1.5133 30.5834 0.933589 32.4747 0.41102L32.5687 0.384624L32.6016 0.375197L32.8459 1.28679L33.7733 1.4348L33.7677 1.46968L33.7517 1.5696C33.6579 2.14794 33.5596 2.72552 33.4567 3.3023C33.2064 4.72069 32.9332 6.13494 32.6373 7.54447C32.3028 9.12916 31.9137 10.7902 31.5012 12.1807C31.3182 12.8167 31.1027 13.4428 30.8557 14.0567C30.6414 14.5752 30.3877 15.0786 30.0795 15.433C29.4199 16.1891 28.3928 16.4257 27.4954 16.486C26.5595 16.5492 25.5221 16.4351 24.589 16.2692C23.7569 16.1188 22.9327 15.9269 22.1196 15.6942C21.7869 15.6002 21.4561 15.4996 21.1273 15.3925L21.0681 15.3718L21.0521 15.3661L21.0474 15.3652H21.0455L21.35 14.4724L21.3491 14.4734ZM21.3491 14.4734L20.5494 14.9673L20.7261 15.2549L21.0455 15.3652L21.3491 14.4734ZM21.9805 13.6881C22.9426 13.9893 23.9219 14.2317 24.9132 14.414C25.7815 14.5676 26.6497 14.6544 27.3695 14.6053C28.1297 14.5544 28.5112 14.3678 28.6644 14.1924C28.7621 14.0793 28.9218 13.8116 29.1192 13.3346C29.3411 12.7814 29.5346 12.2173 29.6989 11.6443C30.0908 10.3245 30.4676 8.71908 30.7984 7.15514C31.1158 5.64202 31.4065 4.1234 31.6704 2.59998L31.38 2.68483C30.3379 2.99309 28.9303 3.42768 27.4616 3.93297C25.9901 4.4392 24.4744 5.01142 23.2105 5.59496C21.8988 6.20017 21.0136 6.74977 20.6528 7.16362C20.3643 7.49357 20.2158 8.00168 20.2468 8.72474C20.2769 9.44402 20.4827 10.2614 20.7702 11.0636C21.0994 11.971 21.5043 12.8489 21.9805 13.6881ZM4.00561 3.80853L3.76224 4.71918L2.83384 4.86719L2.60645 3.43239L4.00655 3.80947L4.00561 3.80853ZM13.1035 15.4349L13.9031 15.928L13.905 15.9261L13.9069 15.9223L13.9144 15.91L13.9417 15.8648C14.0833 15.6226 14.2187 15.3768 14.3476 15.1276C14.5957 14.6487 14.9123 13.9803 15.1773 13.2412C15.4386 12.5097 15.6659 11.6622 15.7007 10.8364C15.7364 10.0134 15.5842 9.09522 14.9509 8.36934C14.3908 7.72642 13.3544 7.15325 12.3019 6.66681C11.2016 6.1587 9.90954 5.67226 8.68892 5.25276C7.1771 4.73474 5.65008 4.26255 4.10991 3.83681L4.03286 3.81607L4.00561 3.80853L3.76224 4.71918L2.83384 4.86719L2.83854 4.89547L2.8517 4.97749L2.90244 5.28481C3.15599 6.80966 3.4414 8.32901 3.75848 9.84185C4.03098 11.1315 4.34859 12.4861 4.68499 13.6221C4.85413 14.1896 5.03079 14.7185 5.2159 15.1644C5.39162 15.5886 5.6068 16.0213 5.87743 16.3305C6.46002 16.9998 7.35553 17.1978 8.09692 17.2468C8.87873 17.2996 9.73665 17.2044 10.5025 17.0696C11.464 16.8964 12.4123 16.6557 13.3403 16.3493L13.3882 16.3333L13.4023 16.3286L13.407 16.3267L13.1035 15.4349ZM13.1035 15.4349L13.9031 15.928L13.7265 16.2164L13.407 16.3267L13.1035 15.4349ZM12.4711 14.6487C12.8382 13.9941 13.1516 13.3106 13.4079 12.6049C13.6381 11.961 13.7998 11.3153 13.8233 10.7553C13.8477 10.1916 13.7293 9.83148 13.5367 9.60994C13.2707 9.30639 12.5848 8.87274 11.5164 8.37971C10.4978 7.9093 9.27245 7.44643 8.07907 7.03635C7.03948 6.68031 5.99246 6.34652 4.9387 6.0352L4.94246 6.05877C5.1022 6.96377 5.3296 8.18551 5.59741 9.45157C5.86521 10.7204 6.17061 12.0186 6.48633 13.0848C6.64514 13.6183 6.80112 14.0793 6.95147 14.4413C7.11121 14.825 7.23149 15.0201 7.29163 15.0899C7.36868 15.1776 7.61769 15.3256 8.22284 15.3661C8.78758 15.4038 9.4773 15.3359 10.1764 15.2124C10.9522 15.0721 11.7186 14.8845 12.4711 14.6487ZM10.4132 23.6365C10.1745 23.6497 10.058 23.6836 10.0279 23.6968C9.60227 23.89 8.30929 24.3425 7.19296 24.7243C6.61977 24.9214 6.07006 25.1061 5.66412 25.2428L5.63781 25.2523V30.3457C5.8032 30.3382 5.98079 30.3316 6.16215 30.325C6.94019 30.2967 7.86577 30.2684 8.267 30.2854C9.95089 30.3523 11.2157 30.752 12.3865 31.1225L12.4119 31.131C13.5094 31.4779 14.5261 31.7965 15.8576 31.8974C16.2335 31.9257 16.599 31.9624 16.9401 31.9964H16.9448C18.2547 32.1284 19.1173 32.1943 19.7855 31.9511C20.3051 31.7616 22.2079 30.8764 24.1267 29.9083C25.0758 29.4294 26.0061 28.942 26.7456 28.5244C27.1167 28.3151 27.4315 28.1284 27.673 27.972C27.7933 27.8937 27.8891 27.8277 27.9624 27.774C27.9912 27.7528 28.0194 27.7308 28.047 27.708L28.0733 27.6854C28.1673 27.5902 28.2669 27.2583 28.1053 26.9463C28.0292 26.8004 27.9035 26.6867 27.751 26.6258C27.5631 26.5438 27.2436 26.4806 26.7362 26.5645C25.5917 26.753 24.2244 27.3055 22.8591 27.8626L22.8403 27.8711C22.1694 28.1445 21.4966 28.4188 20.8999 28.6187C20.3267 28.81 19.6905 28.9816 19.1361 28.9486C18.375 28.9015 17.0397 28.7035 15.9385 28.5244C15.3056 28.4217 14.6735 28.3142 14.0422 28.202L13.92 28.1803L13.8768 28.1718L14.0554 26.3015L18.3496 26.3533H18.359C18.4092 26.3479 18.4588 26.3384 18.5075 26.3251C18.656 26.2873 18.9106 26.194 19.231 25.9668C19.3297 25.8961 19.4594 25.766 19.5806 25.5916C19.6275 25.5233 19.6702 25.4522 19.7084 25.3786C19.1848 25.3451 18.6646 25.2714 18.1523 25.158C17.8733 25.0971 17.5966 25.0263 17.3226 24.9459L17.2906 24.9364L12.0313 23.7618L11.9815 23.7534C11.7015 23.7067 11.4197 23.6721 11.1367 23.6497C10.8961 23.6296 10.6544 23.6252 10.4132 23.6365ZM12.2155 22.838L12.3856 21.9113L12.4025 21.9141L17.7755 23.1133L17.815 23.1255L17.8225 23.1283L17.8582 23.1387L18.0067 23.1811C18.1373 23.217 18.3252 23.266 18.5489 23.315C19.0055 23.414 19.5768 23.5054 20.1049 23.5054C20.634 23.5054 21.209 23.7034 21.5191 24.2671C21.7841 24.7498 21.7184 25.2721 21.6253 25.6171C21.539 25.9221 21.4102 26.2135 21.2429 26.4825C21.5285 26.3694 21.832 26.2468 22.1506 26.1167L22.2089 26.0922C23.5037 25.5643 25.056 24.9308 26.4308 24.7036C28.0282 24.4415 29.2263 25.0166 29.7741 26.0799C30.2571 27.0179 30.15 28.2548 29.4123 29.007C29.2272 29.1956 28.9519 29.387 28.6888 29.5576C28.3537 29.7704 28.0128 29.9738 27.6664 30.1675C26.8912 30.6049 25.9318 31.1074 24.9696 31.5929C23.0696 32.5516 21.0681 33.4896 20.4254 33.7234C19.3109 34.1288 18.0217 33.9996 16.8762 33.8846L16.7569 33.8724C16.4102 33.8367 16.0632 33.8053 15.7158 33.7781C14.1559 33.6593 12.9606 33.2813 11.8688 32.9363L11.8453 32.9287C10.6707 32.5573 9.61261 32.2264 8.19183 32.1689C7.87986 32.1566 7.0398 32.1793 6.2298 32.2094C5.77368 32.226 5.31762 32.2446 4.86165 32.265L4.74043 32.2707L3.75754 32.3159V23.8919L4.58163 23.6176C5.25032 23.3947 5.91811 23.169 6.585 22.9407C7.75395 22.5401 8.93229 22.1244 9.25366 21.9792C9.59851 21.8227 9.99035 21.7718 10.3042 21.7529C10.6378 21.7341 10.9808 21.7482 11.2805 21.7708C11.6413 21.7992 12.0007 21.8442 12.3574 21.9056L12.3771 21.9094H12.3827L12.3846 21.9104H12.3865L12.2155 22.838Z" fill="white"/>
<path fill-rule="evenodd" clip-rule="evenodd" d="M27.3913 6.88731C27.4851 6.96777 27.5621 7.06598 27.6181 7.17633C27.674 7.28668 27.7078 7.407 27.7174 7.53043C27.727 7.65387 27.7122 7.77798 27.674 7.8957C27.6358 8.01342 27.5748 8.12244 27.4946 8.21652C24.6935 11.4952 21.2064 16.3002 19.6672 20.2058C19.6218 20.321 19.5542 20.426 19.4683 20.5149C19.3825 20.6039 19.28 20.675 19.1667 20.7242C19.0535 20.7734 18.9317 20.7997 18.8082 20.8017C18.6848 20.8036 18.5623 20.7812 18.4475 20.7356C18.3327 20.6901 18.2281 20.6223 18.1394 20.5362C18.0508 20.45 17.9799 20.3472 17.9309 20.2336C17.8818 20.1199 17.8556 19.9977 17.8536 19.8739C17.8516 19.7501 17.874 19.6271 17.9194 19.512C19.576 15.3085 23.2295 10.3112 26.0663 6.99006C26.2286 6.80031 26.4593 6.68298 26.7078 6.66389C26.9562 6.6448 27.2021 6.7255 27.3913 6.88825V6.88731ZM8.81403 9.9115C8.71713 9.98824 8.63625 10.0834 8.57601 10.1915C8.51577 10.2996 8.47736 10.4185 8.46296 10.5415C8.44856 10.6645 8.45846 10.7892 8.49209 10.9083C8.52573 11.0275 8.58244 11.1388 8.65898 11.236C10.7657 13.918 13.066 17.3504 14.1579 20.1974C14.2517 20.4246 14.4302 20.6061 14.6555 20.7031C14.8807 20.8001 15.1348 20.805 15.3636 20.7167C15.5924 20.6284 15.7777 20.4538 15.88 20.2304C15.9824 20.0069 15.9936 19.7522 15.9113 19.5205C14.717 16.4058 12.2767 12.7943 10.1343 10.0689C9.98009 9.87259 9.7545 9.74571 9.50711 9.71619C9.25971 9.68667 9.00981 9.75692 8.81403 9.9115Z" fill="white"/>
<path d="M0 21.7451H5.63801V34.0003H0V21.7451Z" fill="white"/>
</svg>
