<svg width="34" height="34" viewBox="0 0 34 34" fill="none" xmlns="http://www.w3.org/2000/svg">
<path d="M26.3655 34H28.9309C30.2291 34 31.2955 32.9955 31.45 31.7282L34 6.25909H26.2727V0H23.2282V6.25909H15.5473L16.0109 9.87545C18.6536 10.6018 21.1264 11.9155 22.61 13.3682C24.8355 15.5627 26.3655 17.8345 26.3655 21.5436V34ZM0 32.4545V30.9091H23.2282V32.4545C23.2282 33.2891 22.5327 34 21.6364 34H1.54545C0.695455 34 0 33.2891 0 32.4545ZM23.2282 21.6364C23.2282 9.27273 0 9.27273 0 21.6364H23.2282ZM0 24.7273H23.1818V27.8182H0V24.7273Z" fill="white"/>
</svg>
