<svg width="40" height="40" viewBox="0 0 40 40" fill="none" xmlns="http://www.w3.org/2000/svg">
<path d="M19.5834 26.6663H20.7918V25.333C21.5695 25.2219 22.2295 24.9025 22.7718 24.3747C23.314 23.8469 23.5845 23.1663 23.5834 22.333C23.5834 21.6108 23.3056 21.0063 22.7501 20.5197C22.1945 20.033 21.5556 19.6375 20.8334 19.333V16.2497C21.1112 16.333 21.3406 16.4719 21.5218 16.6663C21.7029 16.8608 21.8345 17.0969 21.9168 17.3747L23.4168 16.7497C23.2223 16.1663 22.889 15.7013 22.4168 15.3547C21.9445 15.008 21.4168 14.7786 20.8334 14.6663V13.333H19.5834V14.6247C18.8056 14.708 18.1456 14.993 17.6034 15.4797C17.0612 15.9663 16.7906 16.6119 16.7918 17.4163C16.7918 18.1663 17.0768 18.7913 17.6468 19.2913C18.2168 19.7913 18.8623 20.1941 19.5834 20.4997V23.7913C19.139 23.6525 18.764 23.4163 18.4584 23.083C18.1529 22.7497 17.9445 22.3608 17.8334 21.9163L16.3751 22.5413C16.5973 23.3191 16.9862 23.958 17.5418 24.458C18.0973 24.958 18.7779 25.2636 19.5834 25.3747V26.6663ZM20.8334 23.7497V20.9997C21.139 21.1386 21.4101 21.3052 21.6468 21.4997C21.8834 21.6941 22.0012 21.9858 22.0001 22.3747C22.0001 22.8191 21.889 23.1319 21.6668 23.313C21.4445 23.4941 21.1668 23.6397 20.8334 23.7497ZM19.5834 18.7913C19.2779 18.6525 19.0001 18.4858 18.7501 18.2913C18.5001 18.0969 18.3751 17.8052 18.3751 17.4163C18.3751 17.0275 18.5001 16.7425 18.7501 16.5613C19.0001 16.3802 19.2779 16.2625 19.5834 16.208V18.7913ZM13.3334 31.6663C10.0834 31.6663 7.32619 30.5341 5.06175 28.2697C2.7973 26.0052 1.66564 23.2486 1.66675 19.9997C1.66675 16.7497 2.79897 13.9925 5.06342 11.728C7.32786 9.46356 10.0845 8.3319 13.3334 8.33301H26.6668C29.9168 8.33301 32.674 9.46523 34.9384 11.7297C37.2029 13.9941 38.3345 16.7508 38.3334 19.9997C38.3334 23.2497 37.2012 26.0069 34.9368 28.2713C32.6723 30.5358 29.9156 31.6675 26.6668 31.6663H13.3334Z" fill="white"/>
</svg>
