<svg width="36" height="35" viewBox="0 0 36 35" fill="none" xmlns="http://www.w3.org/2000/svg">
<path d="M13.6189 10.448C13.7197 10.252 13.8788 10.0898 14.0755 9.98268C14.2722 9.87555 14.4975 9.82835 14.7221 9.84721C14.9467 9.86607 15.1604 9.95013 15.3353 10.0885C15.5102 10.2268 15.6383 10.4131 15.703 10.623L18.2624 18.9191L20.3717 14.823C20.4652 14.6414 20.6088 14.4886 20.7865 14.3819C20.9642 14.2751 21.169 14.2186 21.3779 14.2186C21.5868 14.2186 21.7916 14.2751 21.9693 14.3819C22.147 14.4886 22.2906 14.6414 22.3841 14.823L24.3205 18.5938H31.1239C32.1369 16.5634 32.6508 14.3321 32.6251 12.0757C32.5808 7.82988 29.0771 4.375 24.8148 4.375C21.4335 4.375 19.1898 6.39434 18.0001 7.86133C16.8132 6.39229 14.5667 4.375 11.1854 4.375C6.92307 4.375 3.4194 7.82988 3.3751 12.0757C3.35692 13.5418 3.56865 15.0021 4.00299 16.4062H10.5547L13.6189 10.448Z" fill="white"/>
<path d="M22.6188 20.1771L21.375 17.7586L19.0062 22.3646C18.9127 22.5463 18.7691 22.699 18.5914 22.8057C18.4136 22.9124 18.2089 22.969 18 22.9689C17.9686 22.9689 17.9362 22.9676 17.903 22.9648C17.6778 22.9467 17.4635 22.863 17.2879 22.7248C17.1123 22.5865 16.9836 22.4 16.9186 22.1896L14.3592 13.8936L12.2498 17.9896C12.1569 18.1703 12.0142 18.3224 11.8377 18.4291C11.6612 18.5358 11.4578 18.5928 11.25 18.5939H4.87617C5.53242 19.9288 6.40594 21.2426 7.49672 22.5355C8.81648 24.0996 11.2092 26.6002 16.7351 30.2472C17.1077 30.4955 17.5489 30.6284 18.0007 30.6284C18.4525 30.6284 18.8937 30.4955 19.2663 30.2472C24.7922 26.6002 27.1849 24.0996 28.5047 22.5355C28.98 21.973 29.4259 21.3876 29.8406 20.7814H23.625C23.4161 20.7815 23.2114 20.7249 23.0336 20.6182C22.8559 20.5115 22.7123 20.3588 22.6188 20.1771ZM32.625 18.5939H31.1238C30.7498 19.3517 30.321 20.0827 29.8406 20.7814H32.625C32.9234 20.7814 33.2095 20.6662 33.4205 20.4611C33.6315 20.256 33.75 19.9778 33.75 19.6877C33.75 19.3976 33.6315 19.1194 33.4205 18.9143C33.2095 18.7092 32.9234 18.5939 32.625 18.5939ZM3.375 16.4064C3.07663 16.4064 2.79048 16.5217 2.5795 16.7268C2.36853 16.9319 2.25 17.2101 2.25 17.5002C2.25 17.7903 2.36853 18.0685 2.5795 18.2736C2.79048 18.4787 3.07663 18.5939 3.375 18.5939H4.87617C4.52826 17.8874 4.23632 17.1561 4.00289 16.4064H3.375Z" fill="white"/>
</svg>
