<svg width="32" height="32" viewBox="0 0 32 32" fill="none" xmlns="http://www.w3.org/2000/svg">
<path d="M21.57 27.75C19.8302 28.5779 17.9268 29.005 16 29C8.83203 29 3.00003 23.168 3.00003 16C3.00003 12.925 4.05703 10.021 6.00003 7.692V10H8.00003V4H2.00003V6H4.84203C2.36269 8.73978 0.99295 12.3049 1.00003 16C1.00003 24.271 7.72903 31 16 31C18.2244 31.0056 20.4217 30.5122 22.43 29.556L21.57 27.75Z" fill="white"/>
<path d="M21 9C17.84 9 15.248 11.457 15.022 14.56C13.9226 13.5569 12.4882 13.0006 11 13H7V17C7 20.309 9.692 23 13 23H15V27H17V19H19C22.308 19 25 16.309 25 13V9H21ZM13 21C10.794 21 9 19.206 9 17V15H11C13.206 15 15 16.794 15 19V19.586L12.707 17.293L11.293 18.707L13.586 21H13ZM23 13C23 15.206 21.206 17 19 17H18.414L20.707 14.707L19.293 13.293L17 15.586V15C17 12.794 18.794 11 21 11H23V13Z" fill="white"/>
<path d="M30.9998 16C30.9998 7.72905 24.2708 1.00005 15.9998 1.00005C13.7755 0.994399 11.5782 1.48785 9.56982 2.44405L10.4298 4.25005C12.1697 3.42216 14.0731 2.99501 15.9998 3.00005C23.1678 3.00005 28.9998 8.83205 28.9998 16C28.9998 19.075 27.9428 21.979 25.9998 24.308V22H23.9998V28H29.9998V26H27.1578C29.6372 23.2603 31.0069 19.6951 30.9998 16Z" fill="white"/>
</svg>
