<svg width="32" height="32" viewBox="0 0 32 32" fill="none" xmlns="http://www.w3.org/2000/svg">
<path d="M6.776 7.1248C4.73607 9.24206 3.4872 11.997 3.23931 14.9267C2.99143 17.8563 3.75963 20.7819 5.41481 23.2119C7.06999 25.6418 9.51122 27.4278 12.3282 28.2698C15.1451 29.1117 18.1661 28.9583 20.8832 27.8352C21.0672 26.6352 20.664 25.4832 20.4992 25.08C20.1312 24.184 18.9184 22.6528 16.8944 20.5296C16.3536 19.9616 16.3888 19.5264 16.5824 18.2304L16.6032 18.0848C16.7344 17.1984 16.9552 16.6736 19.9392 16.2C21.456 15.96 21.8544 16.5648 22.4064 17.4048L22.592 17.68C23.1168 18.448 23.5056 18.624 24.0928 18.8896C24.3568 19.0096 24.6848 19.1616 25.1248 19.4096C26.168 20.0064 26.168 20.68 26.168 22.1552V22.3232C26.168 22.9488 26.1072 23.4992 26.0112 23.9776C27.239 22.4367 28.0946 20.6332 28.5113 18.7075C28.9281 16.7818 28.8948 14.786 28.4141 12.8753C27.9334 10.9645 27.0182 9.19057 25.7397 7.69142C24.4612 6.19228 22.854 5.00841 21.0432 4.232C20.1584 4.8288 18.944 5.6752 18.52 6.256C18.304 6.552 17.9968 8.0672 17 8.192C16.7408 8.224 16.3904 8.2016 16.0192 8.1776C15.024 8.1136 13.664 8.0256 13.2288 9.208C12.952 9.9568 12.904 11.992 13.7984 13.048C13.9424 13.216 13.9696 13.528 13.872 13.8784C13.744 14.3376 13.4864 14.6176 13.4048 14.6752C13.2512 14.5856 12.944 14.2288 12.7344 13.9872C12.2336 13.4016 11.6064 12.6752 10.7968 12.4512C10.5024 12.3696 10.1792 12.3024 9.864 12.2352C8.9856 12.0512 7.992 11.8416 7.76 11.3488C7.5904 10.9872 7.592 10.4896 7.592 9.9648C7.592 9.2976 7.592 8.544 7.2656 7.8128C7.15213 7.55185 6.98536 7.31751 6.776 7.1248ZM16 32C7.1632 32 0 24.8368 0 16C0 7.1632 7.1632 0 16 0C24.8368 0 32 7.1632 32 16C32 24.8368 24.8368 32 16 32Z" fill="white"/>
</svg>
