<svg width="24" height="15" viewBox="0 0 24 15" fill="none" xmlns="http://www.w3.org/2000/svg">
<path fill-rule="evenodd" clip-rule="evenodd" d="M19.9472 2.14364L20.5776 3.48682C21.3424 3.63136 22.1024 3.79636 22.8576 3.98045C23.5344 4.14409 24 4.67182 24 5.27045V9.83182C24 11.2025 23.3611 12.5171 22.2239 13.4863C21.0867 14.4555 19.5443 15 17.936 15H17.0688C16.8439 14.9999 16.6231 14.9482 16.4297 14.8503C16.2363 14.7524 16.0773 14.6119 15.9696 14.4436C14.256 11.7668 9.7456 11.7668 8.0304 14.4436C7.92267 14.6119 7.76375 14.7524 7.57034 14.8503C7.37692 14.9482 7.15615 14.9999 6.9312 15H6.064C4.45573 15 2.91333 14.4555 1.7761 13.4863C0.638884 12.5171 0 11.2025 0 9.83182V5.27045C0 4.67045 0.4656 4.14545 1.1424 3.98045C1.8976 3.79636 2.6576 3.63136 3.4224 3.48682L4.0528 2.14364C4.34956 1.51095 4.86197 0.968572 5.5239 0.586477C6.18584 0.204382 6.96693 0.000104211 7.7664 0H16.2336C17.0331 0.000104211 17.8142 0.204382 18.4761 0.586477C19.138 0.968572 19.6504 1.51095 19.9472 2.14364ZM5.5376 2.64818C5.716 2.26879 6.02367 1.94365 6.42093 1.71469C6.8182 1.48573 7.28683 1.36346 7.7664 1.36364H16.2336C16.7134 1.36357 17.1821 1.48604 17.5794 1.71526C17.9767 1.94447 18.2843 2.2699 18.4624 2.64955L18.7072 3.17318C14.2684 2.52176 9.7316 2.52176 5.2928 3.17318L5.5376 2.64955V2.64818Z" fill="white"/>
</svg>
