<svg width="30" height="30" viewBox="0 0 30 30" fill="none" xmlns="http://www.w3.org/2000/svg">
<path d="M11.025 21.25L16.25 24.1V27.5H7.5C6.1125 27.5 5 26.3875 5 25V5C5 4.33696 5.26339 3.70107 5.73223 3.23223C6.20107 2.76339 6.83696 2.5 7.5 2.5H8.75V11.25L11.875 9.375L15 11.25V2.5H22.5C23.163 2.5 23.7989 2.76339 24.2678 3.23223C24.7366 3.70107 25 4.33696 25 5V15.675L23.125 14.65L11.025 21.25ZM30 21.25L23.125 17.5L16.25 21.25L23.125 25L30 21.25ZM18.75 23.8625V26.3625L23.125 28.75L27.5 26.3625V23.8625L23.125 26.25L18.75 23.8625Z" fill="white"/>
</svg>
