<svg width="288" height="248" viewBox="0 0 288 248" fill="none" xmlns="http://www.w3.org/2000/svg">
<g style="mix-blend-mode:luminosity" filter="url(#filter0_d_736_3084)">
<path d="M162.201 71.617C121.022 55.6036 79.6477 59.491 69.8051 80.3085C59.948 101.117 85.3541 130.973 126.533 146.986C167.713 162.999 209.087 159.112 218.93 138.295C228.772 117.477 203.381 87.6304 162.201 71.617Z" fill="url(#paint0_linear_736_3084)"/>
<path opacity="0.7" d="M162.201 71.617C121.022 55.6036 79.6477 59.491 69.8051 80.3085C59.948 101.117 85.3541 130.973 126.533 146.986C167.713 162.999 209.087 159.112 218.93 138.295C228.772 117.477 203.381 87.6304 162.201 71.617ZM126.662 146.434C112.56 140.958 99.8069 133.613 89.7639 125.2C71.654 110.027 64.432 93.3904 70.4427 80.6814C80.1755 60.1216 121.272 56.3121 162.058 72.1604C176.165 77.6491 188.913 84.981 198.956 93.3946C217.066 108.567 224.288 125.204 218.278 137.913C208.554 158.469 167.453 162.295 126.662 146.434Z" fill="url(#paint1_linear_736_3084)"/>
<path d="M151.517 93.8488L145.946 87.3243L154.991 86.4957L160.552 92.9952L151.517 93.8488ZM127.795 125.684L133.37 132.192L142.405 131.367L136.848 124.852L127.795 125.684ZM210.201 135.022C201.543 153.316 164.887 156.699 128.473 142.534C92.0626 128.382 69.4827 101.967 78.1501 83.6697C86.8078 65.3759 123.478 62.0014 159.893 76.1661C196.293 90.3219 218.868 116.724 210.201 135.022ZM204.204 132.683C212.083 116.053 191.562 92.052 158.469 79.1837C125.376 66.3155 92.0351 69.3745 84.1561 86.0045C76.2771 102.634 96.8129 126.645 129.911 139.526C163.004 152.394 196.33 149.326 204.204 132.683ZM189.499 123.861C189.14 123.669 183.517 121.589 180.896 120.628C183.163 114.427 177.377 107.885 168.246 104.336C154.513 98.9912 147.641 101.242 141.1 103.781C136.565 105.451 133.372 107.869 127.903 105.73C125.022 104.609 124.081 102.758 124.74 101.356C125.467 99.8125 129.869 99.1713 136.808 100.846C136.976 100.652 137.172 100.333 137.372 99.9111C138.07 98.4365 138.871 95.6865 138.958 92.7079C133.973 90.7714 116.689 84.0459 114.513 83.3297C114.513 83.3297 110.97 89.1577 110.659 89.3203C110.635 89.3726 114.441 90.9572 116.507 91.8737C115.242 91.8995 112.709 92.4555 110.449 94.0986C106.279 92.5963 99.9238 90.4101 99.8808 90.4985C99.8522 90.567 98.4898 92.9146 97.8591 94.2486C97.625 94.7551 97.4865 95.1099 97.568 95.1505C97.8508 95.2574 102.903 97.3405 106.972 98.8096C105.364 103.665 111.152 111.127 121.625 115.194C133.431 119.785 140.241 118.147 147.276 115.806C153.181 113.869 157.02 111.074 160.481 112.417C164.315 113.905 164.342 116.035 163.926 116.899C163.214 118.393 160.317 119.204 154.637 117.29C154.493 117.23 153.905 118.217 153.303 119.512C152.252 121.725 151.13 124.843 152.036 125.199C155.123 126.399 173.257 134.421 173.578 134.255C175.833 133.116 177.258 130.616 177.874 129.301C178.118 128.791 178.232 128.46 178.232 128.46L173.788 126.33C174.976 126.219 176.528 125.623 177.873 124.661C180.394 125.59 187.924 128.46 188.413 128.589C188.514 128.622 188.629 128.463 188.748 128.201C189.259 127.1 189.869 124.05 189.499 123.861Z" fill="url(#paint2_linear_736_3084)"/>
<path d="M151.619 93.1778L146.049 86.6532L155.093 85.8246L160.654 92.3241L151.619 93.1778ZM127.892 125L133.468 131.509L142.502 130.684L136.946 124.168L127.892 125ZM210.299 134.338C201.641 152.632 164.985 156.015 128.57 141.851C92.1602 127.699 69.5804 101.284 78.2477 82.9862C86.9055 64.6923 123.576 61.3178 159.99 75.4825C196.396 89.6508 218.966 116.041 210.299 134.338ZM204.307 132.012C212.186 115.382 191.664 91.3809 158.571 78.5127C125.478 65.6444 92.1375 68.7034 84.2585 85.3334C76.3796 101.963 96.9154 125.974 130.013 138.854C163.101 151.71 196.428 148.642 204.307 132.012ZM189.597 123.178C189.238 122.985 183.615 120.906 180.993 119.944C183.261 113.743 177.475 107.201 168.344 103.653C154.611 98.3076 147.739 100.558 141.197 103.098C136.663 104.767 133.47 107.185 128.001 105.046C125.12 103.925 124.179 102.074 124.838 100.672C125.564 99.1289 129.966 98.4877 136.906 100.162C137.073 99.9688 137.269 99.6493 137.47 99.2275C138.168 97.7529 138.969 95.0029 139.056 92.0243C134.071 90.0878 116.786 83.3623 114.61 82.6461C114.61 82.6461 111.068 88.4741 110.757 88.6367C110.733 88.689 114.539 90.2736 116.605 91.1901C115.34 91.2159 112.806 91.772 110.547 93.4151C106.377 91.9127 100.022 89.7266 99.9785 89.8149C99.9498 89.8834 98.5874 92.231 97.9567 93.565C97.7226 94.0715 97.5841 94.4263 97.6608 94.4544C97.9436 94.5613 102.996 96.6444 107.065 98.1135C105.457 102.969 111.24 110.418 121.718 114.498C133.524 119.089 140.334 117.451 147.369 115.11C153.274 113.173 157.113 110.378 160.573 111.721C164.408 113.209 164.435 115.339 164.019 116.203C163.307 117.697 160.41 118.508 154.73 116.594C154.586 116.534 153.998 117.521 153.396 118.815C152.345 121.029 151.223 124.146 152.129 124.503C155.216 125.702 173.35 133.725 173.671 133.559C175.926 132.42 177.35 129.919 177.967 128.605C178.211 128.095 178.325 127.764 178.325 127.764L173.881 125.634C175.069 125.523 176.621 124.927 177.966 123.965C180.487 124.894 188.017 127.764 188.506 127.892C188.607 127.926 188.721 127.767 188.841 127.505C189.357 126.416 189.976 123.363 189.597 123.178Z" fill="url(#paint3_linear_736_3084)"/>
<path opacity="0.7" d="M189.598 123.177C189.238 122.984 183.616 120.905 180.994 119.943C183.262 113.742 177.476 107.2 168.344 103.651C154.612 98.3065 147.74 100.557 141.198 103.097C136.663 104.766 133.471 107.184 128.002 105.045C125.121 103.924 124.18 102.073 124.839 100.671C125.565 99.1278 129.967 98.4866 136.907 100.161C137.074 99.9677 137.27 99.6482 137.471 99.2264C138.168 97.7518 138.97 95.0018 139.057 92.0231C134.072 90.0866 116.787 83.3612 114.611 82.645C114.611 82.645 111.069 88.473 110.757 88.6356C110.734 88.6879 114.54 90.2725 116.606 91.189C115.341 91.2148 112.807 91.7708 110.548 93.4139C106.378 91.9116 100.022 89.7254 99.9794 89.8138C99.9508 89.8822 98.5883 92.2298 97.9576 93.5638C97.7235 94.0703 97.5851 94.4252 97.6617 94.4532C97.9446 94.5602 102.997 96.6433 107.066 98.1124C105.458 102.968 111.24 110.417 121.719 114.497C133.525 119.088 140.335 117.45 147.37 115.108C153.275 113.172 157.114 110.377 160.574 111.72C164.409 113.208 164.436 115.338 164.02 116.202C163.308 117.696 160.411 118.507 154.731 116.593C154.587 116.533 153.999 117.52 153.397 118.814C152.346 121.028 151.224 124.145 152.13 124.501C155.217 125.701 173.351 133.724 173.672 133.558C175.927 132.419 177.351 129.918 177.968 128.604C178.211 128.094 178.326 127.763 178.326 127.763L173.882 125.633C175.07 125.522 176.622 124.926 177.967 123.964C180.488 124.893 188.018 127.763 188.507 127.891C188.608 127.924 188.722 127.765 188.842 127.504C189.358 126.415 189.977 123.362 189.598 123.177ZM188.43 127.49C187.874 127.301 185.228 126.305 182.879 125.426C180.967 124.709 179.049 123.979 178 123.592L177.87 123.541L177.765 123.611C176.516 124.507 174.993 125.12 173.795 125.235L173.811 125.991L177.876 127.935C177.823 128.056 177.756 128.197 177.685 128.354C177.059 129.671 175.701 132.032 173.566 133.139C172.766 132.943 166.218 130.112 160.921 127.822C157.062 126.157 153.4 124.574 152.172 124.097C151.942 123.783 152.342 121.848 153.675 119.024C154.215 117.882 154.636 117.175 154.813 116.978C160.684 118.933 163.557 117.974 164.298 116.411C164.637 115.692 164.755 114.109 163.057 112.692C162.439 112.168 161.614 111.709 160.617 111.316C158.1 110.343 155.424 111.442 152.053 112.851C150.631 113.44 149.012 114.119 147.245 114.697C140.191 117.046 133.414 118.627 121.776 114.102C118.3 112.749 115.141 110.931 112.647 108.842C108.417 105.294 106.39 101.245 107.373 98.2819L107.516 97.8534L107.109 97.7081C104.775 96.8659 101.74 95.6889 98.0686 94.1964L98.0447 94.1913C98.0829 94.0904 98.1498 93.9498 98.2358 93.7731C98.747 92.7005 99.7317 90.9433 100.109 90.2955C100.129 90.2594 100.143 90.2395 100.152 90.2071C101.135 90.4764 106.474 92.3056 110.505 93.7607L110.635 93.8116L110.74 93.7425C113.052 92.0648 115.552 91.5934 116.664 91.569L116.658 90.8097C115.8 90.4352 114.64 89.9323 113.576 89.4789C112.761 89.1308 111.864 88.7423 111.323 88.5048C112.04 87.5111 113.508 85.1518 114.765 83.0744C116.63 83.7234 124.673 86.8133 138.712 92.2703C138.582 95.1076 137.814 97.6293 137.178 98.9795C137.035 99.2931 136.882 99.553 136.753 99.7319C130.456 98.2416 125.454 98.5238 124.546 100.424C123.973 101.621 124.44 103.065 125.749 104.157C126.334 104.651 127.063 105.061 127.94 105.399C132.46 107.155 135.41 105.908 138.833 104.464C139.628 104.13 140.457 103.769 141.328 103.463C148.578 100.652 155.159 98.9011 168.297 104.014C171.384 105.214 174.155 106.794 176.294 108.587C180.471 112.084 182.034 116.038 180.687 119.716L180.534 120.148L180.947 120.306C185.563 121.996 188.707 123.174 189.378 123.462C189.417 124.079 189.013 126.26 188.54 127.261C188.501 127.39 188.458 127.45 188.43 127.49ZM127.893 124.999L133.469 131.508L142.503 130.683L136.947 124.167L127.893 124.999ZM141.803 130.348L133.545 131.105L128.603 125.33L136.871 124.57L141.803 130.348ZM160.65 92.3391L155.089 85.8397L146.045 86.6683L151.616 93.1928L160.65 92.3391ZM146.75 86.9868L155.018 86.2262L159.945 91.9919L151.692 92.7613L146.75 86.9868ZM159.991 75.4813C123.581 61.3292 86.916 64.6875 78.2486 82.985C69.5909 101.279 92.1707 127.694 128.571 141.85C164.981 156.002 201.642 152.631 210.299 134.337C218.967 116.04 196.397 89.6497 159.991 75.4813ZM128.619 141.487C116.051 136.6 104.668 130.051 95.7142 122.555C79.6666 109.12 73.2424 94.4177 78.5316 83.2355C87.1368 65.0625 123.659 61.7593 159.939 75.8605C172.507 80.7475 183.889 87.2966 192.843 94.7921C208.891 108.228 215.301 122.921 210.012 134.103C201.421 152.285 164.899 155.588 128.619 141.487ZM188.715 95.4578C180.518 88.5908 170.109 82.6019 158.61 78.1235C125.388 65.2043 91.8936 68.3222 83.9669 85.0854C78.9786 95.6204 84.9178 109.374 99.8527 121.886C108.049 128.753 118.458 134.742 129.957 139.22C163.18 152.139 196.659 149.012 204.586 132.249C209.574 121.714 203.635 107.961 188.715 95.4578ZM130 138.844C96.9068 125.976 76.3709 101.966 84.2451 85.3234C92.124 68.6934 125.455 65.6381 158.558 78.5027C191.651 91.3709 212.172 115.372 204.293 132.002C196.429 148.641 163.102 151.709 130 138.844Z" fill="url(#paint4_linear_736_3084)"/>
<path d="M217.278 158.783C217.283 158.767 217.293 158.764 217.297 158.747C217.67 158.116 218.019 157.479 218.335 156.812C218.358 156.76 218.378 156.724 218.401 156.671C218.54 156.374 218.64 156.062 218.769 155.769C218.927 155.378 219.099 154.996 219.232 154.6C219.242 154.567 219.256 154.547 219.266 154.515C219.361 154.22 219.433 153.919 219.519 153.628C219.638 153.223 219.767 152.814 219.872 152.4C219.881 152.368 219.895 152.319 219.905 152.287C219.972 152.003 220 151.704 220.057 151.424C220.133 150.992 220.224 150.57 220.276 150.133C220.281 150.088 220.295 150.04 220.304 149.979C220.385 149.33 220.427 148.667 220.45 148.012L221.054 129.491C221.031 130.204 220.97 130.903 220.88 131.613C220.828 132.049 220.737 132.472 220.661 132.903C220.599 133.229 220.561 133.559 220.476 133.88C220.38 134.29 220.251 134.698 220.123 135.107C220.027 135.431 219.946 135.764 219.836 136.079C219.703 136.475 219.531 136.857 219.373 137.248C219.23 137.59 219.106 137.954 218.943 138.304C218.628 138.971 218.279 139.608 217.906 140.239C217.839 140.351 217.758 140.454 217.691 140.566C217.352 141.113 216.998 141.651 216.605 142.175C216.242 142.66 215.864 143.135 215.467 143.589C215.381 143.68 215.304 143.767 215.223 143.87C214.783 144.355 214.333 144.843 213.85 145.302C213.826 145.325 213.792 145.353 213.769 145.376C213.319 145.807 212.85 146.217 212.357 146.622C212.213 146.735 212.074 146.86 211.931 146.972C211.4 147.392 210.859 147.815 210.289 148.22C210.28 148.224 210.27 148.228 210.26 148.231C209.681 148.641 209.078 149.016 208.456 149.398C208.26 149.517 208.054 149.639 207.853 149.745C207.431 149.993 207.005 150.228 206.565 150.455C206.22 150.645 205.866 150.809 205.507 150.99C205.119 151.182 204.731 151.374 204.338 151.554C203.974 151.722 203.596 151.882 203.218 152.041C202.773 152.227 202.318 152.416 201.858 152.592C201.599 152.691 201.35 152.787 201.092 152.886C200.512 153.094 199.933 153.302 199.334 153.489C199.138 153.55 198.946 153.624 198.75 153.685C197.955 153.932 197.155 154.168 196.327 154.385C196.135 154.43 195.953 154.471 195.766 154.528C195.168 154.686 194.555 154.836 193.937 154.972C192.826 155.226 191.695 155.459 190.531 155.662C190.479 155.668 190.426 155.674 190.378 155.692C189.262 155.876 188.117 156.043 186.953 156.188C186.584 156.229 186.216 156.27 185.837 156.315C184.941 156.414 184.031 156.505 183.111 156.571C182.728 156.603 182.345 156.635 181.957 156.655C180.778 156.734 179.59 156.788 178.383 156.82C178.287 156.828 178.187 156.824 178.091 156.832C176.644 156.87 175.159 156.865 173.664 156.836C173.285 156.823 172.897 156.814 172.519 156.801C171.13 156.76 169.721 156.698 168.288 156.601C168.154 156.595 168.01 156.593 167.871 156.574C167.598 156.55 167.325 156.525 167.052 156.501C166.214 156.435 165.375 156.369 164.517 156.282C164.105 156.239 163.688 156.183 163.267 156.144C162.601 156.069 161.944 155.991 161.278 155.916C159.731 155.72 158.188 155.508 156.616 155.249C156.276 155.193 155.921 155.128 155.581 155.072C154.498 154.884 153.4 154.688 152.308 154.475C151.8 154.383 151.287 154.278 150.784 154.169C149.912 153.987 149.025 153.796 148.148 153.601C147.616 153.475 147.089 153.361 146.557 153.235C145.709 153.029 144.861 152.823 144.008 152.604C143.485 152.475 142.972 152.341 142.445 152.199C141.573 151.959 140.696 151.706 139.809 151.458C139.33 151.326 138.86 151.19 138.376 151.045C137.408 150.756 136.43 150.442 135.453 150.128C135.088 150.009 134.719 149.906 134.355 149.788C133.013 149.355 131.671 148.893 130.329 148.402C129.068 147.953 127.798 147.478 126.533 146.986C126.144 146.834 125.751 146.669 125.363 146.516C124.376 146.119 123.388 145.723 122.42 145.318C122.012 145.144 121.605 144.97 121.198 144.796C120.248 144.385 119.309 143.97 118.374 143.539C118.029 143.384 117.669 143.22 117.324 143.065C116.04 142.467 114.784 141.857 113.537 141.244C113.345 141.145 113.154 141.046 112.962 140.947C111.826 140.363 110.699 139.776 109.592 139.181C109.275 139.015 108.954 138.837 108.647 138.667C107.266 137.904 105.914 137.13 104.591 136.345C104.092 136.048 103.603 135.748 103.114 135.447C102.755 135.226 102.381 134.996 102.021 134.775C101.47 134.426 100.928 134.074 100.391 133.734C100.07 133.527 99.7483 133.32 99.427 133.113C99.2065 132.967 98.9955 132.819 98.7749 132.673C98.0077 132.163 97.2597 131.646 96.5212 131.125C96.1903 130.893 95.869 130.657 95.5525 130.434C94.9291 129.983 94.3201 129.542 93.7159 129.084C93.3898 128.836 93.0685 128.6 92.7568 128.361C92.0854 127.843 91.4092 127.312 90.757 126.787C90.5172 126.591 90.2678 126.4 90.028 126.205C89.1599 125.489 88.3014 124.77 87.4812 124.036C87.3326 123.906 87.1791 123.764 87.0304 123.634C86.3589 123.03 85.7018 122.435 85.059 121.82C84.8 121.574 84.5553 121.338 84.3059 121.089C83.7638 120.564 83.2362 120.048 82.7229 119.513C82.4878 119.272 82.2384 119.023 82.0129 118.78C81.4084 118.15 80.8279 117.525 80.2666 116.893C80.1514 116.764 80.0363 116.636 79.9259 116.521C79.2638 115.769 78.6209 115.01 77.9971 114.244C77.8291 114.036 77.6707 113.823 77.5028 113.615C77.0565 113.054 76.6342 112.497 76.2071 111.929C76.0199 111.67 75.8327 111.411 75.6455 111.153C75.2472 110.602 74.868 110.043 74.5032 109.494C74.3496 109.266 74.2008 109.05 74.0568 108.818C73.5671 108.057 73.0966 107.29 72.6597 106.524C72.6165 106.44 72.5732 106.356 72.5156 106.263C72.1315 105.577 71.7713 104.897 71.4255 104.225C71.3006 103.985 71.1949 103.739 71.0796 103.496C70.8202 102.963 70.5752 102.411 70.3493 101.88C70.2436 101.633 70.1331 101.374 70.0369 101.123C69.7966 100.526 69.5755 99.9211 69.3687 99.3252C69.3158 99.1587 69.2437 98.9997 69.1908 98.8332C68.9455 98.0798 68.7337 97.3278 68.5459 96.5809C68.4978 96.3983 68.4688 96.2083 68.4159 96.0131C68.2858 95.4453 68.1701 94.8863 68.0735 94.32C68.0349 94.0762 67.9914 93.8199 67.9624 93.5725C67.8898 93.04 67.8365 92.529 67.7879 92.0017C67.7685 91.7793 67.7442 91.5443 67.7391 91.3308C67.6999 90.5988 67.675 89.8756 67.7076 89.1592L67.1037 107.68C67.0806 108.393 67.0959 109.119 67.1352 109.851C67.1451 110.078 67.1741 110.296 67.184 110.522C67.2278 111.037 67.2859 111.561 67.3585 112.093C67.3971 112.337 67.4261 112.584 67.4696 112.841C67.5661 113.407 67.6818 113.966 67.8119 114.534C67.8505 114.72 67.8891 114.906 67.942 115.102C68.1298 115.848 68.3416 116.6 68.5869 117.354C68.6398 117.52 68.7023 117.683 68.7648 117.846C68.9715 118.442 69.1879 119.034 69.433 119.644C69.5291 119.894 69.6397 120.153 69.7454 120.4C69.976 120.944 70.2163 121.484 70.4757 122.016C70.5909 122.259 70.7062 122.502 70.8215 122.745C71.1578 123.421 71.5179 124.102 71.9021 124.787C71.9453 124.871 71.9934 124.968 72.0462 125.048C72.4831 125.814 72.9536 126.582 73.4433 127.342C73.5825 127.561 73.7361 127.79 73.8897 128.018C74.2545 128.568 74.6337 129.126 75.032 129.677C75.2192 129.936 75.4064 130.194 75.5936 130.453C76.0063 131.013 76.443 131.578 76.8845 132.127C77.0524 132.335 77.2108 132.547 77.3836 132.768C78.0025 133.522 78.6359 134.285 79.3124 135.045C79.4276 135.173 79.5427 135.301 79.653 135.417C80.2144 136.049 80.7997 136.686 81.3993 137.304C81.6344 137.544 81.8695 137.784 82.1093 138.037C82.6274 138.556 83.1503 139.088 83.6924 139.613C83.9418 139.862 84.196 140.095 84.4455 140.344C85.0883 140.959 85.7454 141.554 86.4264 142.155C86.5751 142.285 86.7142 142.418 86.8677 142.56C87.6975 143.29 88.5464 144.013 89.4241 144.725C89.6639 144.92 89.9037 145.116 90.1386 145.298C90.7957 145.836 91.4671 146.354 92.1433 146.885C92.2871 147.002 92.431 147.119 92.5797 147.22C92.7523 147.355 92.9297 147.474 93.1024 147.609C93.7066 148.066 94.3204 148.52 94.939 148.958C95.2603 149.194 95.5768 149.417 95.9077 149.649C96.6461 150.17 97.4038 150.684 98.1614 151.198C98.3388 151.316 98.5067 151.439 98.6841 151.557C98.7272 151.584 98.7704 151.61 98.8039 151.641C99.1156 151.851 99.4465 152.055 99.7677 152.262C100.31 152.614 100.842 152.97 101.388 153.306C101.753 153.54 102.122 153.757 102.496 153.987C102.913 154.244 103.335 154.513 103.762 154.766C103.834 154.81 103.901 154.842 103.973 154.886C105.296 155.671 106.648 156.445 108.029 157.208C108.168 157.284 108.288 157.367 108.422 157.43C108.604 157.533 108.791 157.619 108.973 157.721C110.081 158.316 111.198 158.908 112.344 159.488C112.492 159.56 112.622 159.64 112.77 159.712C112.813 159.738 112.866 159.761 112.904 159.775C114.146 160.405 115.412 161.011 116.692 161.597C116.802 161.655 116.907 161.701 117.018 161.759C117.257 161.868 117.507 161.974 117.737 162.086C118.671 162.518 119.611 162.933 120.56 163.344C120.785 163.445 121.011 163.545 121.236 163.645C121.418 163.719 121.6 163.793 121.782 163.866C122.756 164.283 123.743 164.68 124.74 165.073C124.975 165.169 125.21 165.266 125.445 165.363C125.598 165.419 125.742 165.478 125.9 165.547C127.142 166.033 128.388 166.503 129.634 166.944C129.658 166.949 129.672 166.958 129.696 166.963C131.038 167.453 132.376 167.902 133.722 168.348C133.761 168.362 133.785 168.367 133.823 168.381C134.163 168.495 134.484 168.587 134.82 168.688C135.798 169.002 136.775 169.317 137.744 169.606C137.83 169.63 137.907 169.658 137.993 169.682C138.391 169.803 138.779 169.898 139.172 170.006C140.049 170.258 140.926 170.51 141.808 170.746C141.956 170.79 142.105 170.834 142.249 170.865C142.627 170.963 142.992 171.053 143.365 171.14C144.218 171.358 145.071 171.577 145.92 171.783C146.14 171.842 146.361 171.901 146.576 171.947C146.888 172.014 147.199 172.082 147.511 172.149C148.388 172.344 149.274 172.535 150.146 172.717C150.444 172.776 150.736 172.85 151.033 172.908C151.249 172.955 151.46 172.989 151.67 173.023C152.763 173.236 153.86 173.432 154.943 173.62C155.212 173.66 155.49 173.726 155.768 173.763C155.839 173.779 155.916 173.778 155.988 173.793C157.56 174.052 159.103 174.264 160.65 174.46C160.789 174.479 160.919 174.501 161.058 174.519C161.59 174.588 162.121 174.628 162.653 174.697C163.065 174.74 163.482 174.795 163.89 174.826C164.747 174.913 165.586 174.979 166.424 175.045C166.697 175.07 166.97 175.094 167.244 175.118C167.277 175.12 167.311 175.121 167.344 175.123C167.445 175.127 167.545 175.132 167.656 175.133C169.088 175.229 170.497 175.292 171.886 175.333C172.265 175.346 172.653 175.355 173.031 175.368C174.526 175.397 176.011 175.402 177.458 175.363C177.468 175.36 177.482 175.369 177.501 175.361C177.587 175.357 177.664 175.356 177.75 175.352C178.958 175.319 180.155 175.262 181.324 175.187C181.712 175.167 182.095 175.135 182.479 175.103C183.398 175.037 184.309 174.946 185.204 174.846C185.573 174.805 185.942 174.764 186.311 174.723C187.475 174.578 188.62 174.411 189.736 174.227C189.789 174.221 189.841 174.216 189.889 174.197C191.053 173.995 192.183 173.762 193.295 173.508C193.405 173.48 193.529 173.461 193.649 173.429C194.152 173.308 194.631 173.181 195.124 173.064C195.316 173.019 195.507 172.974 195.684 172.921C196.513 172.703 197.313 172.468 198.108 172.22C198.304 172.159 198.496 172.086 198.692 172.024C199.286 171.825 199.87 171.63 200.45 171.422C200.708 171.322 200.957 171.227 201.216 171.128C201.455 171.036 201.699 170.956 201.934 170.852C202.154 170.767 202.365 170.658 202.585 170.573C202.963 170.413 203.332 170.257 203.706 170.085C204.108 169.902 204.486 169.714 204.874 169.522C205.233 169.341 205.583 169.164 205.932 168.986C206.085 168.899 206.258 168.833 206.411 168.745C206.693 168.594 206.947 168.424 207.229 168.273C207.426 168.154 207.636 168.045 207.833 167.926C208.445 167.547 209.049 167.172 209.628 166.763C209.637 166.759 209.647 166.756 209.652 166.74C210.221 166.334 210.767 165.924 211.298 165.504C211.442 165.392 211.581 165.266 211.715 165.157C211.873 165.025 212.035 164.905 212.184 164.776C212.504 164.495 212.82 164.201 213.126 163.912C213.15 163.888 213.174 163.864 213.198 163.841C213.543 163.507 213.882 163.162 214.212 162.819C214.337 162.685 214.456 162.539 214.581 162.405C214.667 162.314 214.743 162.228 214.825 162.125C215.193 161.71 215.538 161.291 215.872 160.846C215.911 160.803 215.935 160.75 215.963 160.711C216.346 160.19 216.709 159.648 217.049 159.101C217.14 158.966 217.216 158.879 217.278 158.783Z" fill="url(#paint5_linear_736_3084)"/>
<path opacity="0.7" d="M208.957 149.047L93.3694 128.786C89.6001 125.923 86.1756 122.956 83.1534 119.921L215.777 143.168C213.925 145.387 211.633 147.345 208.957 149.047ZM220.066 121.566L68.1786 94.9399C68.6512 97.402 69.4833 99.9128 70.6076 102.441L221.019 128.8C221.04 126.45 220.711 124.019 220.066 121.566ZM220.274 134.56C220.541 133.567 220.722 132.549 220.845 131.525L72.0918 105.448C72.7257 106.613 73.4027 107.775 74.1612 108.949L220.274 134.56ZM193.568 88.4949L81.0567 68.7765C75.9246 71.7236 72.0392 75.5713 69.7936 80.3124C69.7075 80.4891 69.6407 80.6872 69.5691 80.8727L211.829 105.807C207.232 99.8142 201.054 93.9395 193.568 88.4949Z" fill="url(#paint6_linear_736_3084)"/>
</g>
<defs>
<filter id="filter0_d_736_3084" x="0.427078" y="0.416662" width="287.294" height="246.974" filterUnits="userSpaceOnUse" color-interpolation-filters="sRGB">
<feFlood flood-opacity="0" result="BackgroundImageFix"/>
<feColorMatrix in="SourceAlpha" type="matrix" values="0 0 0 0 0 0 0 0 0 0 0 0 0 0 0 0 0 0 127 0" result="hardAlpha"/>
<feOffset dy="5.33333"/>
<feGaussianBlur stdDeviation="33.3333"/>
<feColorMatrix type="matrix" values="0 0 0 0 0.0666666 0 0 0 0 0.0941176 0 0 0 0 0.286275 0 0 0 0.5 0"/>
<feBlend mode="normal" in2="BackgroundImageFix" result="effect1_dropShadow_736_3084"/>
<feBlend mode="normal" in="SourceGraphic" in2="effect1_dropShadow_736_3084" result="shape"/>
</filter>
<linearGradient id="paint0_linear_736_3084" x1="184.705" y1="74.7579" x2="95.1821" y2="132.341" gradientUnits="userSpaceOnUse">
<stop offset="0.0317" stop-color="#FCE878"/>
<stop offset="0.0527" stop-color="#FCE676"/>
<stop offset="0.6976" stop-color="#FEB432"/>
<stop offset="1" stop-color="#FFA018"/>
</linearGradient>
<linearGradient id="paint1_linear_736_3084" x1="70.2082" y1="140.136" x2="197.393" y2="88.9433" gradientUnits="userSpaceOnUse">
<stop stop-color="#FFE6B9" stop-opacity="0"/>
<stop offset="0.3821" stop-color="#FFF3DE" stop-opacity="0.4239"/>
<stop offset="0.7037" stop-color="#FFFCF6" stop-opacity="0.7807"/>
<stop offset="0.9014" stop-color="white"/>
</linearGradient>
<linearGradient id="paint2_linear_736_3084" x1="182.191" y1="89.2687" x2="97.0582" y2="128.996" gradientUnits="userSpaceOnUse">
<stop offset="0.0431" stop-color="#FFA018"/>
<stop offset="0.9874" stop-color="#D36B18"/>
</linearGradient>
<linearGradient id="paint3_linear_736_3084" x1="95.4997" y1="180.449" x2="184.348" y2="97.22" gradientUnits="userSpaceOnUse">
<stop stop-color="#FFB817"/>
<stop offset="0.9893" stop-color="#FFFFBC"/>
</linearGradient>
<linearGradient id="paint4_linear_736_3084" x1="103.862" y1="126.096" x2="195.268" y2="88.4916" gradientUnits="userSpaceOnUse">
<stop stop-color="#FFE6B9" stop-opacity="0"/>
<stop offset="0.3821" stop-color="#FFF3DE" stop-opacity="0.4239"/>
<stop offset="0.7037" stop-color="#FFFCF6" stop-opacity="0.7807"/>
<stop offset="0.9014" stop-color="white"/>
</linearGradient>
<linearGradient id="paint5_linear_736_3084" x1="220.034" y1="158.791" x2="66.2068" y2="155.249" gradientUnits="userSpaceOnUse">
<stop stop-color="#FFC826"/>
<stop offset="0.0945" stop-color="#FFA018"/>
<stop offset="0.2186" stop-color="#F8771E"/>
<stop offset="0.3662" stop-color="#EC6D1A"/>
<stop offset="0.6301" stop-color="#CD510E"/>
<stop offset="0.721" stop-color="#C14609"/>
<stop offset="0.7796" stop-color="#C64A0B"/>
<stop offset="0.8451" stop-color="#D35610"/>
<stop offset="0.9137" stop-color="#E96A18"/>
<stop offset="0.9495" stop-color="#F8771E"/>
<stop offset="0.9701" stop-color="#F87A1E"/>
<stop offset="0.9825" stop-color="#FA821C"/>
<stop offset="0.9927" stop-color="#FC901A"/>
<stop offset="1" stop-color="#FFA018"/>
</linearGradient>
<linearGradient id="paint6_linear_736_3084" x1="92.4715" y1="130.712" x2="218.709" y2="79.9614" gradientUnits="userSpaceOnUse">
<stop stop-color="#FFE6B9" stop-opacity="0"/>
<stop offset="0.9014" stop-color="white"/>
</linearGradient>
</defs>
</svg>
