<svg width="405" height="404" viewBox="0 0 405 404" fill="none" xmlns="http://www.w3.org/2000/svg">
<g style="mix-blend-mode:luminosity" filter="url(#filter0_d_672_3744)">
<path d="M267.778 124.34C204.531 66.8876 127.138 45.2294 94.9395 75.9918C62.7207 106.728 87.8966 178.239 151.144 235.692C214.391 293.145 291.784 314.803 323.983 284.041C356.182 253.278 331.026 181.793 267.778 124.34Z" fill="url(#paint0_linear_672_3744)"/>
<path opacity="0.7" d="M267.778 124.34C204.531 66.8876 127.138 45.2294 94.9395 75.9918C62.7207 106.728 87.8966 178.239 151.144 235.692C214.391 293.145 291.784 314.803 323.983 284.041C356.182 253.278 331.026 181.793 267.778 124.34ZM151.759 234.784C130.095 215.123 112.16 193.024 99.8596 170.873C77.6794 130.929 76.1716 95.8863 95.8322 77.1071C127.654 46.7337 204.491 68.3401 267.144 125.222C288.808 144.909 306.743 166.982 319.043 189.133C341.223 229.078 342.731 264.12 323.07 282.899C291.268 313.273 214.411 291.692 151.759 234.784Z" fill="url(#paint1_linear_672_3744)"/>
<path d="M233.079 157.073L227.544 141.432L244.447 146.205L249.982 161.794L233.079 157.073ZM168.185 198.107L173.74 213.722L190.623 218.494L185.108 202.88L168.185 198.107ZM310.492 272.082C282.181 299.11 213.657 279.812 157.73 228.999C101.803 178.213 79.3453 114.872 107.676 87.8446C135.986 60.8172 204.531 80.141 260.457 130.954C316.364 181.74 338.822 245.055 310.492 272.082ZM301.286 263.704C327.038 239.141 306.623 181.584 255.795 135.415C204.967 89.2452 142.652 71.6593 116.901 96.2226C91.1496 120.786 111.584 178.368 162.412 224.564C213.24 270.733 275.535 288.293 301.286 263.704ZM280.852 237.585C280.336 236.988 271.627 229.336 267.56 225.783C275.952 216.16 270.04 200.338 256.013 187.602C234.924 168.434 220.957 167.734 207.387 167.786C198.043 167.656 190.603 169.809 182.211 162.157C177.787 158.137 177.371 154.142 179.533 152.067C181.914 149.785 190.306 151.678 201.674 159.511C202.11 159.278 202.686 158.837 203.34 158.214C205.622 156.036 208.975 151.626 211.197 146.309C203.539 139.357 176.994 115.235 173.562 112.434C173.562 112.434 163.126 120.5 162.452 120.578C162.372 120.656 168.146 126.155 171.24 129.242C168.939 128.412 163.979 127.659 158.762 129.06C152.274 123.457 142.315 115.105 142.176 115.235C142.077 115.339 137.99 118.633 135.927 120.604C135.153 121.356 134.657 121.901 134.776 122.031C135.212 122.42 142.89 129.683 149.219 135.155C142.95 142.807 148.227 160.289 164.317 174.892C182.45 191.363 195.881 193.127 210.205 193.775C222.207 194.372 231.075 191.986 236.392 196.81C242.285 202.153 240.856 206.018 239.507 207.289C237.186 209.494 231.393 208.949 222.465 201.557C222.247 201.349 220.501 202.724 218.517 204.643C215.085 207.912 210.899 212.762 212.288 214.033C217.029 218.339 244.209 245.392 244.903 245.314C249.764 244.821 254.069 241.294 256.093 239.348C256.886 238.596 257.323 238.077 257.323 238.077L250.776 231.152C252.998 231.775 256.212 231.775 259.307 230.97C263.215 234.394 274.821 244.795 275.614 245.366C275.773 245.496 276.09 245.288 276.487 244.899C278.174 243.265 281.388 238.181 280.852 237.585Z" fill="url(#paint2_linear_672_3744)"/>
<path d="M233.739 155.934L228.204 140.293L245.107 145.066L250.642 160.655L233.739 155.934ZM168.845 196.942L174.4 212.557L191.283 217.329L185.768 201.715L168.845 196.942ZM311.152 270.917C282.841 297.945 214.317 278.647 158.39 227.834C102.463 177.048 80.0055 113.707 108.336 86.6795C136.646 59.6521 205.191 78.9759 261.117 129.788C317.024 180.601 339.482 243.89 311.152 270.917ZM301.946 262.565C327.698 238.002 307.283 180.445 256.455 134.276C205.627 88.1061 143.312 70.5202 117.561 95.0835C91.8098 119.647 112.244 177.229 163.072 223.425C213.9 269.568 276.195 287.128 301.946 262.565ZM281.512 236.42C280.996 235.823 272.287 228.171 268.22 224.618C276.612 214.995 270.7 199.173 256.673 186.437C235.584 167.269 221.618 166.569 208.048 166.62C198.703 166.491 191.264 168.644 182.872 160.992C178.447 156.971 178.031 152.977 180.193 150.902C182.574 148.62 190.966 150.513 202.334 158.346C202.77 158.113 203.346 157.672 204 157.049C206.282 154.871 209.635 150.461 211.857 145.144C204.199 138.192 177.654 114.07 174.222 111.269C174.222 111.269 163.786 119.335 163.112 119.413C163.032 119.491 168.806 124.99 171.901 128.077C169.599 127.247 164.639 126.494 159.422 127.895C152.934 122.292 142.975 113.94 142.836 114.07C142.737 114.174 138.65 117.468 136.587 119.439C135.813 120.191 135.317 120.736 135.436 120.84C135.873 121.229 143.55 128.492 149.879 133.965C143.61 141.616 148.887 159.073 164.977 173.702C183.11 190.172 196.541 191.936 210.865 192.584C222.867 193.181 231.736 190.795 237.052 195.619C242.945 200.962 241.516 204.827 240.167 206.098C237.846 208.303 232.053 207.758 223.125 200.366C222.907 200.158 221.161 201.533 219.177 203.452C215.745 206.721 211.559 211.571 212.948 212.842C217.689 217.148 244.869 244.201 245.563 244.123C250.424 243.63 254.729 240.103 256.753 238.157C257.546 237.405 257.983 236.887 257.983 236.887L251.436 229.961C253.658 230.584 256.872 230.584 259.967 229.78C263.875 233.203 275.481 243.604 276.275 244.175C276.433 244.305 276.751 244.097 277.147 243.708C278.834 242.1 282.068 237.016 281.512 236.42Z" fill="url(#paint3_linear_672_3744)"/>
<path opacity="0.7" d="M281.511 236.418C280.996 235.822 272.286 228.17 268.219 224.617C276.611 214.994 270.699 199.172 256.673 186.436C235.584 167.268 221.617 166.567 208.047 166.619C198.703 166.49 191.263 168.642 182.871 160.991C178.447 156.97 178.03 152.976 180.193 150.901C182.573 148.618 190.965 150.512 202.333 158.345C202.77 158.112 203.345 157.671 204 157.048C206.281 154.869 209.634 150.46 211.856 145.143C204.198 138.191 177.653 114.069 174.221 111.268C174.221 111.268 163.786 119.334 163.111 119.412C163.032 119.49 168.805 124.989 171.9 128.075C169.599 127.245 164.639 126.493 159.421 127.894C152.934 122.291 142.974 113.939 142.836 114.069C142.736 114.173 138.649 117.467 136.586 119.438C135.812 120.19 135.316 120.735 135.436 120.839C135.872 121.228 143.55 128.49 149.878 133.963C143.609 141.615 148.886 159.071 164.976 173.7C183.109 190.171 196.54 191.935 210.864 192.583C222.867 193.18 231.735 190.793 237.052 195.618C242.944 200.961 241.516 204.826 240.167 206.097C237.845 208.302 232.052 207.757 223.125 200.365C222.906 200.157 221.161 201.532 219.177 203.451C215.745 206.719 211.558 211.57 212.947 212.841C217.689 217.147 244.868 244.2 245.563 244.122C250.423 243.629 254.729 240.102 256.752 238.156C257.546 237.404 257.982 236.885 257.982 236.885L251.435 229.96C253.657 230.582 256.871 230.582 259.966 229.778C263.874 233.202 275.48 243.603 276.274 244.174C276.433 244.304 276.75 244.096 277.147 243.707C278.833 242.099 282.067 237.015 281.511 236.418ZM276.413 243.396C275.54 242.67 271.453 239.038 267.822 235.822C264.866 233.202 261.91 230.556 260.284 229.13L260.085 228.948L259.847 229C256.97 229.752 253.796 229.804 251.554 229.182L251.058 230.556L257.05 236.885C256.871 237.067 256.653 237.274 256.415 237.508C254.371 239.453 250.285 242.773 245.662 243.292C244.353 242.384 234.493 232.735 226.517 224.928C220.704 219.248 215.189 213.852 213.304 212.14C213.106 211.414 215.169 208.198 219.534 204.022C221.299 202.336 222.549 201.35 223.006 201.117C232.251 208.717 238.103 208.976 240.524 206.668C241.635 205.604 242.944 202.829 240.861 199.094C240.107 197.719 238.937 196.318 237.409 194.918C233.54 191.416 227.946 191.546 220.883 191.753C217.907 191.831 214.515 191.935 210.924 191.753C196.56 191.105 183.228 189.263 165.353 173.026C160.016 168.176 155.572 162.703 152.517 157.204C147.339 147.866 146.486 139.151 150.315 134.482L150.87 133.808L150.236 133.263C146.605 130.125 141.943 125.897 136.348 120.657L136.308 120.631C136.447 120.476 136.666 120.268 136.943 120.009C138.61 118.426 141.606 115.936 142.736 115.029C142.796 114.977 142.836 114.951 142.875 114.899C144.462 116.066 152.834 123.069 159.104 128.49L159.302 128.672L159.54 128.62C164.877 127.194 169.718 128.075 171.741 128.802L172.257 127.427C170.967 126.156 169.222 124.444 167.615 122.888C166.385 121.695 165.036 120.372 164.222 119.568C166.206 118.271 170.491 115.029 174.201 112.149C177.118 114.614 189.497 125.767 211.062 145.35C208.86 150.382 205.726 154.402 203.643 156.4C203.166 156.867 202.71 157.23 202.353 157.463C192.017 150.408 182.792 147.451 179.836 150.252C177.971 152.016 177.812 154.947 179.419 157.826C180.133 159.123 181.165 160.368 182.514 161.587C189.458 167.89 195.647 167.683 202.829 167.449C204.496 167.397 206.242 167.32 208.027 167.372C223.065 167.32 236.159 168.72 256.336 187.058C261.077 191.364 264.985 196.137 267.604 200.857C272.723 210.065 272.802 218.288 267.822 223.994L267.247 224.669L267.882 225.239C275.044 231.49 279.904 235.796 280.916 236.782C280.559 237.923 278.317 241.58 276.77 243.059C276.611 243.266 276.492 243.344 276.413 243.396ZM168.845 196.941L174.4 212.555L191.283 217.328L185.768 201.713L168.845 196.941ZM190.251 216.239L174.816 211.881L169.896 198.03L185.351 202.388L190.251 216.239ZM250.622 160.679L245.087 145.091L228.184 140.318L233.719 155.959L250.622 160.679ZM229.235 141.382L244.69 145.739L249.59 159.564L234.155 155.233L229.235 141.382ZM261.117 129.787C205.19 79.0007 136.666 59.651 108.335 86.6784C80.0247 113.706 102.483 177.046 158.389 227.833C214.316 278.62 282.841 297.943 311.151 270.916C339.482 243.889 317.024 180.6 261.117 129.787ZM158.727 227.211C139.423 209.676 123.413 189.964 112.442 170.225C92.7813 134.845 91.3727 103.849 108.672 87.3268C136.804 60.481 205.031 79.8307 260.76 130.436C280.063 147.97 296.073 167.683 307.044 187.422C326.705 222.801 328.094 253.771 310.794 270.293C282.682 297.165 214.455 277.816 158.727 227.211ZM299.129 185.762C289.09 167.683 274.449 149.656 256.792 133.6C205.765 87.249 143.133 69.6631 117.203 94.4339C100.896 109.997 102.086 138.943 120.378 171.885C130.416 189.963 145.058 207.99 162.714 224.046C213.741 270.397 276.353 287.957 302.283 263.187C318.591 247.624 317.4 218.677 299.129 185.762ZM163.052 223.398C112.224 177.228 91.7893 119.646 117.541 95.0564C143.292 70.4931 205.587 88.079 256.435 134.249C307.263 180.418 327.677 237.975 301.926 262.538C276.195 287.127 213.899 269.567 163.052 223.398Z" fill="url(#paint4_linear_672_3744)"/>
<path d="M306.804 319.887C306.824 319.861 306.844 319.861 306.863 319.835C307.974 318.954 309.046 318.046 310.077 317.06C310.157 316.982 310.216 316.93 310.296 316.853C310.752 316.412 311.149 315.919 311.585 315.478C312.141 314.881 312.716 314.311 313.232 313.688C313.272 313.636 313.311 313.61 313.351 313.558C313.728 313.092 314.065 312.599 314.422 312.132C314.918 311.483 315.434 310.835 315.91 310.161C315.95 310.109 316.009 310.031 316.049 309.979C316.366 309.512 316.624 308.993 316.922 308.526C317.358 307.8 317.815 307.1 318.211 306.348C318.251 306.27 318.311 306.192 318.37 306.088C318.965 304.973 319.501 303.806 319.997 302.639L333.924 269.619C333.388 270.89 332.793 272.11 332.139 273.329C331.742 274.081 331.286 274.781 330.849 275.507C330.512 276.052 330.214 276.623 329.837 277.142C329.381 277.816 328.865 278.464 328.349 279.113C327.953 279.632 327.576 280.176 327.159 280.669C326.643 281.292 326.068 281.862 325.512 282.459C325.016 282.978 324.54 283.548 324.005 284.067C322.973 285.053 321.902 285.96 320.791 286.842C320.592 286.998 320.374 287.128 320.176 287.283C319.184 288.035 318.172 288.762 317.101 289.436C316.109 290.059 315.097 290.655 314.065 291.2C313.847 291.304 313.648 291.407 313.43 291.537C312.299 292.108 311.149 292.678 309.958 293.171C309.899 293.197 309.819 293.223 309.76 293.249C308.649 293.716 307.518 294.131 306.348 294.52C306.01 294.624 305.673 294.753 305.336 294.857C304.086 295.246 302.816 295.635 301.507 295.972C301.487 295.972 301.467 295.972 301.447 295.972C300.118 296.31 298.769 296.569 297.38 296.828C296.944 296.906 296.488 296.984 296.051 297.036C295.119 297.192 294.186 297.321 293.234 297.425C292.48 297.529 291.726 297.581 290.952 297.658C290.119 297.736 289.286 297.814 288.453 297.866C287.679 297.918 286.885 297.944 286.092 297.97C285.159 297.996 284.207 298.022 283.255 298.022C282.719 298.022 282.203 298.022 281.668 298.022C280.477 297.996 279.287 297.97 278.077 297.892C277.68 297.866 277.283 297.866 276.886 297.84C275.28 297.736 273.673 297.607 272.026 297.425C271.649 297.373 271.292 297.321 270.915 297.295C269.725 297.166 268.514 297.01 267.304 296.828C265.122 296.517 262.92 296.154 260.678 295.713C260.579 295.687 260.479 295.661 260.38 295.661C258.238 295.22 256.055 294.727 253.853 294.183C253.159 294.001 252.464 293.82 251.75 293.638C250.064 293.197 248.358 292.73 246.652 292.212C245.937 292.004 245.223 291.797 244.509 291.563C242.327 290.889 240.144 290.162 237.942 289.384C237.764 289.332 237.585 289.255 237.406 289.203C234.768 288.269 232.09 287.231 229.411 286.142C228.737 285.857 228.042 285.571 227.368 285.286C224.888 284.249 222.388 283.159 219.869 281.992C219.631 281.888 219.373 281.784 219.135 281.655C218.658 281.421 218.182 281.188 217.706 280.954C216.238 280.254 214.77 279.554 213.282 278.802C212.568 278.438 211.854 278.049 211.12 277.686C209.969 277.09 208.838 276.493 207.687 275.897C205.029 274.47 202.39 273.017 199.732 271.461C199.157 271.124 198.561 270.761 197.986 270.424C196.161 269.334 194.316 268.219 192.491 267.078C191.638 266.559 190.784 266.014 189.951 265.469C188.503 264.536 187.035 263.576 185.587 262.616C184.714 262.02 183.841 261.449 182.968 260.852C181.579 259.893 180.19 258.933 178.802 257.947C177.948 257.351 177.115 256.754 176.262 256.132C174.854 255.094 173.445 254.031 172.017 252.967C171.243 252.397 170.489 251.826 169.715 251.229C168.168 250.036 166.62 248.791 165.073 247.546C164.498 247.079 163.902 246.638 163.327 246.172C161.204 244.46 159.101 242.696 157.018 240.88C155.054 239.194 153.09 237.456 151.146 235.693C150.551 235.148 149.955 234.577 149.36 234.033C147.852 232.632 146.345 231.231 144.877 229.831C144.262 229.234 143.647 228.637 143.032 228.041C141.603 226.64 140.195 225.24 138.806 223.813C138.29 223.294 137.754 222.75 137.238 222.231C135.334 220.259 133.489 218.288 131.664 216.317C131.386 216.006 131.108 215.694 130.83 215.383C129.184 213.541 127.557 211.7 125.97 209.858C125.514 209.34 125.057 208.795 124.621 208.276C122.657 205.942 120.752 203.607 118.907 201.273C118.213 200.391 117.538 199.509 116.864 198.627C116.368 197.979 115.852 197.304 115.356 196.656C114.602 195.644 113.868 194.633 113.134 193.647C112.697 193.051 112.261 192.454 111.824 191.857C111.527 191.442 111.249 191.027 110.952 190.612C109.92 189.16 108.928 187.707 107.956 186.255C107.519 185.606 107.103 184.958 106.686 184.335C105.873 183.09 105.079 181.871 104.305 180.626C103.889 179.952 103.472 179.303 103.075 178.655C102.222 177.254 101.369 175.828 100.556 174.427C100.258 173.908 99.9408 173.39 99.6432 172.871C98.5719 170.977 97.5204 169.084 96.5483 167.19C96.3698 166.853 96.1912 166.49 96.0127 166.153C95.2191 164.597 94.4454 163.066 93.7113 161.51C93.4137 160.887 93.136 160.291 92.8582 159.668C92.2432 158.345 91.648 157.049 91.0925 155.726C90.8346 155.129 90.5569 154.507 90.3188 153.91C89.6641 152.354 89.0491 150.823 88.4738 149.293C88.3547 148.982 88.2357 148.671 88.1167 148.385C87.4421 146.57 86.8073 144.754 86.2121 142.938C86.0534 142.445 85.9145 141.953 85.7558 141.46C85.3392 140.137 84.9622 138.84 84.5853 137.517C84.4266 136.921 84.2679 136.324 84.1091 135.728C83.7719 134.457 83.4743 133.186 83.1965 131.941C83.0775 131.422 82.9585 130.929 82.8593 130.41C82.5022 128.698 82.1848 126.986 81.9268 125.3C81.907 125.119 81.8872 124.937 81.8475 124.73C81.6293 123.225 81.4507 121.747 81.292 120.294C81.2325 119.776 81.2126 119.257 81.173 118.738C81.0738 117.597 81.0142 116.43 80.9746 115.314C80.9547 114.796 80.9349 114.251 80.9349 113.732C80.915 112.487 80.9349 111.242 80.9746 110.023C80.9944 109.686 80.9746 109.349 80.9944 109.011C81.0738 107.481 81.2126 105.977 81.3912 104.498C81.4309 104.135 81.5102 103.772 81.5499 103.383C81.7086 102.267 81.8872 101.178 82.1054 100.089C82.2046 99.6218 82.3038 99.129 82.4228 98.6621C82.6609 97.6505 82.9188 96.6908 83.1965 95.7052C83.3156 95.2902 83.4346 94.8492 83.5735 94.4601C84.01 93.1114 84.4663 91.7885 85.0218 90.5176L71.0947 123.537C70.559 124.808 70.0829 126.13 69.6464 127.479C69.5075 127.894 69.4083 128.309 69.2694 128.724C68.9917 129.684 68.7338 130.67 68.4957 131.681C68.3965 132.148 68.2775 132.615 68.1783 133.108C67.9601 134.197 67.7815 135.287 67.6228 136.402C67.5633 136.765 67.5038 137.128 67.4641 137.517C67.2855 138.996 67.1467 140.5 67.0673 142.03C67.0475 142.368 67.0475 142.705 67.0475 143.042C67.0078 144.261 66.9879 145.48 67.0078 146.751C67.0078 147.27 67.0276 147.815 67.0475 148.333C67.0871 149.475 67.1466 150.616 67.2458 151.757C67.2855 152.276 67.3252 152.795 67.3649 153.313C67.5038 154.766 67.6823 156.244 67.9005 157.749C67.9204 157.93 67.9402 158.138 67.9799 158.319C68.2378 160.005 68.5552 161.717 68.9123 163.429C69.0115 163.922 69.1306 164.441 69.2496 164.96C69.5274 166.205 69.8249 167.476 70.1622 168.747C70.3209 169.343 70.4796 169.94 70.6384 170.536C70.9955 171.833 71.3922 173.156 71.8089 174.453C71.9676 174.946 72.1065 175.439 72.2652 175.957C72.8603 177.747 73.4754 179.563 74.1697 181.404C74.2888 181.716 74.4078 182.027 74.5268 182.312C75.1022 183.842 75.7172 185.399 76.3719 186.929C76.6298 187.526 76.8877 188.122 77.1456 188.745C77.7209 190.042 78.2963 191.365 78.9113 192.687C79.189 193.31 79.4866 193.906 79.7644 194.529C80.4984 196.085 81.2722 197.616 82.0856 199.172C82.2641 199.509 82.4228 199.846 82.6014 200.209C83.5933 202.103 84.625 203.996 85.7161 205.89C86.0137 206.409 86.3113 206.927 86.6089 207.42C87.4223 208.847 88.2754 210.247 89.1285 211.674C89.307 211.985 89.4856 212.297 89.684 212.582C89.9022 212.945 90.1403 213.282 90.3585 213.645C91.1322 214.89 91.9258 216.135 92.7392 217.354C93.1558 218.003 93.5724 218.625 94.0089 219.274C94.981 220.726 95.9928 222.179 97.0046 223.631C97.2427 223.969 97.4609 224.306 97.699 224.643C97.7585 224.721 97.818 224.799 97.8577 224.876C98.2743 225.473 98.7306 226.07 99.1671 226.666C99.9011 227.678 100.615 228.689 101.369 229.675C101.865 230.349 102.381 230.998 102.897 231.672C103.472 232.424 104.048 233.203 104.643 233.955C104.742 234.084 104.841 234.188 104.94 234.318C106.785 236.652 108.69 238.987 110.654 241.321C110.852 241.555 111.011 241.788 111.209 241.996C111.467 242.307 111.745 242.592 112.003 242.903C113.59 244.745 115.197 246.587 116.864 248.428C117.082 248.662 117.26 248.895 117.479 249.128C117.538 249.206 117.618 249.284 117.677 249.336C119.482 251.333 121.347 253.305 123.252 255.25C123.411 255.431 123.569 255.587 123.728 255.769C124.085 256.132 124.462 256.495 124.799 256.858C126.188 258.285 127.597 259.685 129.025 261.086C129.362 261.423 129.7 261.76 130.037 262.097C130.315 262.357 130.592 262.616 130.87 262.876C132.338 264.302 133.846 265.703 135.374 267.103C135.731 267.441 136.088 267.778 136.445 268.115C136.683 268.323 136.901 268.53 137.139 268.764C139.044 270.501 140.968 272.213 142.912 273.873C142.952 273.899 142.972 273.925 143.012 273.951C145.095 275.767 147.198 277.505 149.321 279.243C149.38 279.294 149.42 279.32 149.479 279.372C150.015 279.813 150.531 280.202 151.066 280.617C152.614 281.862 154.161 283.107 155.709 284.3C155.848 284.404 155.967 284.508 156.106 284.612C156.74 285.104 157.375 285.545 158.01 286.012C159.419 287.076 160.827 288.139 162.256 289.177C162.494 289.358 162.732 289.54 162.97 289.696C163.585 290.136 164.18 290.551 164.795 290.966C166.184 291.952 167.573 292.938 168.961 293.897C169.318 294.157 169.676 294.416 170.033 294.65C170.548 294.987 171.064 295.324 171.58 295.661C173.028 296.621 174.496 297.581 175.945 298.514C176.441 298.826 176.917 299.163 177.413 299.474C177.77 299.708 178.127 299.915 178.484 300.123C180.309 301.264 182.154 302.379 183.98 303.469C184.436 303.728 184.892 304.039 185.368 304.299C185.487 304.376 185.626 304.428 185.745 304.506C188.404 306.062 191.042 307.515 193.701 308.941C193.939 309.071 194.157 309.201 194.395 309.331C195.308 309.823 196.24 310.264 197.153 310.757C197.867 311.12 198.581 311.509 199.295 311.847C200.783 312.599 202.251 313.299 203.72 313.999C204.196 314.233 204.672 314.466 205.148 314.7C205.208 314.726 205.267 314.752 205.327 314.778C205.505 314.855 205.684 314.933 205.882 315.011C208.402 316.178 210.901 317.268 213.381 318.305C214.056 318.59 214.75 318.876 215.425 319.161C218.103 320.25 220.781 321.288 223.42 322.222C223.44 322.222 223.46 322.248 223.499 322.248C223.658 322.3 223.797 322.351 223.956 322.403C226.158 323.181 228.36 323.908 230.522 324.582C231.237 324.816 231.951 325.023 232.665 325.231C234.371 325.749 236.077 326.216 237.764 326.657C238.458 326.839 239.152 327.02 239.847 327.202C242.049 327.747 244.231 328.239 246.374 328.68C246.473 328.706 246.572 328.732 246.671 328.732C248.913 329.173 251.115 329.536 253.298 329.848C253.516 329.873 253.754 329.925 253.992 329.951C254.984 330.081 255.936 330.185 256.908 330.314C257.285 330.366 257.662 330.418 258.019 330.444C259.666 330.626 261.273 330.755 262.88 330.859C263.277 330.885 263.674 330.885 264.07 330.911C265.281 330.963 266.471 331.015 267.661 331.041C268.197 331.041 268.713 331.041 269.248 331.041C269.744 331.041 270.24 331.067 270.736 331.041C271.193 331.041 271.649 330.989 272.105 330.989C272.899 330.963 273.673 330.937 274.466 330.885C275.319 330.833 276.133 330.755 276.966 330.678C277.74 330.6 278.493 330.522 279.247 330.444C279.585 330.392 279.942 330.392 280.279 330.34C280.894 330.263 281.469 330.133 282.084 330.055C282.521 329.977 282.977 329.925 283.414 329.848C284.782 329.588 286.132 329.329 287.461 328.992C287.481 328.992 287.5 328.992 287.52 328.966C288.83 328.628 290.099 328.265 291.349 327.876C291.686 327.773 292.024 327.643 292.341 327.539C292.718 327.409 293.095 327.306 293.452 327.176C294.226 326.891 295 326.579 295.754 326.268C295.813 326.242 295.873 326.216 295.932 326.19C296.785 325.827 297.638 325.438 298.472 325.049C298.789 324.893 299.106 324.712 299.424 324.556C299.642 324.452 299.84 324.349 300.059 324.219C301.011 323.726 301.924 323.207 302.836 322.637C302.935 322.585 303.015 322.507 303.094 322.455C304.145 321.781 305.177 321.055 306.169 320.302C306.427 320.121 306.625 320.017 306.804 319.887Z" fill="url(#paint5_linear_672_3744)"/>
<path opacity="0.7" d="M298.533 296.542L103.891 179.847C99.0696 172.066 94.943 164.336 91.5902 156.763L314.92 290.655C310.039 293.378 304.544 295.323 298.533 296.542ZM337.636 254.627L81.869 101.281C81.0159 106.054 80.7779 111.163 81.0556 116.507L334.342 268.348C336.009 264.12 337.1 259.503 337.636 254.627ZM329.006 278.23C330.176 276.622 331.208 274.91 332.14 273.146L81.6508 122.965C81.988 125.507 82.4047 128.075 82.9602 130.721L329.006 278.23ZM312.718 176.553L123.254 62.9707C111.945 64.7345 102.264 68.9883 94.9232 75.9916C94.6455 76.2509 94.3875 76.5622 94.1296 76.8476L333.688 220.466C329.541 206.46 322.459 191.571 312.718 176.553Z" fill="url(#paint6_linear_672_3744)"/>
</g>
<defs>
<filter id="filter0_d_672_3744" x="0.333328" y="0.666662" width="404.333" height="402.386" filterUnits="userSpaceOnUse" color-interpolation-filters="sRGB">
<feFlood flood-opacity="0" result="BackgroundImageFix"/>
<feColorMatrix in="SourceAlpha" type="matrix" values="0 0 0 0 0 0 0 0 0 0 0 0 0 0 0 0 0 0 127 0" result="hardAlpha"/>
<feOffset dy="5.33333"/>
<feGaussianBlur stdDeviation="33.3333"/>
<feColorMatrix type="matrix" values="0 0 0 0 0.0666666 0 0 0 0 0.0941176 0 0 0 0 0.286275 0 0 0 0.5 0"/>
<feBlend mode="normal" in2="BackgroundImageFix" result="effect1_dropShadow_672_3744"/>
<feBlend mode="normal" in="SourceGraphic" in2="effect1_dropShadow_672_3744" result="shape"/>
</filter>
<linearGradient id="paint0_linear_672_3744" x1="306.23" y1="145.608" x2="104.692" y2="187.521" gradientUnits="userSpaceOnUse">
<stop offset="0.0317" stop-color="#FCE878"/>
<stop offset="0.0527" stop-color="#FCE676"/>
<stop offset="0.6976" stop-color="#FEB432"/>
<stop offset="1" stop-color="#FFA018"/>
</linearGradient>
<linearGradient id="paint1_linear_672_3744" x1="54.2004" y1="184.286" x2="319.306" y2="180.013" gradientUnits="userSpaceOnUse">
<stop stop-color="#FFE6B9" stop-opacity="0"/>
<stop offset="0.3821" stop-color="#FFF3DE" stop-opacity="0.4239"/>
<stop offset="0.7037" stop-color="#FFFCF6" stop-opacity="0.7807"/>
<stop offset="0.9014" stop-color="white"/>
</linearGradient>
<linearGradient id="paint2_linear_672_3744" x1="291.633" y1="170.064" x2="110.397" y2="182.783" gradientUnits="userSpaceOnUse">
<stop offset="0.0431" stop-color="#FFA018"/>
<stop offset="0.9874" stop-color="#D36B18"/>
</linearGradient>
<linearGradient id="paint3_linear_672_3744" x1="71.9313" y1="274.599" x2="290.026" y2="185.916" gradientUnits="userSpaceOnUse">
<stop stop-color="#FFB817"/>
<stop offset="0.9893" stop-color="#FFFFBC"/>
</linearGradient>
<linearGradient id="paint4_linear_672_3744" x1="124.698" y1="182.265" x2="315.788" y2="177.727" gradientUnits="userSpaceOnUse">
<stop stop-color="#FFE6B9" stop-opacity="0"/>
<stop offset="0.3821" stop-color="#FFF3DE" stop-opacity="0.4239"/>
<stop offset="0.7037" stop-color="#FFFCF6" stop-opacity="0.7807"/>
<stop offset="0.9014" stop-color="white"/>
</linearGradient>
<linearGradient id="paint5_linear_672_3744" x1="311.775" y1="321.811" x2="36.5051" y2="208.798" gradientUnits="userSpaceOnUse">
<stop stop-color="#FFC826"/>
<stop offset="0.0945" stop-color="#FFA018"/>
<stop offset="0.2186" stop-color="#F8771E"/>
<stop offset="0.3662" stop-color="#EC6D1A"/>
<stop offset="0.6301" stop-color="#CD510E"/>
<stop offset="0.721" stop-color="#C14609"/>
<stop offset="0.7796" stop-color="#C64A0B"/>
<stop offset="0.8451" stop-color="#D35610"/>
<stop offset="0.9137" stop-color="#E96A18"/>
<stop offset="0.9495" stop-color="#F8771E"/>
<stop offset="0.9701" stop-color="#F87A1E"/>
<stop offset="0.9825" stop-color="#FA821C"/>
<stop offset="0.9927" stop-color="#FC901A"/>
<stop offset="1" stop-color="#FFA018"/>
</linearGradient>
<linearGradient id="paint6_linear_672_3744" x1="100.935" y1="182.702" x2="364.023" y2="178.572" gradientUnits="userSpaceOnUse">
<stop stop-color="#FFE6B9" stop-opacity="0"/>
<stop offset="0.9014" stop-color="white"/>
</linearGradient>
</defs>
</svg>
