<svg width="309" height="371" viewBox="0 0 309 371" fill="none" xmlns="http://www.w3.org/2000/svg">
<g style="mix-blend-mode:luminosity" filter="url(#filter0_d_736_3053)">
<path d="M69.2435 257.152C79.0845 294.496 121.69 286.279 164.412 238.781C207.135 191.284 233.8 122.519 223.959 85.1568C214.118 47.8131 171.513 56.049 128.79 103.547C86.0675 151.044 59.4025 219.808 69.2435 257.152Z" fill="url(#paint0_linear_736_3053)"/>
<path opacity="0.7" d="M128.79 103.565C171.513 56.0676 214.118 47.8316 223.959 85.1753C233.8 122.519 207.135 191.302 164.412 238.8C121.69 286.297 79.0845 294.514 69.2435 257.171C59.4025 219.808 86.0675 151.044 128.79 103.565ZM69.9507 256.644C74.3261 273.248 85.5813 281.277 101.654 279.283C119.804 277.027 142.535 262.003 164.044 238.104C206.413 191.001 232.96 122.632 223.237 85.683C218.862 69.0796 207.607 61.0505 191.534 63.0625C173.384 65.3189 150.638 80.3428 129.129 104.242C86.7746 151.345 60.2276 219.714 69.9507 256.644Z" fill="url(#paint1_linear_736_3053)"/>
<path d="M154.117 199.011L148.283 214.017L157.594 212.174L163.443 197.169L154.117 199.011ZM130.163 145.215L135.997 130.21L145.322 128.367L139.474 143.391L130.163 145.215ZM78.3063 247.336C86.954 280.167 124.712 272.74 162.485 230.752C200.258 188.764 223.947 127.878 215.299 95.0472C206.652 62.2163 168.879 69.6813 131.121 111.669C93.3329 153.658 69.6586 214.506 78.3063 247.336ZM132.535 117.085C166.875 78.9138 201.201 72.1257 209.068 101.967C216.935 131.808 195.382 187.165 161.056 225.336C126.716 263.507 92.3901 270.258 84.5379 240.417C76.671 210.576 98.1945 155.237 132.535 117.085ZM122.046 170.562C136.292 154.729 143.333 156.516 150.051 159.017C154.707 160.558 157.948 164.112 163.634 157.794C166.625 154.466 167.627 150.442 166.964 147.941C166.242 145.177 161.704 145.61 154.53 151.57C154.368 151.251 154.161 150.705 153.97 149.934C153.278 147.283 152.497 142.169 152.453 136.302C157.623 130.548 175.552 110.616 177.806 108.36C177.806 108.36 181.371 118.495 181.696 118.702C181.725 118.796 177.762 123.403 175.626 125.998C176.922 125.565 179.53 125.697 181.843 128.047C186.159 123.459 192.759 116.709 192.803 116.878C192.833 117.01 194.203 121.128 194.822 123.516C195.058 124.418 195.19 125.076 195.102 125.17C194.807 125.49 189.562 131.545 185.349 136.02C186.94 145.008 180.856 161.95 169.984 174.04C157.727 187.654 150.729 187.034 143.51 185.116C137.441 183.574 133.537 179.512 129.942 183.517C125.964 187.936 125.905 192.148 126.318 193.709C127.025 196.398 130.001 196.887 135.894 190.888C136.041 190.719 136.63 192.449 137.234 194.762C138.28 198.729 139.4 204.465 138.457 205.499C135.26 209.053 116.433 231.899 116.109 231.692C113.796 230.319 112.367 225.919 111.748 223.569C111.512 222.647 111.394 222.046 111.394 222.046L116.02 216.123C114.797 216.367 113.206 215.784 111.836 214.393C109.214 217.194 101.421 225.75 100.905 226.22C100.802 226.314 100.684 226.07 100.566 225.6C100.051 223.644 99.4615 217.853 99.8592 217.326C100.228 216.8 106.061 210.538 108.772 207.623C106.503 196.229 112.573 181.073 122.046 170.562Z" fill="url(#paint2_linear_736_3053)"/>
<path d="M153.027 197.997L147.194 213.002L156.504 211.159L162.353 196.154L153.027 197.997ZM129.073 144.2L134.907 129.195L144.232 127.352L138.384 142.376L129.073 144.2ZM77.2165 246.322C85.8641 279.153 123.622 271.725 161.395 229.737C199.168 187.749 222.857 126.863 214.209 94.0325C205.562 61.2016 167.789 68.6666 130.031 110.655C92.2431 152.624 68.5688 213.491 77.2165 246.322ZM131.445 116.051C165.785 77.8803 200.111 71.0923 207.978 100.933C215.845 130.774 194.292 186.132 159.966 224.303C125.626 262.474 91.3002 269.224 83.4481 239.383C75.5812 209.542 97.1047 154.222 131.445 116.051ZM120.956 169.528C135.202 153.696 142.244 155.482 148.961 157.983C153.617 159.525 156.858 163.079 162.544 156.761C165.535 153.433 166.537 149.409 165.874 146.908C165.152 144.144 160.614 144.576 153.44 150.537C153.278 150.217 153.072 149.672 152.88 148.901C152.188 146.25 151.407 141.135 151.363 135.269C156.534 129.515 174.462 109.583 176.716 107.327C176.716 107.327 180.282 117.462 180.606 117.668C180.635 117.762 176.672 122.369 174.536 124.964C175.833 124.532 178.44 124.663 180.753 127.014C185.069 122.426 191.669 115.675 191.714 115.845C191.743 115.976 193.113 120.094 193.732 122.482C193.968 123.385 194.1 124.043 194.012 124.137C193.717 124.457 188.473 130.511 184.259 134.986C185.85 143.975 179.766 160.916 168.894 173.007C156.637 186.621 149.639 186 142.42 184.082C136.351 182.54 132.447 178.479 128.852 182.484C124.875 186.903 124.816 191.115 125.228 192.675C125.935 195.364 128.911 195.853 134.804 189.855C134.951 189.686 135.541 191.416 136.145 193.728C137.19 197.696 138.31 203.431 137.367 204.465C134.17 208.019 115.343 230.865 115.019 230.658C112.706 229.286 111.277 224.886 110.658 222.535C110.422 221.614 110.305 221.012 110.305 221.012L114.93 215.089C113.708 215.334 112.117 214.751 110.747 213.359C108.124 216.161 100.331 224.717 99.8153 225.187C99.7122 225.281 99.5944 225.036 99.4765 224.566C98.9609 222.592 98.3716 216.819 98.7694 216.293C99.1377 215.766 104.972 209.505 107.682 206.59C105.414 195.195 111.483 180.058 120.956 169.528Z" fill="url(#paint3_linear_736_3053)"/>
<path opacity="0.7" d="M120.955 169.528C135.201 153.695 142.243 155.482 148.961 157.982C153.616 159.524 156.857 163.078 162.543 156.76C165.534 153.432 166.536 149.408 165.873 146.907C165.151 144.143 160.614 144.575 153.439 150.536C153.277 150.217 153.071 149.671 152.879 148.9C152.187 146.249 151.406 141.134 151.362 135.268C156.533 129.514 174.462 109.582 176.716 107.326C176.716 107.326 180.281 117.461 180.605 117.668C180.634 117.762 176.671 122.369 174.535 124.963C175.832 124.531 178.439 124.663 180.752 127.013C185.069 122.425 191.669 115.675 191.713 115.844C191.742 115.975 193.112 120.093 193.731 122.481C193.967 123.384 194.099 124.042 194.011 124.136C193.716 124.456 188.472 130.511 184.258 134.986C185.849 143.974 179.765 160.916 168.893 173.006C156.636 186.62 149.638 186 142.419 184.082C136.35 182.54 132.446 178.478 128.851 182.483C124.874 186.902 124.815 191.114 125.227 192.675C125.934 195.364 128.91 195.853 134.803 189.854C134.95 189.685 135.54 191.415 136.144 193.728C137.19 197.695 138.309 203.43 137.366 204.465C134.17 208.018 115.342 230.865 115.018 230.658C112.705 229.285 111.276 224.885 110.657 222.535C110.422 221.613 110.304 221.012 110.304 221.012L114.93 215.088C113.707 215.333 112.116 214.75 110.746 213.359C108.123 216.16 100.33 224.716 99.8144 225.186C99.7113 225.28 99.5935 225.036 99.4756 224.565C98.96 222.61 98.3708 216.818 98.7685 216.292C99.1368 215.765 104.971 209.504 107.681 206.589C105.413 195.194 111.482 180.058 120.955 169.528ZM99.0632 216.668C98.8864 217.27 99.3431 222.422 99.8734 224.396C99.8734 224.396 99.8734 224.396 99.8734 224.415C100.772 223.475 103.203 220.824 105.383 218.435C107.372 216.273 109.346 214.111 110.436 212.945L110.716 212.644L110.996 212.926C112.16 214.092 113.53 214.712 114.679 214.562L116.182 214.28L110.79 221.2C110.849 221.463 110.937 221.877 111.07 222.384C111.556 224.227 112.882 228.571 114.988 230.037C116.182 228.871 122.708 221.106 127.982 214.788C132.004 209.993 135.79 205.48 137.072 204.051C137.573 203.487 137.204 199.557 135.716 193.916C135.289 192.299 134.936 191.189 134.715 190.644C131.945 193.389 129.647 194.894 127.879 195.1C126.347 195.288 125.227 194.461 124.8 192.844C124.299 190.945 124.52 186.526 128.557 182.051C129.514 180.979 130.56 180.396 131.739 180.246C133.521 180.02 135.407 180.829 137.602 181.75C139.046 182.37 140.696 183.066 142.493 183.536C145.484 184.345 148.047 184.796 150.89 184.439C156.297 183.762 161.925 180.001 168.584 172.593C179.854 160.051 185.26 143.391 183.802 135.117L183.743 134.779L183.949 134.553C186.365 131.996 189.503 128.499 193.304 124.174L193.554 123.892C193.525 123.722 193.466 123.365 193.274 122.669C192.788 120.808 191.845 117.912 191.448 116.652C190.195 117.875 184.936 123.271 180.988 127.464L180.708 127.765L180.428 127.483C178.218 125.208 175.92 125.302 175.257 125.396C175.007 125.434 174.786 125.471 174.594 125.546L174.182 124.587C175.08 123.497 176.288 122.049 177.408 120.733C178.469 119.473 179.559 118.175 180.001 117.63C179.588 116.765 178.69 114.471 176.509 108.247C174.182 110.692 165.873 119.868 151.774 135.55C151.833 141.341 152.614 146.268 153.262 148.75C153.38 149.201 153.483 149.521 153.572 149.765C157.225 146.794 160.393 145.064 162.764 144.782C165.269 144.463 166.035 145.892 166.271 146.757C166.948 149.314 166.138 153.526 162.809 157.23C160.746 159.524 158.89 160.69 156.945 160.934C154.971 161.179 153.218 160.408 151.362 159.581C150.552 159.223 149.712 158.847 148.828 158.565C146.029 157.531 143.259 156.629 139.93 157.042C134.494 157.719 128.557 161.837 121.22 169.979C111.394 180.904 105.987 195.909 108.064 206.476L108.138 206.815L107.932 207.041C102.717 212.625 99.3136 216.329 99.0632 216.668ZM162.352 196.153L156.503 211.159L147.193 213.001L153.026 197.996L162.352 196.153ZM156.209 210.651L161.571 196.868L153.321 198.504L147.973 212.268L156.209 210.651ZM130.015 110.635C167.788 68.6471 205.546 61.1821 214.194 94.013C222.842 126.844 199.152 187.729 161.38 229.718C123.607 271.706 85.8485 279.133 77.2008 246.302C68.5679 213.49 92.2422 152.623 130.015 110.635ZM77.628 246.133C81.4583 260.687 91.373 267.738 105.545 265.971C121.692 263.959 141.948 250.589 161.085 229.304C198.74 187.447 222.37 126.844 213.767 94.201C209.936 79.6471 200.022 72.6146 185.864 74.3822C169.703 76.3941 149.461 89.7634 130.295 111.068C92.6694 152.924 69.0393 213.509 77.628 246.133ZM131.149 115.637C148.695 96.1378 167.272 83.8779 182.137 82.0352C195.44 80.3805 204.765 87.0369 208.389 100.782C216.301 130.83 194.703 186.451 160.245 224.753C142.714 244.253 124.137 256.494 109.272 258.336C95.9547 259.991 86.6293 253.335 83.0052 239.589C75.1089 209.541 96.6913 153.94 131.149 115.637ZM83.4324 239.401C91.2993 269.242 125.625 262.492 159.951 224.321C194.291 186.15 215.829 130.793 207.962 100.951C200.095 71.1104 165.77 77.8984 131.429 116.069C97.1038 154.222 75.5803 209.541 83.4324 239.401ZM129.072 144.199L134.906 129.194L144.232 127.352L138.383 142.375L129.072 144.199ZM135.201 129.721L129.838 143.485L138.074 141.868L143.436 128.085L135.201 129.721Z" fill="url(#paint4_linear_736_3053)"/>
<path d="M101.891 296.639C101.685 296.564 101.493 296.47 101.302 296.376C100.86 296.188 100.433 295.981 100.005 295.774C99.7697 295.662 99.5488 295.53 99.3131 295.398C98.93 295.191 98.547 294.966 98.1787 294.74C97.9429 294.59 97.722 294.439 97.501 294.289C97.1327 294.044 96.7791 293.8 96.4403 293.518C96.234 293.349 96.0131 293.198 95.8068 293.029C95.4385 292.728 95.085 292.408 94.7314 292.089C94.5546 291.938 94.3778 291.788 94.2157 291.619C93.7001 291.13 93.1992 290.622 92.7278 290.077C92.7278 290.077 92.7279 290.077 92.7131 290.077L76.7141 272.007C77.2003 272.552 77.7012 273.06 78.2168 273.549C78.3788 273.699 78.5556 273.849 78.7324 274C79.0859 274.32 79.4543 274.639 79.8226 274.94C80.0289 275.109 80.2498 275.26 80.4561 275.429C80.8097 275.692 81.1632 275.955 81.5167 276.2C81.7377 276.35 81.9735 276.501 82.1945 276.651C82.5628 276.877 82.9457 277.102 83.3288 277.309C83.5497 277.441 83.7855 277.554 84.0212 277.685C84.4484 277.911 84.8904 278.099 85.3324 278.287C85.5239 278.381 85.7154 278.475 85.9216 278.55C86.5698 278.814 87.2181 279.058 87.8957 279.265C87.9694 279.284 88.0431 279.302 88.102 279.321C88.6913 279.509 89.2953 279.66 89.914 279.81C90.6506 279.979 91.3872 280.111 92.1386 280.224C92.2122 280.243 92.2858 280.261 92.3742 280.261C93.214 280.374 94.0684 280.45 94.9376 280.506C95.2028 280.525 95.4827 280.525 95.7626 280.525C96.3666 280.544 96.9706 280.562 97.6041 280.544C97.9429 280.544 98.2965 280.506 98.6501 280.487C99.2246 280.449 99.7844 280.431 100.374 280.374C100.786 280.337 101.199 280.28 101.626 280.243C102.053 280.186 102.48 280.13 102.908 280.073C103.35 279.998 103.806 279.923 104.263 279.829C104.705 279.754 105.132 279.66 105.574 279.566C106.031 279.472 106.502 279.359 106.959 279.246C107.401 279.133 107.858 279.02 108.314 278.908C108.786 278.776 109.257 278.644 109.729 278.494C110.185 278.362 110.642 278.212 111.099 278.061C111.6 277.892 112.1 277.723 112.601 277.554C113.029 277.403 113.456 277.253 113.898 277.084C114.413 276.896 114.929 276.689 115.445 276.463C115.887 276.294 116.314 276.106 116.756 275.918C117.286 275.692 117.816 275.448 118.347 275.203C118.789 274.996 119.216 274.808 119.658 274.602C120.203 274.338 120.748 274.056 121.293 273.793C121.735 273.567 122.162 273.361 122.604 273.135C123.105 272.872 123.606 272.59 124.107 272.326C124.637 272.044 125.168 271.743 125.698 271.443C126.199 271.161 126.7 270.86 127.201 270.559C127.746 270.239 128.276 269.92 128.821 269.581C129.322 269.261 129.838 268.942 130.353 268.603C130.899 268.246 131.444 267.908 131.989 267.55C132.504 267.212 133.02 266.855 133.535 266.497C134.081 266.121 134.626 265.745 135.185 265.369C135.569 265.087 135.966 264.805 136.349 264.523C137.219 263.902 138.088 263.244 138.957 262.586C139.384 262.267 139.811 261.928 140.239 261.59C141.108 260.913 141.977 260.217 142.846 259.502C143.244 259.183 143.627 258.863 144.025 258.543C145.247 257.528 146.485 256.475 147.722 255.384C147.752 255.366 147.767 255.347 147.796 255.328C149.048 254.219 150.315 253.072 151.582 251.887C152.172 251.342 152.761 250.759 153.365 250.195C153.822 249.762 154.278 249.33 154.735 248.878C155.383 248.239 156.031 247.6 156.68 246.942C157.107 246.509 157.534 246.096 157.961 245.644C158.668 244.911 159.39 244.159 160.097 243.407C160.466 243.031 160.834 242.655 161.188 242.26C162.263 241.113 163.338 239.928 164.429 238.743C165.858 237.164 167.272 235.547 168.657 233.911C169.113 233.366 169.57 232.82 170.027 232.275C170.955 231.166 171.883 230.056 172.782 228.928C173.312 228.27 173.828 227.612 174.358 226.954C175.183 225.919 175.993 224.885 176.803 223.832C177.349 223.137 177.879 222.422 178.409 221.707C179.175 220.673 179.956 219.639 180.707 218.605C181.238 217.872 181.753 217.157 182.284 216.424C183.035 215.371 183.786 214.299 184.523 213.227C185.024 212.513 185.51 211.798 185.996 211.084C186.762 209.955 187.499 208.827 188.25 207.699C188.692 207.022 189.149 206.345 189.576 205.668C190.416 204.371 191.226 203.054 192.036 201.757C192.36 201.231 192.685 200.723 193.009 200.196C194.128 198.372 195.219 196.53 196.294 194.687C196.559 194.236 196.81 193.766 197.075 193.314C197.841 191.96 198.622 190.607 199.358 189.253C199.726 188.576 200.095 187.88 200.463 187.203C201.082 186.056 201.686 184.928 202.29 183.781C202.688 183.029 203.056 182.277 203.439 181.524C203.984 180.453 204.529 179.362 205.059 178.29C205.442 177.501 205.826 176.711 206.194 175.921C206.695 174.868 207.196 173.815 207.682 172.781C208.124 171.822 208.566 170.844 209.008 169.885C209.288 169.265 209.567 168.644 209.833 168.042C210.334 166.895 210.82 165.767 211.291 164.62C211.497 164.112 211.718 163.624 211.925 163.116C212.602 161.48 213.251 159.844 213.884 158.227C213.958 158.039 214.016 157.851 214.09 157.663C214.65 156.215 215.18 154.767 215.711 153.338C215.873 152.887 216.035 152.417 216.197 151.965C216.595 150.837 216.992 149.709 217.375 148.581C217.552 148.036 217.744 147.49 217.921 146.964C218.274 145.873 218.613 144.801 218.952 143.73C219.114 143.222 219.261 142.714 219.423 142.225C219.836 140.853 220.233 139.499 220.602 138.145C220.646 137.976 220.705 137.788 220.749 137.6C221.176 136.058 221.559 134.535 221.928 133.03C222.045 132.579 222.134 132.128 222.237 131.695C222.487 130.624 222.738 129.552 222.959 128.499C223.077 127.972 223.18 127.427 223.298 126.9C223.504 125.904 223.695 124.926 223.872 123.948C223.961 123.441 224.064 122.914 224.152 122.406C224.314 121.504 224.447 120.601 224.579 119.717C224.682 119.078 224.786 118.439 224.874 117.8C225.007 116.897 225.11 115.994 225.213 115.111C225.286 114.528 225.36 113.926 225.419 113.343C225.522 112.365 225.596 111.406 225.67 110.447C225.714 109.977 225.758 109.488 225.787 109.018C225.876 107.589 225.949 106.179 225.979 104.806V104.788C226.008 103.509 226.008 102.268 225.979 101.027C225.979 100.764 225.964 100.5 225.964 100.237C225.935 99.0337 225.876 97.8491 225.787 96.6832C225.773 96.4952 225.758 96.2884 225.743 96.1003C225.655 95.0285 225.552 93.9944 225.419 92.9602C225.39 92.7721 225.375 92.5841 225.345 92.3961C225.198 91.2867 225.021 90.196 224.815 89.1242C224.771 88.8986 224.727 88.6542 224.682 88.4285C224.462 87.3379 224.226 86.2661 223.961 85.2132C222.325 79.008 219.791 74.0815 216.506 70.3584L232.505 88.4285C235.79 92.1516 238.324 97.0781 239.96 103.283C240.24 104.317 240.475 105.408 240.681 106.499C240.726 106.724 240.77 106.969 240.814 107.194C241.02 108.266 241.197 109.357 241.344 110.485C241.374 110.673 241.389 110.861 241.418 111.049C241.551 112.083 241.654 113.136 241.742 114.189C241.757 114.377 241.772 114.584 241.786 114.772C241.875 115.938 241.919 117.123 241.963 118.326C241.963 118.589 241.978 118.853 241.978 119.116C242.007 120.357 242.007 121.598 241.978 122.876V122.895C241.948 124.287 241.875 125.678 241.786 127.107C241.757 127.577 241.713 128.047 241.669 128.518C241.595 129.495 241.521 130.454 241.418 131.451C241.359 132.034 241.285 132.617 241.212 133.2C241.109 134.102 241.006 135.005 240.873 135.907C240.785 136.547 240.681 137.186 240.578 137.806C240.475 138.446 240.402 139.085 240.284 139.724C240.24 139.988 240.181 140.251 240.136 140.514C240.048 141.022 239.96 141.53 239.856 142.037C239.68 143.015 239.488 144.012 239.282 145.008C239.179 145.535 239.061 146.061 238.943 146.588C238.707 147.641 238.472 148.712 238.221 149.784C238.118 150.236 238.015 150.687 237.897 151.138C237.529 152.624 237.146 154.109 236.733 155.613C236.719 155.651 236.719 155.67 236.704 155.707C236.66 155.877 236.601 156.065 236.556 156.253C236.188 157.606 235.79 158.96 235.378 160.333C235.231 160.841 235.069 161.348 234.907 161.837C234.568 162.909 234.229 163.981 233.875 165.071C233.698 165.617 233.522 166.162 233.33 166.707C232.947 167.836 232.549 168.964 232.152 170.111C231.99 170.562 231.842 171.013 231.665 171.465C231.607 171.634 231.548 171.784 231.503 171.935C231.047 173.213 230.561 174.473 230.06 175.752C229.986 175.94 229.912 176.147 229.839 176.335C229.205 177.952 228.557 179.588 227.879 181.224C227.673 181.713 227.452 182.22 227.246 182.709C226.76 183.856 226.274 184.984 225.773 186.131C225.507 186.752 225.228 187.372 224.948 187.974C224.653 188.613 224.388 189.253 224.093 189.892C223.946 190.212 223.784 190.531 223.637 190.87C223.15 191.923 222.65 192.976 222.149 194.029C221.766 194.819 221.397 195.608 221.014 196.379C220.484 197.47 219.939 198.542 219.379 199.613C218.996 200.366 218.628 201.118 218.23 201.87C217.626 203.017 217.007 204.164 216.403 205.311C216.035 205.988 215.681 206.665 215.313 207.342C214.562 208.695 213.796 210.068 213.015 211.422C212.779 211.836 212.543 212.268 212.308 212.682C212.293 212.719 212.263 212.757 212.249 212.795C211.173 214.637 210.083 216.48 208.963 218.323C208.654 218.831 208.33 219.338 208.006 219.846C207.196 221.162 206.371 222.478 205.531 223.795C205.089 224.472 204.647 225.149 204.205 225.825C203.468 226.954 202.717 228.082 201.951 229.21C201.465 229.925 200.964 230.658 200.463 231.372C199.726 232.444 198.975 233.516 198.224 234.569C197.708 235.302 197.178 236.017 196.662 236.731C195.896 237.784 195.13 238.819 194.349 239.853C193.819 240.567 193.289 241.263 192.743 241.959C191.933 243.012 191.123 244.046 190.298 245.099C189.782 245.757 189.267 246.415 188.736 247.073C187.823 248.202 186.895 249.311 185.967 250.42C185.51 250.966 185.068 251.511 184.611 252.056C183.227 253.692 181.812 255.309 180.383 256.889C179.308 258.092 178.218 259.258 177.142 260.405C176.774 260.8 176.42 261.157 176.052 261.533C175.33 262.285 174.623 263.037 173.901 263.771C173.459 264.222 173.032 264.655 172.59 265.087C171.957 265.726 171.308 266.366 170.675 266.986C170.218 267.438 169.747 267.87 169.29 268.321C168.819 268.773 168.347 269.224 167.891 269.675C167.773 269.788 167.655 269.882 167.537 269.995C166.27 271.179 165.003 272.326 163.751 273.436C163.736 273.455 163.721 273.473 163.692 273.473C162.454 274.564 161.217 275.617 159.979 276.632C159.582 276.952 159.199 277.272 158.801 277.591C157.932 278.306 157.063 279.002 156.193 279.679C155.766 280.017 155.339 280.337 154.912 280.675C154.042 281.333 153.159 281.991 152.289 282.612C152.024 282.8 151.759 283.007 151.494 283.195C151.376 283.289 151.243 283.364 151.126 283.439C150.58 283.834 150.021 284.21 149.476 284.567C148.96 284.925 148.444 285.282 147.929 285.62C147.384 285.978 146.838 286.316 146.308 286.673C145.793 286.993 145.277 287.332 144.776 287.651C144.246 287.99 143.701 288.291 143.17 288.61C142.655 288.911 142.154 289.212 141.638 289.513C141.108 289.814 140.592 290.096 140.062 290.378C139.649 290.603 139.252 290.829 138.839 291.055C138.736 291.111 138.648 291.149 138.544 291.205C138.102 291.431 137.675 291.638 137.233 291.863C136.688 292.145 136.128 292.408 135.583 292.672C135.141 292.879 134.699 293.085 134.257 293.273C133.727 293.518 133.197 293.762 132.666 293.988C132.224 294.176 131.797 294.345 131.355 294.533C130.84 294.74 130.324 294.947 129.808 295.135C129.366 295.304 128.939 295.455 128.512 295.605C128.188 295.718 127.864 295.85 127.554 295.944C127.378 296 127.201 296.056 127.024 296.113C126.567 296.263 126.096 296.395 125.639 296.545C125.168 296.696 124.696 296.827 124.225 296.959C123.768 297.091 123.326 297.185 122.87 297.297C122.398 297.41 121.941 297.523 121.485 297.617C121.043 297.711 120.601 297.805 120.174 297.88C119.717 297.956 119.275 298.05 118.818 298.125C118.391 298.2 117.964 298.256 117.537 298.294C117.286 298.332 117.021 298.369 116.77 298.407C116.608 298.426 116.461 298.426 116.299 298.444C115.724 298.501 115.15 298.538 114.575 298.557C114.222 298.576 113.883 298.595 113.544 298.614C112.925 298.632 112.307 298.614 111.703 298.595C111.437 298.595 111.158 298.595 110.892 298.576C110.023 298.52 109.169 298.444 108.329 298.332C108.255 298.313 108.182 298.294 108.093 298.294C107.342 298.181 106.591 298.05 105.869 297.88C105.81 297.861 105.751 297.861 105.692 297.843C105.132 297.711 104.587 297.561 104.042 297.391C103.968 297.373 103.909 297.354 103.836 297.335C103.188 297.128 102.539 296.903 101.891 296.639Z" fill="url(#paint5_linear_736_3053)"/>
<path opacity="0.7" d="M149.68 253.617C154.557 249.198 159.477 244.272 164.398 238.781C168.832 233.855 173.075 228.684 177.141 223.362L214.811 68.6098C209.934 64.0218 203.644 61.7842 196.366 61.7842L149.68 253.617ZM156.928 77.7671C158.608 76.5637 160.258 75.4355 161.908 74.3449L112.438 277.573C110.92 278.099 109.418 278.588 107.945 278.983L156.928 77.7671ZM133.755 266.347C129.262 269.431 124.872 272.026 120.629 274.113L170.497 69.2868C174.828 67.0116 179.012 65.2628 183.019 64.0218L133.755 266.347ZM120.378 113.437C123.104 110.053 125.903 106.762 128.79 103.547C131.147 100.933 133.505 98.4509 135.847 96.0629L91.0616 280.017C87.2902 279.321 83.8577 277.892 80.8671 275.73L120.378 113.437Z" fill="url(#paint6_linear_736_3053)"/>
</g>
<defs>
<filter id="filter0_d_736_3053" x="0.5345" y="0.422521" width="308.132" height="370.199" filterUnits="userSpaceOnUse" color-interpolation-filters="sRGB">
<feFlood flood-opacity="0" result="BackgroundImageFix"/>
<feColorMatrix in="SourceAlpha" type="matrix" values="0 0 0 0 0 0 0 0 0 0 0 0 0 0 0 0 0 0 127 0" result="hardAlpha"/>
<feOffset dy="5.33333"/>
<feGaussianBlur stdDeviation="33.3333"/>
<feColorMatrix type="matrix" values="0 0 0 0 0.0666666 0 0 0 0 0.0941176 0 0 0 0 0.286275 0 0 0 0.5 0"/>
<feBlend mode="normal" in2="BackgroundImageFix" result="effect1_dropShadow_736_3053"/>
<feBlend mode="normal" in="SourceGraphic" in2="effect1_dropShadow_736_3053" result="shape"/>
</filter>
<linearGradient id="paint0_linear_736_3053" x1="222.936" y1="82.6951" x2="42.3689" y2="211.156" gradientUnits="userSpaceOnUse">
<stop offset="0.0317" stop-color="#FCE878"/>
<stop offset="0.0527" stop-color="#FCE676"/>
<stop offset="0.6976" stop-color="#FEB432"/>
<stop offset="1" stop-color="#FFA018"/>
</linearGradient>
<linearGradient id="paint1_linear_736_3053" x1="100.733" y1="220.418" x2="245.673" y2="124.889" gradientUnits="userSpaceOnUse">
<stop stop-color="#FFE6B9" stop-opacity="0"/>
<stop offset="0.3821" stop-color="#FFF3DE" stop-opacity="0.4239"/>
<stop offset="0.7037" stop-color="#FFFCF6" stop-opacity="0.7807"/>
<stop offset="0.9014" stop-color="white"/>
</linearGradient>
<linearGradient id="paint2_linear_736_3053" x1="218.912" y1="88.5015" x2="43.0953" y2="212.261" gradientUnits="userSpaceOnUse">
<stop offset="0.0431" stop-color="#FFA018"/>
<stop offset="0.9874" stop-color="#D36B18"/>
</linearGradient>
<linearGradient id="paint3_linear_736_3053" x1="44.0188" y1="267.465" x2="266.85" y2="136.609" gradientUnits="userSpaceOnUse">
<stop stop-color="#FFB817"/>
<stop offset="0.9893" stop-color="#FFFFBC"/>
</linearGradient>
<linearGradient id="paint4_linear_736_3053" x1="44.0179" y1="267.464" x2="266.849" y2="136.608" gradientUnits="userSpaceOnUse">
<stop stop-color="#FFE6B9" stop-opacity="0"/>
<stop offset="0.3821" stop-color="#FFF3DE" stop-opacity="0.4239"/>
<stop offset="0.7037" stop-color="#FFFCF6" stop-opacity="0.7807"/>
<stop offset="0.9014" stop-color="white"/>
</linearGradient>
<linearGradient id="paint5_linear_736_3053" x1="248.161" y1="101.706" x2="58.5511" y2="247.343" gradientUnits="userSpaceOnUse">
<stop offset="0.0394" stop-color="#FFC826"/>
<stop offset="0.1112" stop-color="#FFA018"/>
<stop offset="0.4264" stop-color="#F8771E"/>
<stop offset="0.5129" stop-color="#EC6D1A"/>
<stop offset="0.6677" stop-color="#CD510E"/>
<stop offset="0.721" stop-color="#C14609"/>
<stop offset="0.8348" stop-color="#C3480A"/>
<stop offset="0.8863" stop-color="#CA4E0D"/>
<stop offset="0.9252" stop-color="#D75A11"/>
<stop offset="0.9577" stop-color="#E96A18"/>
<stop offset="0.977" stop-color="#F8771E"/>
<stop offset="0.9864" stop-color="#F87A1E"/>
<stop offset="0.992" stop-color="#FA821C"/>
<stop offset="0.9967" stop-color="#FC901A"/>
<stop offset="1" stop-color="#FFA018"/>
</linearGradient>
<linearGradient id="paint6_linear_736_3053" x1="118.585" y1="245.638" x2="233.479" y2="65.1641" gradientUnits="userSpaceOnUse">
<stop stop-color="#FFE6B9" stop-opacity="0"/>
<stop offset="1" stop-color="white"/>
</linearGradient>
</defs>
</svg>
