<svg width="957" height="781" viewBox="0 0 957 781" fill="none" xmlns="http://www.w3.org/2000/svg">
<g filter="url(#filter0_f_672_3667)">
<ellipse cx="972.485" cy="390.5" rx="149.521" ry="240.333" transform="rotate(-90 972.485 390.5)" fill="#3C459A" fill-opacity="0.5"/>
</g>
<mask id="mask0_672_3667" style="mask-type:alpha" maskUnits="userSpaceOnUse" x="0" y="29" width="1947" height="723">
<rect y="29" width="1947" height="723" fill="url(#paint0_radial_672_3667)"/>
</mask>
<g mask="url(#mask0_672_3667)">
<rect x="250.063" y="40.9588" width="95.1659" height="95.1659" stroke="white" stroke-width="1.20463"/>
<rect x="345.227" y="40.9588" width="95.1659" height="95.1659" stroke="white" stroke-width="1.20463"/>
<rect x="440.395" y="40.9588" width="95.1659" height="95.1659" stroke="white" stroke-width="1.20463"/>
<rect x="535.559" y="40.9588" width="95.1659" height="95.1659" stroke="white" stroke-width="1.20463"/>
<rect x="630.727" y="40.9588" width="95.1659" height="95.1659" stroke="white" stroke-width="1.20463"/>
<rect x="725.891" y="40.9588" width="95.1659" height="95.1659" stroke="white" stroke-width="1.20463"/>
<rect x="821.059" y="40.9588" width="95.1659" height="95.1659" fill="white" fill-opacity="0.25" stroke="white" stroke-width="1.20463"/>
<rect x="916.223" y="40.9588" width="95.1659" height="95.1659" stroke="white" stroke-width="1.20463"/>
<rect x="250.063" y="136.125" width="95.1659" height="95.1659" stroke="white" stroke-width="1.20463"/>
<rect x="345.227" y="136.125" width="95.1659" height="95.1659" stroke="white" stroke-width="1.20463"/>
<rect x="440.395" y="136.125" width="95.1659" height="95.1659" stroke="white" stroke-width="1.20463"/>
<rect x="535.559" y="136.125" width="95.1659" height="95.1659" stroke="white" stroke-width="1.20463"/>
<rect x="630.727" y="136.125" width="95.1659" height="95.1659" stroke="white" stroke-width="1.20463"/>
<rect x="725.891" y="136.125" width="95.1659" height="95.1659" stroke="white" stroke-width="1.20463"/>
<rect x="821.059" y="136.125" width="95.1659" height="95.1659" stroke="white" stroke-width="1.20463"/>
<rect x="916.223" y="136.125" width="95.1659" height="95.1659" stroke="white" stroke-width="1.20463"/>
<rect x="250.063" y="231.291" width="95.1659" height="95.1659" stroke="white" stroke-width="1.20463"/>
<rect x="345.227" y="231.291" width="95.1659" height="95.1659" stroke="white" stroke-width="1.20463"/>
<rect x="440.395" y="231.291" width="95.1659" height="95.1659" stroke="white" stroke-width="1.20463"/>
<rect x="535.559" y="231.291" width="95.1659" height="95.1659" stroke="white" stroke-width="1.20463"/>
<rect x="630.727" y="231.291" width="95.1659" height="95.1659" fill="white" fill-opacity="0.25" stroke="white" stroke-width="1.20463"/>
<rect x="725.891" y="231.291" width="95.1659" height="95.1659" stroke="white" stroke-width="1.20463"/>
<rect x="821.059" y="231.291" width="95.1659" height="95.1659" fill="white" fill-opacity="0.25" stroke="white" stroke-width="1.20463"/>
<rect x="916.223" y="231.291" width="95.1659" height="95.1659" stroke="white" stroke-width="1.20463"/>
<rect x="250.063" y="326.456" width="95.1659" height="95.1659" stroke="white" stroke-width="1.20463"/>
<rect x="345.227" y="326.456" width="95.1659" height="95.1659" stroke="white" stroke-width="1.20463"/>
<rect x="440.395" y="326.456" width="95.1659" height="95.1659" stroke="white" stroke-width="1.20463"/>
<rect x="535.559" y="326.456" width="95.1659" height="95.1659" stroke="white" stroke-width="1.20463"/>
<rect x="630.727" y="326.456" width="95.1659" height="95.1659" stroke="white" stroke-width="1.20463"/>
<rect x="725.891" y="326.456" width="95.1659" height="95.1659" stroke="white" stroke-width="1.20463"/>
<rect x="821.059" y="326.456" width="95.1659" height="95.1659" stroke="white" stroke-width="1.20463"/>
<rect x="916.223" y="326.456" width="95.1659" height="95.1659" stroke="white" stroke-width="1.20463"/>
<rect x="250.063" y="421.622" width="95.1659" height="95.1659" stroke="white" stroke-width="1.20463"/>
<rect x="345.227" y="421.622" width="95.1659" height="95.1659" stroke="white" stroke-width="1.20463"/>
<rect x="440.395" y="421.622" width="95.1659" height="95.1659" stroke="white" stroke-width="1.20463"/>
<rect x="535.559" y="421.622" width="95.1659" height="95.1659" fill="white" fill-opacity="0.25" stroke="white" stroke-width="1.20463"/>
<rect x="630.727" y="421.622" width="95.1659" height="95.1659" stroke="white" stroke-width="1.20463"/>
<rect x="725.891" y="421.622" width="95.1659" height="95.1659" stroke="white" stroke-width="1.20463"/>
<rect x="821.059" y="421.622" width="95.1659" height="95.1659" stroke="white" stroke-width="1.20463"/>
<rect x="916.223" y="421.622" width="95.1659" height="95.1659" stroke="white" stroke-width="1.20463"/>
<rect x="250.063" y="516.788" width="95.1659" height="95.1659" stroke="white" stroke-width="1.20463"/>
<rect x="345.227" y="516.788" width="95.1659" height="95.1659" stroke="white" stroke-width="1.20463"/>
<rect x="440.395" y="516.788" width="95.1659" height="95.1659" stroke="white" stroke-width="1.20463"/>
<rect x="535.559" y="516.788" width="95.1659" height="95.1659" stroke="white" stroke-width="1.20463"/>
<rect x="630.727" y="516.788" width="95.1659" height="95.1659" stroke="white" stroke-width="1.20463"/>
<rect x="725.891" y="516.788" width="95.1659" height="95.1659" stroke="white" stroke-width="1.20463"/>
<rect x="821.059" y="516.788" width="95.1659" height="95.1659" stroke="white" stroke-width="1.20463"/>
<rect x="916.223" y="516.788" width="95.1659" height="95.1659" stroke="white" stroke-width="1.20463"/>
<rect x="250.063" y="611.954" width="95.1659" height="95.1659" stroke="white" stroke-width="1.20463"/>
<rect x="345.227" y="611.954" width="95.1659" height="95.1659" stroke="white" stroke-width="1.20463"/>
<rect x="440.395" y="611.954" width="95.1659" height="95.1659" stroke="white" stroke-width="1.20463"/>
<rect x="535.559" y="611.954" width="95.1659" height="95.1659" stroke="white" stroke-width="1.20463"/>
<rect x="630.727" y="611.954" width="95.1659" height="95.1659" stroke="white" stroke-width="1.20463"/>
<rect x="725.891" y="611.954" width="95.1659" height="95.1659" stroke="white" stroke-width="1.20463"/>
<rect x="821.059" y="611.954" width="95.1659" height="95.1659" stroke="white" stroke-width="1.20463"/>
<rect x="916.223" y="611.954" width="95.1659" height="95.1659" stroke="white" stroke-width="1.20463"/>
</g>
<defs>
<filter id="filter0_f_672_3667" x="491.226" y="0.0522461" width="962.517" height="780.895" filterUnits="userSpaceOnUse" color-interpolation-filters="sRGB">
<feFlood flood-opacity="0" result="BackgroundImageFix"/>
<feBlend mode="normal" in="SourceGraphic" in2="BackgroundImageFix" result="shape"/>
<feGaussianBlur stdDeviation="120.463" result="effect1_foregroundBlur_672_3667"/>
</filter>
<radialGradient id="paint0_radial_672_3667" cx="0" cy="0" r="1" gradientUnits="userSpaceOnUse" gradientTransform="translate(973.5 390.5) rotate(90) scale(445.648 1200.11)">
<stop stop-color="#D9D9D9" stop-opacity="0.2"/>
<stop offset="0.802083" stop-color="#D9D9D9" stop-opacity="0"/>
</radialGradient>
</defs>
</svg>
