<svg width="474" height="513" viewBox="0 0 474 513" fill="none" xmlns="http://www.w3.org/2000/svg">
<path opacity="0.5" d="M342.257 179.049C288.69 155.061 244.386 177.509 236.549 229.211C235.188 238.201 244.062 250.021 254.814 254.839L429.635 333.112C440.387 337.929 449.261 334.055 447.965 323.874C440.128 265.119 395.823 202.988 342.257 179.049Z" fill="url(#paint0_linear_449_12872)"/>
<path opacity="0.5" d="M401.977 111.851C401.977 147.561 375.031 164.447 341.803 149.547C308.64 134.697 281.695 93.7234 281.695 58.0139C281.695 22.3043 308.64 5.41806 341.868 20.3177C375.096 35.1677 401.977 76.1914 401.977 111.851Z" fill="url(#paint1_linear_449_12872)"/>
<path opacity="0.07" d="M368.166 164.15C314.599 140.161 270.295 162.61 262.457 214.312C261.097 223.301 269.971 235.122 280.723 239.939L455.543 318.212C466.296 323.03 475.169 319.156 473.874 308.974C466.037 250.22 421.732 188.088 368.166 164.15Z" fill="url(#paint2_linear_449_12872)"/>
<path opacity="0.07" d="M427.886 96.9519C427.886 132.661 400.94 149.548 367.712 134.648C334.549 119.798 307.604 78.824 307.604 43.1144C307.604 7.40492 334.549 -9.48136 367.777 5.4183C401.005 20.2683 427.886 61.292 427.886 96.9519Z" fill="url(#paint3_linear_449_12872)"/>
<path opacity="0.2" d="M120.606 197.276L0 143.886V192.061L120.671 245.452L120.606 197.276Z" fill="url(#paint4_linear_449_12872)"/>
<path d="M24.4843 170.904C24.4843 174.877 21.44 176.715 17.6184 175.076C13.8616 173.387 10.7526 168.818 10.7526 164.844C10.7526 160.871 13.7969 159.034 17.6184 160.673C21.44 162.361 24.4843 166.93 24.4843 170.904Z" fill="#AFCCAE"/>
<path opacity="0.15" d="M30.7023 169.414L70.1486 186.847V193.601L30.7023 176.169V169.414Z" fill="#AFCCAE"/>
<path opacity="0.15" d="M30.8965 183.022L108.17 217.242V223.997L30.8965 189.777V183.022Z" fill="#AFCCAE"/>
<path opacity="0.05" d="M311.036 245.85L432.225 299.488V499.591L311.036 446.002V245.85Z" fill="url(#paint5_linear_449_12872)"/>
<path opacity="0.3" d="M412.016 312.898L290.763 259.259V459.361L411.952 513L412.016 312.898ZM330.274 289.555L370.756 307.434V315.381L330.274 297.75V289.555Z" fill="url(#paint6_linear_449_12872)"/>
<path opacity="0.15" d="M302.486 386.055L399.839 429.115V435.869L302.486 392.809V386.055Z" fill="#AFCCAE"/>
<path opacity="0.15" d="M309.353 402.246L393.103 439.297V446.051L309.353 409.001V402.246Z" fill="#AFCCAE"/>
<path d="M378.464 369.219C378.464 353.375 366.352 335.148 351.454 328.542C336.557 321.937 324.444 329.436 324.444 345.28C324.444 361.123 336.557 379.35 351.454 385.956C366.352 392.561 378.464 385.062 378.464 369.219Z" fill="#AFCCAE"/>
<path opacity="0.05" d="M160.117 84.7842L281.306 138.423V338.525L160.117 284.887V84.7842Z" fill="url(#paint7_linear_449_12872)"/>
<path opacity="0.3" d="M261.097 151.982L139.844 98.3428V298.445L261.032 352.084L261.097 151.982ZM179.355 128.639L219.837 146.518V154.465L179.355 136.834V128.639Z" fill="url(#paint8_linear_449_12872)"/>
<path opacity="0.15" d="M151.567 224.939L248.92 267.999V274.754L151.567 231.694V224.939Z" fill="#AFCCAE"/>
<path opacity="0.15" d="M158.368 241.181L242.054 278.231V284.986L158.304 247.935L158.368 241.181Z" fill="#AFCCAE"/>
<path d="M227.545 208.153C227.545 192.31 215.433 174.083 200.535 167.477C185.637 160.872 173.525 168.371 173.525 184.214C173.525 200.058 185.637 218.285 200.535 224.89C215.433 231.496 227.545 223.996 227.545 208.153Z" fill="#AFCCAE"/>
<path opacity="0.3" d="M227.545 319.751L34.7828 234.426L34.8476 311.457L210.575 389.233L227.61 408.553L227.545 319.751Z" fill="url(#paint9_linear_449_12872)"/>
<path d="M14.2499 264.474V243.564L86.9891 275.748V296.657L14.2499 264.474Z" fill="#AFCCAE"/>
<path opacity="0.15" d="M177.994 316.573L135.763 297.898V304.653L177.994 323.327V316.573Z" fill="#AFCCAE"/>
<path opacity="0.15" d="M177.994 330.132L96.5757 294.124V300.879L177.994 336.886V330.132Z" fill="#AFCCAE"/>
<path opacity="0.15" d="M177.994 343.64L79.4111 299.984V306.739L178.059 350.395L177.994 343.64Z" fill="#AFCCAE"/>
<path d="M188.423 328.244C188.423 334.601 193.345 341.902 199.369 344.584C205.393 347.266 210.316 344.286 210.316 337.929C210.316 331.572 205.393 324.271 199.369 321.589C193.281 318.907 188.358 321.887 188.423 328.244Z" fill="#AFCCAE"/>
<defs>
<linearGradient id="paint0_linear_449_12872" x1="563.283" y1="139.922" x2="388.293" y2="306.398" gradientUnits="userSpaceOnUse">
<stop stop-color="white"/>
<stop offset="1" stop-color="white" stop-opacity="0"/>
</linearGradient>
<linearGradient id="paint1_linear_449_12872" x1="452.398" y1="23.0984" x2="277.409" y2="189.575" gradientUnits="userSpaceOnUse">
<stop stop-color="white"/>
<stop offset="1" stop-color="white" stop-opacity="0"/>
</linearGradient>
<linearGradient id="paint2_linear_449_12872" x1="589.192" y1="125.022" x2="414.202" y2="291.499" gradientUnits="userSpaceOnUse">
<stop stop-color="white"/>
<stop offset="1" stop-color="white" stop-opacity="0"/>
</linearGradient>
<linearGradient id="paint3_linear_449_12872" x1="478.307" y1="8.19903" x2="303.318" y2="174.676" gradientUnits="userSpaceOnUse">
<stop stop-color="white"/>
<stop offset="1" stop-color="white" stop-opacity="0"/>
</linearGradient>
<linearGradient id="paint4_linear_449_12872" x1="73.9148" y1="176.612" x2="56.0795" y2="216.91" gradientUnits="userSpaceOnUse">
<stop stop-color="white"/>
<stop offset="1" stop-color="white" stop-opacity="0"/>
</linearGradient>
<linearGradient id="paint5_linear_449_12872" x1="442.02" y1="279.269" x2="343.647" y2="501.542" gradientUnits="userSpaceOnUse">
<stop stop-color="white"/>
<stop offset="1" stop-color="white" stop-opacity="0"/>
</linearGradient>
<linearGradient id="paint6_linear_449_12872" x1="421.749" y1="292.653" x2="323.376" y2="514.926" gradientUnits="userSpaceOnUse">
<stop stop-color="white"/>
<stop offset="1" stop-color="white" stop-opacity="0"/>
</linearGradient>
<linearGradient id="paint7_linear_449_12872" x1="291.096" y1="118.194" x2="192.723" y2="340.467" gradientUnits="userSpaceOnUse">
<stop stop-color="white"/>
<stop offset="1" stop-color="white" stop-opacity="0"/>
</linearGradient>
<linearGradient id="paint8_linear_449_12872" x1="270.83" y1="131.737" x2="172.456" y2="354.01" gradientUnits="userSpaceOnUse">
<stop stop-color="white"/>
<stop offset="1" stop-color="white" stop-opacity="0"/>
</linearGradient>
<linearGradient id="paint9_linear_449_12872" x1="185.509" y1="288.901" x2="106.919" y2="369.151" gradientUnits="userSpaceOnUse">
<stop stop-color="white"/>
<stop offset="1" stop-color="white" stop-opacity="0"/>
</linearGradient>
</defs>
</svg>
