<svg width="790" height="435" viewBox="0 0 790 435" fill="none" xmlns="http://www.w3.org/2000/svg">
<g filter="url(#filter0_f_299_14873)">
<ellipse cx="577.621" cy="51.1272" rx="142.749" ry="142.749" transform="rotate(-90 577.621 51.1272)" fill="#3C459A" fill-opacity="0.5"/>
</g>
<mask id="mask0_299_14873" style="mask-type:alpha" maskUnits="userSpaceOnUse" x="0" y="-294" width="1157" height="691">
<rect y="-294" width="1156.45" height="690.254" fill="url(#paint0_radial_299_14873)"/>
</mask>
<g mask="url(#mask0_299_14873)">
<rect x="30.772" y="-92.2239" width="95.1659" height="95.1659" stroke="white" stroke-width="1.20463"/>
<rect x="125.938" y="-92.2239" width="95.1659" height="95.1659" stroke="white" stroke-width="1.20463"/>
<rect x="221.104" y="-92.2239" width="95.1659" height="95.1659" stroke="white" stroke-width="1.20463"/>
<rect x="316.27" y="-92.2239" width="95.1659" height="95.1659" stroke="white" stroke-width="1.20463"/>
<rect x="411.435" y="-92.2239" width="95.1659" height="95.1659" fill="white" fill-opacity="0.25" stroke="white" stroke-width="1.20463"/>
<rect x="506.601" y="-92.2239" width="95.1659" height="95.1659" stroke="white" stroke-width="1.20463"/>
<rect x="601.767" y="-92.2239" width="95.1659" height="95.1659" fill="white" fill-opacity="0.25" stroke="white" stroke-width="1.20463"/>
<rect x="696.933" y="-92.2239" width="95.1659" height="95.1659" stroke="white" stroke-width="1.20463"/>
<rect x="30.772" y="2.94216" width="95.1659" height="95.1659" stroke="white" stroke-width="1.20463"/>
<rect x="125.938" y="2.94216" width="95.1659" height="95.1659" stroke="white" stroke-width="1.20463"/>
<rect x="221.104" y="2.94216" width="95.1659" height="95.1659" stroke="white" stroke-width="1.20463"/>
<rect x="316.27" y="2.94216" width="95.1659" height="95.1659" stroke="white" stroke-width="1.20463"/>
<rect x="411.435" y="2.94216" width="95.1659" height="95.1659" stroke="white" stroke-width="1.20463"/>
<rect x="506.601" y="2.94216" width="95.1659" height="95.1659" stroke="white" stroke-width="1.20463"/>
<rect x="601.767" y="2.94216" width="95.1659" height="95.1659" stroke="white" stroke-width="1.20463"/>
<rect x="696.933" y="2.94216" width="95.1659" height="95.1659" stroke="white" stroke-width="1.20463"/>
<rect x="30.772" y="98.1072" width="95.1659" height="95.1659" stroke="white" stroke-width="1.20463"/>
<rect x="125.938" y="98.1072" width="95.1659" height="95.1659" stroke="white" stroke-width="1.20463"/>
<rect x="221.104" y="98.1072" width="95.1659" height="95.1659" stroke="white" stroke-width="1.20463"/>
<rect x="316.27" y="98.1072" width="95.1659" height="95.1659" fill="white" fill-opacity="0.25" stroke="white" stroke-width="1.20463"/>
<rect x="411.435" y="98.1072" width="95.1659" height="95.1659" stroke="white" stroke-width="1.20463"/>
<rect x="506.601" y="98.1072" width="95.1659" height="95.1659" stroke="white" stroke-width="1.20463"/>
<rect x="601.767" y="98.1072" width="95.1659" height="95.1659" stroke="white" stroke-width="1.20463"/>
<rect x="696.933" y="98.1072" width="95.1659" height="95.1659" stroke="white" stroke-width="1.20463"/>
<rect x="30.772" y="193.273" width="95.1659" height="95.1659" stroke="white" stroke-width="1.20463"/>
<rect x="125.938" y="193.273" width="95.1659" height="95.1659" stroke="white" stroke-width="1.20463"/>
<rect x="221.104" y="193.273" width="95.1659" height="95.1659" stroke="white" stroke-width="1.20463"/>
<rect x="316.27" y="193.273" width="95.1659" height="95.1659" stroke="white" stroke-width="1.20463"/>
<rect x="411.435" y="193.273" width="95.1659" height="95.1659" stroke="white" stroke-width="1.20463"/>
<rect x="506.601" y="193.273" width="95.1659" height="95.1659" stroke="white" stroke-width="1.20463"/>
<rect x="601.767" y="193.273" width="95.1659" height="95.1659" stroke="white" stroke-width="1.20463"/>
<rect x="696.933" y="193.273" width="95.1659" height="95.1659" stroke="white" stroke-width="1.20463"/>
<rect x="30.772" y="288.439" width="95.1659" height="95.1659" stroke="white" stroke-width="1.20463"/>
<rect x="125.938" y="288.439" width="95.1659" height="95.1659" stroke="white" stroke-width="1.20463"/>
<rect x="221.104" y="288.439" width="95.1659" height="95.1659" stroke="white" stroke-width="1.20463"/>
<rect x="316.27" y="288.439" width="95.1659" height="95.1659" stroke="white" stroke-width="1.20463"/>
<rect x="411.435" y="288.439" width="95.1659" height="95.1659" stroke="white" stroke-width="1.20463"/>
<rect x="506.601" y="288.439" width="95.1659" height="95.1659" stroke="white" stroke-width="1.20463"/>
<rect x="601.767" y="288.439" width="95.1659" height="95.1659" stroke="white" stroke-width="1.20463"/>
<rect x="696.933" y="288.439" width="95.1659" height="95.1659" stroke="white" stroke-width="1.20463"/>
</g>
<defs>
<filter id="filter0_f_299_14873" x="193.946" y="-332.548" width="767.35" height="767.351" filterUnits="userSpaceOnUse" color-interpolation-filters="sRGB">
<feFlood flood-opacity="0" result="BackgroundImageFix"/>
<feBlend mode="normal" in="SourceGraphic" in2="BackgroundImageFix" result="shape"/>
<feGaussianBlur stdDeviation="120.463" result="effect1_foregroundBlur_299_14873"/>
</filter>
<radialGradient id="paint0_radial_299_14873" cx="0" cy="0" r="1" gradientUnits="userSpaceOnUse" gradientTransform="translate(578.223 51.1269) rotate(90) scale(425.464 712.819)">
<stop stop-color="#D9D9D9" stop-opacity="0.2"/>
<stop offset="0.802083" stop-color="#D9D9D9" stop-opacity="0"/>
</radialGradient>
</defs>
</svg>
