<svg width="1211" height="768" viewBox="0 0 1211 768" fill="none" xmlns="http://www.w3.org/2000/svg">
<g filter="url(#filter0_f_669_2946)">
<ellipse cx="384.621" cy="384.127" rx="142.749" ry="142.749" transform="rotate(-90 384.621 384.127)" fill="#3C459A" fill-opacity="0.5"/>
</g>
<mask id="mask0_669_2946" style="mask-type:alpha" maskUnits="userSpaceOnUse" x="54" y="39" width="1157" height="691">
<rect x="54" y="39" width="1156.45" height="690.254" fill="url(#paint0_radial_669_2946)"/>
</mask>
<g mask="url(#mask0_669_2946)">
<rect x="84.772" y="50.444" width="95.1659" height="95.1659" stroke="white" stroke-width="1.20463"/>
<rect x="179.938" y="50.444" width="95.1659" height="95.1659" stroke="white" stroke-width="1.20463"/>
<rect x="275.104" y="50.444" width="95.1659" height="95.1659" stroke="white" stroke-width="1.20463"/>
<rect x="370.27" y="50.444" width="95.1659" height="95.1659" stroke="white" stroke-width="1.20463"/>
<rect x="465.435" y="50.444" width="95.1659" height="95.1659" stroke="white" stroke-width="1.20463"/>
<rect x="560.601" y="50.444" width="95.1659" height="95.1659" stroke="white" stroke-width="1.20463"/>
<rect x="655.767" y="50.444" width="95.1659" height="95.1659" fill="white" fill-opacity="0.25" stroke="white" stroke-width="1.20463"/>
<rect x="750.933" y="50.444" width="95.1659" height="95.1659" stroke="white" stroke-width="1.20463"/>
<rect x="846.099" y="50.444" width="95.1659" height="95.1659" stroke="white" stroke-width="1.20463"/>
<rect x="84.772" y="145.61" width="95.1659" height="95.1659" stroke="white" stroke-width="1.20463"/>
<rect x="179.938" y="145.61" width="95.1659" height="95.1659" stroke="white" stroke-width="1.20463"/>
<rect x="275.104" y="145.61" width="95.1659" height="95.1659" stroke="white" stroke-width="1.20463"/>
<rect x="370.27" y="145.61" width="95.1659" height="95.1659" stroke="white" stroke-width="1.20463"/>
<rect x="465.435" y="145.61" width="95.1659" height="95.1659" stroke="white" stroke-width="1.20463"/>
<rect x="560.601" y="145.61" width="95.1659" height="95.1659" stroke="white" stroke-width="1.20463"/>
<rect x="655.767" y="145.61" width="95.1659" height="95.1659" stroke="white" stroke-width="1.20463"/>
<rect x="750.933" y="145.61" width="95.1659" height="95.1659" stroke="white" stroke-width="1.20463"/>
<rect x="846.099" y="145.61" width="95.1659" height="95.1659" stroke="white" stroke-width="1.20463"/>
<rect x="84.772" y="240.776" width="95.1659" height="95.1659" stroke="white" stroke-width="1.20463"/>
<rect x="179.938" y="240.776" width="95.1659" height="95.1659" stroke="white" stroke-width="1.20463"/>
<rect x="275.104" y="240.776" width="95.1659" height="95.1659" stroke="white" stroke-width="1.20463"/>
<rect x="370.27" y="240.776" width="95.1659" height="95.1659" stroke="white" stroke-width="1.20463"/>
<rect x="465.435" y="240.776" width="95.1659" height="95.1659" fill="white" fill-opacity="0.25" stroke="white" stroke-width="1.20463"/>
<rect x="560.601" y="240.776" width="95.1659" height="95.1659" stroke="white" stroke-width="1.20463"/>
<rect x="655.767" y="240.776" width="95.1659" height="95.1659" fill="white" fill-opacity="0.25" stroke="white" stroke-width="1.20463"/>
<rect x="750.933" y="240.776" width="95.1659" height="95.1659" stroke="white" stroke-width="1.20463"/>
<rect x="846.099" y="240.776" width="95.1659" height="95.1659" stroke="white" stroke-width="1.20463"/>
<rect x="84.772" y="335.942" width="95.1659" height="95.1659" stroke="white" stroke-width="1.20463"/>
<rect x="179.938" y="335.942" width="95.1659" height="95.1659" stroke="white" stroke-width="1.20463"/>
<rect x="275.104" y="335.942" width="95.1659" height="95.1659" stroke="white" stroke-width="1.20463"/>
<rect x="370.27" y="335.942" width="95.1659" height="95.1659" stroke="white" stroke-width="1.20463"/>
<rect x="465.435" y="335.942" width="95.1659" height="95.1659" stroke="white" stroke-width="1.20463"/>
<rect x="560.601" y="335.942" width="95.1659" height="95.1659" stroke="white" stroke-width="1.20463"/>
<rect x="655.767" y="335.942" width="95.1659" height="95.1659" stroke="white" stroke-width="1.20463"/>
<rect x="750.933" y="335.942" width="95.1659" height="95.1659" stroke="white" stroke-width="1.20463"/>
<rect x="846.099" y="335.942" width="95.1659" height="95.1659" stroke="white" stroke-width="1.20463"/>
<rect x="84.772" y="431.107" width="95.1659" height="95.1659" stroke="white" stroke-width="1.20463"/>
<rect x="179.938" y="431.107" width="95.1659" height="95.1659" stroke="white" stroke-width="1.20463"/>
<rect x="275.104" y="431.107" width="95.1659" height="95.1659" stroke="white" stroke-width="1.20463"/>
<rect x="370.27" y="431.107" width="95.1659" height="95.1659" fill="white" fill-opacity="0.25" stroke="white" stroke-width="1.20463"/>
<rect x="465.435" y="431.107" width="95.1659" height="95.1659" stroke="white" stroke-width="1.20463"/>
<rect x="560.601" y="431.107" width="95.1659" height="95.1659" stroke="white" stroke-width="1.20463"/>
<rect x="655.767" y="431.107" width="95.1659" height="95.1659" stroke="white" stroke-width="1.20463"/>
<rect x="750.933" y="431.107" width="95.1659" height="95.1659" stroke="white" stroke-width="1.20463"/>
<rect x="846.099" y="431.107" width="95.1659" height="95.1659" stroke="white" stroke-width="1.20463"/>
<rect x="84.772" y="526.273" width="95.1659" height="95.1659" stroke="white" stroke-width="1.20463"/>
<rect x="179.938" y="526.273" width="95.1659" height="95.1659" stroke="white" stroke-width="1.20463"/>
<rect x="275.104" y="526.273" width="95.1659" height="95.1659" stroke="white" stroke-width="1.20463"/>
<rect x="370.27" y="526.273" width="95.1659" height="95.1659" stroke="white" stroke-width="1.20463"/>
<rect x="465.435" y="526.273" width="95.1659" height="95.1659" stroke="white" stroke-width="1.20463"/>
<rect x="560.601" y="526.273" width="95.1659" height="95.1659" stroke="white" stroke-width="1.20463"/>
<rect x="655.767" y="526.273" width="95.1659" height="95.1659" stroke="white" stroke-width="1.20463"/>
<rect x="750.933" y="526.273" width="95.1659" height="95.1659" stroke="white" stroke-width="1.20463"/>
<rect x="846.099" y="526.273" width="95.1659" height="95.1659" stroke="white" stroke-width="1.20463"/>
<rect x="84.772" y="621.439" width="95.1659" height="95.1659" stroke="white" stroke-width="1.20463"/>
<rect x="179.938" y="621.439" width="95.1659" height="95.1659" stroke="white" stroke-width="1.20463"/>
<rect x="275.104" y="621.439" width="95.1659" height="95.1659" stroke="white" stroke-width="1.20463"/>
<rect x="370.27" y="621.439" width="95.1659" height="95.1659" stroke="white" stroke-width="1.20463"/>
<rect x="465.435" y="621.439" width="95.1659" height="95.1659" stroke="white" stroke-width="1.20463"/>
<rect x="560.601" y="621.439" width="95.1659" height="95.1659" stroke="white" stroke-width="1.20463"/>
<rect x="655.767" y="621.439" width="95.1659" height="95.1659" stroke="white" stroke-width="1.20463"/>
<rect x="750.933" y="621.439" width="95.1659" height="95.1659" stroke="white" stroke-width="1.20463"/>
<rect x="846.099" y="621.439" width="95.1659" height="95.1659" stroke="white" stroke-width="1.20463"/>
</g>
<defs>
<filter id="filter0_f_669_2946" x="0.945618" y="0.451782" width="767.35" height="767.35" filterUnits="userSpaceOnUse" color-interpolation-filters="sRGB">
<feFlood flood-opacity="0" result="BackgroundImageFix"/>
<feBlend mode="normal" in="SourceGraphic" in2="BackgroundImageFix" result="shape"/>
<feGaussianBlur stdDeviation="120.463" result="effect1_foregroundBlur_669_2946"/>
</filter>
<radialGradient id="paint0_radial_669_2946" cx="0" cy="0" r="1" gradientUnits="userSpaceOnUse" gradientTransform="translate(632.223 384.127) rotate(90) scale(425.464 712.819)">
<stop stop-color="#D9D9D9" stop-opacity="0.2"/>
<stop offset="0.802083" stop-color="#D9D9D9" stop-opacity="0"/>
</radialGradient>
</defs>
</svg>
