<svg width="1440" height="810" viewBox="0 0 1440 810" fill="none" xmlns="http://www.w3.org/2000/svg">
<g filter="url(#filter0_f_506_2824)">
<ellipse cx="654.445" cy="405.999" rx="164.618" ry="249.961" transform="rotate(-90 654.445 405.999)" fill="#3C459A" fill-opacity="0.5"/>
</g>
<mask id="mask0_506_2824" style="mask-type:alpha" maskUnits="userSpaceOnUse" x="-357" y="8" width="1947" height="723">
<rect x="-357" y="8" width="1947" height="723" fill="url(#paint0_radial_506_2824)"/>
</mask>
<g mask="url(#mask0_506_2824)">
<rect x="-11.7727" y="19.9578" width="95.1659" height="95.1659" stroke="white" stroke-width="1.20463"/>
<rect x="83.3933" y="19.9578" width="95.1659" height="95.1659" stroke="white" stroke-width="1.20463"/>
<rect x="178.559" y="19.9578" width="95.1659" height="95.1659" stroke="white" stroke-width="1.20463"/>
<rect x="273.725" y="19.9578" width="95.1659" height="95.1659" stroke="white" stroke-width="1.20463"/>
<rect x="368.891" y="19.9578" width="95.1659" height="95.1659" stroke="white" stroke-width="1.20463"/>
<rect x="464.057" y="19.9578" width="95.1659" height="95.1659" fill="white" fill-opacity="0.25" stroke="white" stroke-width="1.20463"/>
<rect x="559.221" y="19.9578" width="95.1659" height="95.1659" stroke="white" stroke-width="1.20463"/>
<rect x="654.387" y="19.9578" width="95.1659" height="95.1659" stroke="white" stroke-width="1.20463"/>
<rect x="-11.7727" y="115.124" width="95.1659" height="95.1659" stroke="white" stroke-width="1.20463"/>
<rect x="83.3933" y="115.124" width="95.1659" height="95.1659" stroke="white" stroke-width="1.20463"/>
<rect x="178.559" y="115.124" width="95.1659" height="95.1659" stroke="white" stroke-width="1.20463"/>
<rect x="273.725" y="115.124" width="95.1659" height="95.1659" stroke="white" stroke-width="1.20463"/>
<rect x="368.891" y="115.124" width="95.1659" height="95.1659" stroke="white" stroke-width="1.20463"/>
<rect x="464.057" y="115.124" width="95.1659" height="95.1659" stroke="white" stroke-width="1.20463"/>
<rect x="559.221" y="115.124" width="95.1659" height="95.1659" stroke="white" stroke-width="1.20463"/>
<rect x="654.387" y="115.124" width="95.1659" height="95.1659" stroke="white" stroke-width="1.20463"/>
<rect x="-11.7727" y="210.29" width="95.1659" height="95.1659" stroke="white" stroke-width="1.20463"/>
<rect x="83.3933" y="210.29" width="95.1659" height="95.1659" stroke="white" stroke-width="1.20463"/>
<rect x="178.559" y="210.29" width="95.1659" height="95.1659" stroke="white" stroke-width="1.20463"/>
<rect x="273.725" y="210.29" width="95.1659" height="95.1659" fill="white" fill-opacity="0.25" stroke="white" stroke-width="1.20463"/>
<rect x="368.891" y="210.29" width="95.1659" height="95.1659" stroke="white" stroke-width="1.20463"/>
<rect x="464.057" y="210.29" width="95.1659" height="95.1659" fill="white" fill-opacity="0.25" stroke="white" stroke-width="1.20463"/>
<rect x="559.221" y="210.29" width="95.1659" height="95.1659" stroke="white" stroke-width="1.20463"/>
<rect x="654.387" y="210.29" width="95.1659" height="95.1659" stroke="white" stroke-width="1.20463"/>
<rect x="-11.7727" y="305.456" width="95.1659" height="95.1659" stroke="white" stroke-width="1.20463"/>
<rect x="83.3933" y="305.456" width="95.1659" height="95.1659" stroke="white" stroke-width="1.20463"/>
<rect x="178.559" y="305.456" width="95.1659" height="95.1659" stroke="white" stroke-width="1.20463"/>
<rect x="273.725" y="305.456" width="95.1659" height="95.1659" stroke="white" stroke-width="1.20463"/>
<rect x="368.891" y="305.456" width="95.1659" height="95.1659" stroke="white" stroke-width="1.20463"/>
<rect x="464.057" y="305.456" width="95.1659" height="95.1659" stroke="white" stroke-width="1.20463"/>
<rect x="559.221" y="305.456" width="95.1659" height="95.1659" stroke="white" stroke-width="1.20463"/>
<rect x="654.387" y="305.456" width="95.1659" height="95.1659" stroke="white" stroke-width="1.20463"/>
<rect x="-11.7727" y="400.622" width="95.1659" height="95.1659" stroke="white" stroke-width="1.20463"/>
<rect x="83.3933" y="400.622" width="95.1659" height="95.1659" stroke="white" stroke-width="1.20463"/>
<rect x="178.559" y="400.622" width="95.1659" height="95.1659" fill="white" fill-opacity="0.25" stroke="white" stroke-width="1.20463"/>
<rect x="273.725" y="400.622" width="95.1659" height="95.1659" stroke="white" stroke-width="1.20463"/>
<rect x="368.891" y="400.622" width="95.1659" height="95.1659" stroke="white" stroke-width="1.20463"/>
<rect x="464.057" y="400.622" width="95.1659" height="95.1659" stroke="white" stroke-width="1.20463"/>
<rect x="559.221" y="400.622" width="95.1659" height="95.1659" stroke="white" stroke-width="1.20463"/>
<rect x="654.387" y="400.622" width="95.1659" height="95.1659" stroke="white" stroke-width="1.20463"/>
<rect x="-11.7727" y="495.788" width="95.1659" height="95.1659" stroke="white" stroke-width="1.20463"/>
<rect x="83.3933" y="495.788" width="95.1659" height="95.1659" stroke="white" stroke-width="1.20463"/>
<rect x="178.559" y="495.788" width="95.1659" height="95.1659" stroke="white" stroke-width="1.20463"/>
<rect x="273.725" y="495.788" width="95.1659" height="95.1659" stroke="white" stroke-width="1.20463"/>
<rect x="368.891" y="495.788" width="95.1659" height="95.1659" stroke="white" stroke-width="1.20463"/>
<rect x="464.057" y="495.788" width="95.1659" height="95.1659" stroke="white" stroke-width="1.20463"/>
<rect x="559.221" y="495.788" width="95.1659" height="95.1659" stroke="white" stroke-width="1.20463"/>
<rect x="654.387" y="495.788" width="95.1659" height="95.1659" stroke="white" stroke-width="1.20463"/>
<rect x="-11.7727" y="590.954" width="95.1659" height="95.1659" stroke="white" stroke-width="1.20463"/>
<rect x="83.3933" y="590.954" width="95.1659" height="95.1659" stroke="white" stroke-width="1.20463"/>
<rect x="178.559" y="590.954" width="95.1659" height="95.1659" stroke="white" stroke-width="1.20463"/>
<rect x="273.725" y="590.954" width="95.1659" height="95.1659" stroke="white" stroke-width="1.20463"/>
<rect x="368.891" y="590.954" width="95.1659" height="95.1659" stroke="white" stroke-width="1.20463"/>
<rect x="464.057" y="590.954" width="95.1659" height="95.1659" stroke="white" stroke-width="1.20463"/>
<rect x="559.221" y="590.954" width="95.1659" height="95.1659" stroke="white" stroke-width="1.20463"/>
<rect x="654.387" y="590.954" width="95.1659" height="95.1659" stroke="white" stroke-width="1.20463"/>
</g>
<defs>
<filter id="filter0_f_506_2824" x="163.558" y="0.45459" width="981.774" height="811.089" filterUnits="userSpaceOnUse" color-interpolation-filters="sRGB">
<feFlood flood-opacity="0" result="BackgroundImageFix"/>
<feBlend mode="normal" in="SourceGraphic" in2="BackgroundImageFix" result="shape"/>
<feGaussianBlur stdDeviation="120.463" result="effect1_foregroundBlur_506_2824"/>
</filter>
<radialGradient id="paint0_radial_506_2824" cx="0" cy="0" r="1" gradientUnits="userSpaceOnUse" gradientTransform="translate(616.5 369.5) rotate(90) scale(445.648 1200.11)">
<stop stop-color="#D9D9D9" stop-opacity="0.2"/>
<stop offset="0.802083" stop-color="#D9D9D9" stop-opacity="0"/>
</radialGradient>
</defs>
</svg>
